<?xml version="1.0" encoding="UTF-8" standalone="no"?>
<svg
   xmlns:dc="http://purl.org/dc/elements/1.1/"
   xmlns:cc="http://creativecommons.org/ns#"
   xmlns:rdf="http://www.w3.org/1999/02/22-rdf-syntax-ns#"
   xmlns:svg="http://www.w3.org/2000/svg"
   xmlns="http://www.w3.org/2000/svg"
   xmlns:sodipodi="http://sodipodi.sourceforge.net/DTD/sodipodi-0.dtd"
   xmlns:inkscape="http://www.inkscape.org/namespaces/inkscape"
   viewBox="0 0 992.25 744"
   height="744"
   width="992.25"
   xml:space="preserve"
   version="1.1"
   id="svg2"
   inkscape:version="0.91 r13725"
   sodipodi:docname="orientation.svg"><sodipodi:namedview
     pagecolor="#ffffff"
     bordercolor="#666666"
     borderopacity="1"
     objecttolerance="10"
     gridtolerance="10"
     guidetolerance="10"
     inkscape:pageopacity="0"
     inkscape:pageshadow="2"
     inkscape:window-width="1920"
     inkscape:window-height="1009"
     id="namedview185"
     showgrid="false"
     inkscape:zoom="1.2688172"
     inkscape:cx="640.58422"
     inkscape:cy="575.86186"
     inkscape:window-x="0"
     inkscape:window-y="0"
     inkscape:window-maximized="1"
     inkscape:current-layer="g10" /><metadata
     id="metadata8"><rdf:RDF><cc:Work
         rdf:about=""><dc:format>image/svg+xml</dc:format><dc:type
           rdf:resource="http://purl.org/dc/dcmitype/StillImage" /><dc:title></dc:title></cc:Work></rdf:RDF></metadata><defs
     id="defs6"><clipPath
       id="clipPath94"
       clipPathUnits="userSpaceOnUse"><path
         style="clip-rule:evenodd"
         id="path96"
         d="M 1.1829e-5,0 793.80001,0 l 0,595.2 -793.799998171,0 0,-595.2 z" /></clipPath><clipPath
       id="clipPath106"
       clipPathUnits="userSpaceOnUse"><path
         style="clip-rule:evenodd"
         id="path108"
         d="M 1.1829e-5,0 793.80001,0 l 0,595.2 -793.799998171,0 0,-595.2 z" /></clipPath><clipPath
       id="clipPath118"
       clipPathUnits="userSpaceOnUse"><path
         style="clip-rule:evenodd"
         id="path120"
         d="M 1.1829e-5,0 793.80001,0 l 0,595.2 -793.799998171,0 0,-595.2 z" /></clipPath><clipPath
       id="clipPath130"
       clipPathUnits="userSpaceOnUse"><path
         style="clip-rule:evenodd"
         id="path132"
         d="M 1.1829e-5,0 793.80001,0 l 0,595.2 -793.799998171,0 0,-595.2 z" /></clipPath><clipPath
       id="clipPath142"
       clipPathUnits="userSpaceOnUse"><path
         style="clip-rule:evenodd"
         id="path144"
         d="M 1.1829e-5,0 793.80001,0 l 0,595.2 -793.799998171,0 0,-595.2 z" /></clipPath><clipPath
       id="clipPath166"
       clipPathUnits="userSpaceOnUse"><path
         style="clip-rule:evenodd"
         id="path168"
         d="M 1.1829e-5,0 793.80001,0 l 0,595.2 -793.799998171,0 0,-595.2 z" /></clipPath><clipPath
       id="clipPath178"
       clipPathUnits="userSpaceOnUse"><path
         style="clip-rule:evenodd"
         id="path180"
         d="M 1.1829e-5,0 793.80001,0 l 0,595.2 -793.799998171,0 0,-595.2 z" /></clipPath><clipPath
       id="clipPath190"
       clipPathUnits="userSpaceOnUse"><path
         style="clip-rule:evenodd"
         id="path192"
         d="M 1.1829e-5,0 793.80001,0 l 0,595.2 -793.799998171,0 0,-595.2 z" /></clipPath><clipPath
       id="clipPath202"
       clipPathUnits="userSpaceOnUse"><path
         style="clip-rule:evenodd"
         id="path204"
         d="M 1.1829e-5,0 793.80001,0 l 0,595.2 -793.799998171,0 0,-595.2 z" /></clipPath><clipPath
       id="clipPath214"
       clipPathUnits="userSpaceOnUse"><path
         style="clip-rule:evenodd"
         id="path216"
         d="M 1.1829e-5,0 793.80001,0 l 0,595.2 -793.799998171,0 0,-595.2 z" /></clipPath><clipPath
       id="clipPath226"
       clipPathUnits="userSpaceOnUse"><path
         style="clip-rule:evenodd"
         id="path228"
         d="M 1.1829e-5,0 793.80001,0 l 0,595.2 -793.799998171,0 0,-595.2 z" /></clipPath><clipPath
       id="clipPath238"
       clipPathUnits="userSpaceOnUse"><path
         style="clip-rule:evenodd"
         id="path240"
         d="M 1.1829e-5,0 793.80001,0 l 0,595.2 -793.799998171,0 0,-595.2 z" /></clipPath><clipPath
       id="clipPath250"
       clipPathUnits="userSpaceOnUse"><path
         style="clip-rule:evenodd"
         id="path252"
         d="M 1.1829e-5,0 793.80001,0 l 0,595.2 -793.799998171,0 0,-595.2 z" /></clipPath><clipPath
       id="clipPath262"
       clipPathUnits="userSpaceOnUse"><path
         style="clip-rule:evenodd"
         id="path264"
         d="M 1.1829e-5,0 793.80001,0 l 0,595.2 -793.799998171,0 0,-595.2 z" /></clipPath><clipPath
       id="clipPath274"
       clipPathUnits="userSpaceOnUse"><path
         style="clip-rule:evenodd"
         id="path276"
         d="M -9.1553e-5,595.2 793.8,595.2 l 0,-595.19981689 -793.800061035,0" /></clipPath><clipPath
       id="clipPath284"
       clipPathUnits="userSpaceOnUse"><path
         style="clip-rule:evenodd"
         id="path286"
         d="M 1.1829e-5,0 793.80001,0 l 0,595.2 -793.799998171,0 0,-595.2 z" /></clipPath><clipPath
       id="clipPath296"
       clipPathUnits="userSpaceOnUse"><path
         style="clip-rule:evenodd"
         id="path298"
         d="M 1.1829e-5,0 793.80001,0 l 0,595.2 -793.799998171,0 0,-595.2 z" /></clipPath><clipPath
       id="clipPath308"
       clipPathUnits="userSpaceOnUse"><path
         style="clip-rule:evenodd"
         id="path310"
         d="M -6.1035e-5,595.2 793.8,595.2 l 0,-595.19981689 -793.800061035,0" /></clipPath><clipPath
       id="clipPath318"
       clipPathUnits="userSpaceOnUse"><path
         style="clip-rule:evenodd"
         id="path320"
         d="M -6.1035e-5,595.2 793.8,595.2 l 0,-595.19981689 -793.800030518,0" /></clipPath><clipPath
       id="clipPath332"
       clipPathUnits="userSpaceOnUse"><path
         style="clip-rule:evenodd"
         id="path334"
         d="M 1.1829e-5,0 793.80001,0 l 0,595.2 -793.799998171,0 0,-595.2 z" /></clipPath><clipPath
       id="clipPath344"
       clipPathUnits="userSpaceOnUse"><path
         style="clip-rule:evenodd"
         id="path346"
         d="M 1.1829e-5,0 793.80001,0 l 0,595.2 -793.799998171,0 0,-595.2 z" /></clipPath><clipPath
       id="clipPath356"
       clipPathUnits="userSpaceOnUse"><path
         style="clip-rule:evenodd"
         id="path358"
         d="M 1.1829e-5,0 793.80001,0 l 0,595.2 -793.799998171,0 0,-595.2 z" /></clipPath></defs><g
     transform="matrix(1.25,0,0,-1.25,0,744)"
     id="g10"><path
       id="path12"
       style="fill:#cfe7f5;fill-opacity:0.50196019;fill-rule:evenodd;stroke:none"
       d="M 596.46,313.74 C 596.46,440.12 493.28,542.58 366,542.58"
       inkscape:connector-curvature="0"
       sodipodi:nodetypes="cc" /><path
       id="path14"
       style="fill:none;stroke:#808080;stroke-width:0.14;stroke-linecap:butt;stroke-linejoin:round;stroke-miterlimit:10;stroke-dasharray:none;stroke-opacity:1"
       d="M 596.46,313.74 C 596.46,440.12 493.28,542.58 366,542.58"
       inkscape:connector-curvature="0"
       sodipodi:nodetypes="cc" /><path
       id="path16"
       style="fill:none;stroke:#000000;stroke-width:0.23999999;stroke-linecap:butt;stroke-linejoin:round;stroke-miterlimit:10;stroke-dasharray:none;stroke-opacity:1"
       d="M 558.58985,371.97144 583.92,379.68"
       inkscape:connector-curvature="0"
       sodipodi:nodetypes="cc" /><path
       id="path18"
       style="fill:none;stroke:#000000;stroke-width:0.23999999;stroke-linecap:butt;stroke-linejoin:round;stroke-miterlimit:10;stroke-dasharray:none;stroke-opacity:1"
       d="M 525.73721,437.24519 546.24,453.48"
       inkscape:connector-curvature="0"
       sodipodi:nodetypes="cc" /><path
       id="path20"
       style="fill:none;stroke:#000000;stroke-width:0.23999999;stroke-linecap:butt;stroke-linejoin:round;stroke-miterlimit:10;stroke-dasharray:none;stroke-opacity:1"
       d="M 545.22349,405.77845 571.32,419.4"
       inkscape:connector-curvature="0"
       sodipodi:nodetypes="cc" /><path
       id="path22"
       style="fill:none;stroke:#000000;stroke-width:0.23999999;stroke-linecap:butt;stroke-linejoin:round;stroke-miterlimit:10;stroke-dasharray:none;stroke-opacity:1"
       d="M 498.41181,466.75874 516.24,487.44"
       inkscape:connector-curvature="0"
       sodipodi:nodetypes="cc" /><path
       id="path24"
       style="fill:none;stroke:#000000;stroke-width:0.23485199;stroke-linecap:butt;stroke-linejoin:round;stroke-miterlimit:10;stroke-dasharray:none;stroke-opacity:1"
       d="m 466.62908,490.9559 12.6182,22.83286"
       inkscape:connector-curvature="0"
       sodipodi:nodetypes="cc" /><path
       id="path26"
       style="fill:none;stroke:#000000;stroke-width:0.23999999;stroke-linecap:butt;stroke-linejoin:round;stroke-miterlimit:10;stroke-dasharray:none;stroke-opacity:1"
       d="M 388.17184,516.38159 391.2,542.64"
       inkscape:connector-curvature="0"
       sodipodi:nodetypes="cc" /><path
       id="path28"
       style="fill:none;stroke:#000000;stroke-width:0.23999999;stroke-linecap:butt;stroke-linejoin:round;stroke-miterlimit:10;stroke-dasharray:none;stroke-opacity:1"
       d="M 428.72169,508.16726 436.56,532.8"
       inkscape:connector-curvature="0"
       sodipodi:nodetypes="cc" /><path
       id="path78"
       style="fill:none;stroke:#000000;stroke-width:0.23999999;stroke-linecap:butt;stroke-linejoin:round;stroke-miterlimit:10;stroke-dasharray:none;stroke-opacity:1"
       d="m 565.18022,336.4966 28.9906,3.5834"
       inkscape:connector-curvature="0"
       sodipodi:nodetypes="cc" /><path
       id="path80"
       style="fill:#ffffff;fill-opacity:1;fill-rule:evenodd;stroke:none"
       d="m 566.34,316.26 c 0,111.27 -89.7,201.48 -200.34,201.48"
       inkscape:connector-curvature="0"
       sodipodi:nodetypes="cc" /><path
       id="path82"
       style="fill:none;stroke:#808080;stroke-width:1;stroke-linecap:butt;stroke-linejoin:round;stroke-miterlimit:10;stroke-dasharray:none;stroke-opacity:1"
       d="m 566.34,316.26 c 0,111.27 -89.7,201.48 -200.34,201.48"
       inkscape:connector-curvature="0"
       sodipodi:nodetypes="cc" /><path
       id="path84"
       style="fill:none;stroke:#808080;stroke-width:0.14;stroke-linecap:butt;stroke-linejoin:round;stroke-miterlimit:10;stroke-dasharray:none;stroke-opacity:1"
       d="m 365.39489,315.02584 201.83678,0.22334"
       inkscape:connector-curvature="0"
       sodipodi:nodetypes="cc" /><path
       id="path86"
       style="fill:none;stroke:#808080;stroke-width:0.14;stroke-linecap:butt;stroke-linejoin:round;stroke-miterlimit:10;stroke-dasharray:none;stroke-opacity:1"
       d="M 366.06,517.74 365.61416,315.40657"
       inkscape:connector-curvature="0"
       sodipodi:nodetypes="cc" /><path
       id="path88"
       style="fill:none;stroke:#000000;stroke-width:0.23999999;stroke-linecap:butt;stroke-linejoin:round;stroke-miterlimit:10;stroke-dasharray:none;stroke-opacity:1"
       d="m 366,517.8 -0.12,0" /><g
       id="g90"><g
         clip-path="url(#clipPath94)"
         id="g92"><text
           id="text98"
           style="font-variant:normal;font-weight:normal;font-size:12px;font-family:TimesNewRomanPSMT;-inkscape-font-specification:TimesNewRomanPSMT;writing-mode:lr-tb;fill:#000000;fill-opacity:1;fill-rule:nonzero;stroke:none"
           transform="matrix(1,0,0,-1,362.62,546.48)"><tspan
             id="tspan100"
             y="0"
             x="0">0</tspan></text>
</g></g><g
       id="g102"><g
         clip-path="url(#clipPath106)"
         id="g104"><text
           id="text110"
           style="font-variant:normal;font-weight:normal;font-size:12px;font-family:TimesNewRomanPSMT;-inkscape-font-specification:TimesNewRomanPSMT;writing-mode:lr-tb;fill:#000000;fill-opacity:1;fill-rule:nonzero;stroke:none"
           transform="matrix(1,0,0,-1,409.68,542.83)"><tspan
             id="tspan112"
             y="0"
             x="0">1</tspan></text>
</g></g><g
       id="g114"><g
         clip-path="url(#clipPath118)"
         id="g116"><text
           id="text122"
           style="font-variant:normal;font-weight:normal;font-size:12px;font-family:TimesNewRomanPSMT;-inkscape-font-specification:TimesNewRomanPSMT;writing-mode:lr-tb;fill:#000000;fill-opacity:1;fill-rule:nonzero;stroke:none"
           transform="matrix(1,0,0,-1,455.04,527.95)"><tspan
             id="tspan124"
             y="0"
             x="0">2</tspan></text>
</g></g><g
       id="g126"><g
         clip-path="url(#clipPath130)"
         id="g128"><text
           id="text134"
           style="font-variant:normal;font-weight:normal;font-size:12px;font-family:TimesNewRomanPSMT;-inkscape-font-specification:TimesNewRomanPSMT;writing-mode:lr-tb;fill:#000000;fill-opacity:1;fill-rule:nonzero;stroke:none"
           transform="matrix(1,0,0,-1,500.4,506.02)"><tspan
             id="tspan136"
             y="0"
             x="0">3</tspan></text>
</g></g><g
       id="g138"><g
         clip-path="url(#clipPath142)"
         id="g140"><text
           id="text146"
           style="font-variant:normal;font-weight:normal;font-size:12px;font-family:TimesNewRomanPSMT;-inkscape-font-specification:TimesNewRomanPSMT;writing-mode:lr-tb;fill:#000000;fill-opacity:1;fill-rule:nonzero;stroke:none"
           transform="matrix(1,0,0,-1,538.39,476.86)"><tspan
             id="tspan148"
             y="0"
             x="0">4</tspan></text>
</g></g><path
       id="path150"
       style="fill:none;stroke:#ff0000;stroke-width:0.23999999;stroke-linecap:butt;stroke-linejoin:round;stroke-miterlimit:10;stroke-dasharray:none;stroke-opacity:1"
       d="m 365.52,315.72 42.72,200.16" /><path
       id="path152"
       style="fill:none;stroke:#0000ff;stroke-width:0.23999999;stroke-linecap:butt;stroke-linejoin:round;stroke-miterlimit:10;stroke-dasharray:none;stroke-opacity:1"
       d="m 366.48,315.24 81.36,189.24" /><path
       id="path154"
       style="fill:#ffffff;fill-opacity:1;fill-rule:evenodd;stroke:none"
       d="m 366.36,328.74 c -7.46,0 -13.5,-5.88 -13.5,-13.14 0,-7.26 6.04,-13.14 13.5,-13.14 7.46,0 13.5,5.88 13.5,13.14 0,7.26 -6.04,13.14 -13.5,13.14 z" /><path
       id="path156"
       style="fill:none;stroke:#3465a4;stroke-width:0.14;stroke-linecap:butt;stroke-linejoin:round;stroke-miterlimit:10;stroke-dasharray:none;stroke-opacity:1"
       d="m 366.36,328.74 c -7.46,0 -13.5,-5.88 -13.5,-13.14 0,-7.26 6.04,-13.14 13.5,-13.14 7.46,0 13.5,5.88 13.5,13.14 0,7.26 -6.04,13.14 -13.5,13.14 z" /><path
       id="path158"
       style="fill:none;stroke:#000000;stroke-width:0.14;stroke-linecap:butt;stroke-linejoin:round;stroke-miterlimit:10;stroke-dasharray:none;stroke-opacity:1"
       d="m 357.42,324.3 18,-17.52" /><path
       id="path160"
       style="fill:none;stroke:#000000;stroke-width:0.14;stroke-linecap:butt;stroke-linejoin:round;stroke-miterlimit:10;stroke-dasharray:none;stroke-opacity:1"
       d="m 357.3,306.9 18.12,17.4" /><g
       id="g234"><g
         clip-path="url(#clipPath238)"
         id="g236"><text
           id="text242"
           style="font-variant:normal;font-weight:normal;font-size:12.02400017px;font-family:TimesNewRomanPSMT;-inkscape-font-specification:TimesNewRomanPSMT;writing-mode:lr-tb;fill:#000000;fill-opacity:1;fill-rule:nonzero;stroke:none"
           transform="matrix(1,0,0,-1,568.44,440.78)"><tspan
             id="tspan244"
             y="0"
             x="0 3 6">...</tspan></text>
</g></g><g
       id="g246"><g
         clip-path="url(#clipPath250)"
         id="g248"><text
           id="text254"
           style="font-variant:normal;font-weight:normal;font-size:20.04000092px;font-family:TimesNewRomanPSMT;-inkscape-font-specification:TimesNewRomanPSMT;writing-mode:lr-tb;fill:#ff3333;fill-opacity:1;fill-rule:nonzero;stroke:none"
           transform="matrix(1,0,0,-1,378.1,495.55)"><tspan
             id="tspan256"
             y="0"
             x="0">θ</tspan></text>
</g></g><g
       id="g258"><g
         clip-path="url(#clipPath262)"
         id="g260"><text
           id="text266"
           style="font-variant:normal;font-weight:normal;font-size:13.31999969px;font-family:TimesNewRomanPSMT;-inkscape-font-specification:TimesNewRomanPSMT;writing-mode:lr-tb;fill:#ff3333;fill-opacity:1;fill-rule:nonzero;stroke:none"
           transform="matrix(1,0,0,-1,387.7,490.63)"><tspan
             id="tspan268"
             y="0"
             x="0">1</tspan></text>
</g></g><g
       id="g270"><g
         clip-path="url(#clipPath274)"
         id="g272"><path
           id="path278"
           style="fill:none;stroke:#6666ff;stroke-width:0.14;stroke-linecap:butt;stroke-linejoin:round;stroke-miterlimit:10;stroke-dasharray:none;stroke-opacity:1"
           d="m 365.57,430.82 c 0,0 14.26,-0.02 25.6,-5.69 11.32,-5.67 17,-11.3 17,-11.3" /></g></g><g
       id="g280"><g
         clip-path="url(#clipPath284)"
         id="g282"><text
           id="text288"
           style="font-variant:normal;font-weight:normal;font-size:20.04000092px;font-family:TimesNewRomanPSMT;-inkscape-font-specification:TimesNewRomanPSMT;writing-mode:lr-tb;fill:#6666ff;fill-opacity:1;fill-rule:nonzero;stroke:none"
           transform="matrix(1,0,0,-1,392.66,429.43)"><tspan
             id="tspan290"
             y="0"
             x="0">θ</tspan></text>
</g></g><g
       id="g292"><g
         clip-path="url(#clipPath296)"
         id="g294"><text
           id="text300"
           style="font-variant:normal;font-weight:normal;font-size:13.31999969px;font-family:TimesNewRomanPSMT;-inkscape-font-specification:TimesNewRomanPSMT;writing-mode:lr-tb;fill:#6666ff;fill-opacity:1;fill-rule:nonzero;stroke:none"
           transform="matrix(1,0,0,-1,402.26,424.51)"><tspan
             id="tspan302"
             y="0"
             x="0">2</tspan></text>
</g></g><g
       id="g304"><g
         clip-path="url(#clipPath308)"
         id="g306"><path
           id="path312"
           style="fill:#6666ff;fill-opacity:1;fill-rule:nonzero;stroke:none"
           d="m 365.57,431.29 0.05,0 0.12,0 0.21,-0.01 0.27,0 0.35,-0.01 0.41,-0.02 0.48,-0.02 0.55,-0.03 0.59,-0.04 0.67,-0.05 0.7,-0.06 0.76,-0.07 0.8,-0.08 0.85,-0.1 1.81,-0.23 1.94,-0.3 2.05,-0.39 2.14,-0.46 2.2,-0.56 2.22,-0.66 2.24,-0.76 2.22,-0.88 2.19,-1.01 2.07,-1.07 1.93,-1.06 1.8,-1.04 1.67,-1.02 1.54,-0.98 1.4,-0.93 1.27,-0.89 1.14,-0.83 1,-0.77 0.88,-0.69 0.74,-0.61 0.6,-0.51 0.35,-0.31 -0.67,-0.75 -0.33,0.29 -0.59,0.51 -0.72,0.59 -0.86,0.69 -0.98,0.75 -1.13,0.82 -1.25,0.88 -1.39,0.92 -1.52,0.97 -1.65,1.01 -1.78,1.03 -1.91,1.04 -2.03,1.05 -2.14,0.99 -2.17,0.86 -2.2,0.76 -2.19,0.64 -2.16,0.55 -2.11,0.46 -2.03,0.38 -1.91,0.3 -1.8,0.23 -0.83,0.1 -0.79,0.08 -0.75,0.06 -0.71,0.06 -0.64,0.06 -0.59,0.03 -0.53,0.03 -0.48,0.03 -0.4,0.01 -0.34,0.01 -0.29,0.01 -0.17,0 -0.12,0 -0.05,0 0,1 z m 40.3,-10.04 2.3,-7.45 -7.62,1.66 c -0.27,0.06 -0.44,0.32 -0.38,0.59 0.06,0.27 0.32,0.44 0.59,0.39 l 6.79,-1.48 -0.58,-0.64 -2.06,6.64 c -0.08,0.26 0.07,0.54 0.33,0.62 0.27,0.08 0.55,-0.07 0.63,-0.33 z" /></g></g><g
       id="g314"><g
         clip-path="url(#clipPath318)"
         id="g316"><path
           id="path322"
           style="fill:#ff3333;fill-opacity:1;fill-rule:nonzero;stroke:none"
           d="m 365.41,487.95 0.03,0.01 c 0.03,0.01 0.07,0.02 0.11,0.02 l 0.07,0.01 0.09,0.02 0.16,0.03 0.23,0.04 0.27,0.04 0.65,0.09 0.83,0.1 0.98,0.11 1.15,0.1 1.27,0.09 1.42,0.06 1.54,0.05 1.65,0.01 1.76,-0.04 1.86,-0.08 1.95,-0.15 2.04,-0.2 2.11,-0.28 2.06,-0.34 1.9,-0.38 1.75,-0.41 1.6,-0.44 1.45,-0.44 1.3,-0.45 1.18,-0.46 1.02,-0.43 0.91,-0.43 0.77,-0.39 0.65,-0.36 0.51,-0.31 0.08,-0.05 -0.54,-0.84 -0.05,0.04 -0.49,0.29 -0.61,0.34 -0.75,0.38 -0.86,0.41 -1,0.42 -1.14,0.44 -1.28,0.44 -1.41,0.44 -1.57,0.43 -1.71,0.4 -1.88,0.37 -2.02,0.34 -2.08,0.28 -2.01,0.2 -1.92,0.14 -1.84,0.08 -1.74,0.04 -1.63,-0.01 -1.52,-0.04 -1.39,-0.07 -1.26,-0.09 -1.12,-0.1 -0.97,-0.1 -0.8,-0.1 -0.66,-0.09 -0.25,-0.04 -0.21,-0.04 -0.17,-0.03 -0.16,-0.02 -0.08,-0.01 0.11,0.02 -0.02,-0.01 -0.32,0.95 z m 32.61,1.23 3.28,-7.07 -7.77,0.62 c -0.28,0.02 -0.49,0.26 -0.46,0.53 0.02,0.28 0.26,0.49 0.54,0.46 l 6.92,-0.55 -0.49,-0.71 -2.93,6.3 c -0.12,0.25 -0.01,0.55 0.24,0.67 0.25,0.11 0.55,0 0.67,-0.25 z" /></g></g><path
       id="path324"
       style="fill:#000000;fill-opacity:1;fill-rule:nonzero;stroke:none"
       d="m 420.36,332.28 0,58.33 -1.44,0 0,-58.33 1.44,0 z m 3.4,52.7 -4.12,7.06 -4.12,-7.06 c -0.2,-0.35 -0.09,-0.79 0.26,-0.99 0.34,-0.2 0.78,-0.08 0.98,0.26 l 3.5,6 -1.24,0 3.5,-6 c 0.2,-0.34 0.64,-0.46 0.98,-0.26 0.35,0.2 0.46,0.64 0.26,0.99 z" /><path
       id="path326"
       style="fill:#000000;fill-opacity:1;fill-rule:nonzero;stroke:none"
       d="m 419.64,333 58.81,0 0,-1.44 -58.81,0 0,1.44 z m 53.18,3.4 7.06,-4.12 -7.06,-4.12 c -0.35,-0.2 -0.79,-0.09 -0.99,0.26 -0.2,0.34 -0.08,0.78 0.26,0.98 l 6,3.5 0,-1.24 -6,3.5 c -0.34,0.2 -0.46,0.64 -0.26,0.98 0.2,0.35 0.64,0.46 0.99,0.26 z" /><g
       id="g328"><g
         clip-path="url(#clipPath332)"
         id="g330"><text
           id="text336"
           style="font-variant:normal;font-weight:normal;font-size:24px;font-family:TimesNewRomanPSMT;-inkscape-font-specification:TimesNewRomanPSMT;writing-mode:lr-tb;fill:#000000;fill-opacity:1;fill-rule:nonzero;stroke:none"
           transform="matrix(1,0,0,-1,473.74,343.94)"><tspan
             id="tspan338"
             y="0"
             x="0">x</tspan></text>
</g></g><g
       id="g340"><g
         clip-path="url(#clipPath344)"
         id="g342"><text
           id="text348"
           style="font-variant:normal;font-weight:normal;font-size:24px;font-family:TimesNewRomanPSMT;-inkscape-font-specification:TimesNewRomanPSMT;writing-mode:lr-tb;fill:#000000;fill-opacity:1;fill-rule:nonzero;stroke:none"
           transform="matrix(1,0,0,-1,426.67,387.58)"><tspan
             id="tspan350"
             y="0"
             x="0">y</tspan></text>
</g></g><g
       id="g352"><g
         clip-path="url(#clipPath356)"
         id="g354"><text
           id="text360"
           style="font-variant:normal;font-weight:normal;font-size:24px;font-family:TimesNewRomanPSMT;-inkscape-font-specification:TimesNewRomanPSMT;writing-mode:lr-tb;fill:#000000;fill-opacity:1;fill-rule:nonzero;stroke:none"
           transform="matrix(1,0,0,-1,381.31,316.87)"><tspan
             id="tspan362"
             y="0"
             x="0">z</tspan></text>
</g></g><path
       id="path364"
       style="fill:#000000;fill-opacity:1;fill-rule:nonzero;stroke:none"
       d="m 427.2,408.84 13.57,0 0,-1.44 -13.57,0 0,1.44 z m 7.94,3.4 7.06,-4.12 -7.06,-4.12 c -0.35,-0.2 -0.79,-0.09 -0.99,0.26 -0.2,0.34 -0.08,0.78 0.26,0.98 l 6,3.5 0,-1.24 -6,3.5 c -0.34,0.2 -0.46,0.64 -0.26,0.98 0.2,0.35 0.64,0.46 0.99,0.26 z" /><path
       id="path366"
       style="fill:#000000;fill-opacity:1;fill-rule:nonzero;stroke:none"
       d="m 473.28,365.04 15.61,0 0,-1.44 -15.61,0 0,1.44 z m 9.98,3.4 7.06,-4.12 -7.06,-4.12 0,0 c -0.35,-0.2 -0.79,-0.09 -0.99,0.26 -0.2,0.34 -0.08,0.78 0.26,0.98 l 0,0 6,3.5 0,-1.24 -6,3.5 c -0.34,0.2 -0.46,0.64 -0.26,0.98 0.2,0.35 0.64,0.46 0.99,0.26 z" /><path
       id="path368"
       style="fill:#000000;fill-opacity:1;fill-rule:nonzero;stroke:none"
       d="m 381.6,337.92 13.57,0 0,-1.44 -13.57,0 0,1.44 z m 7.94,3.4 7.06,-4.12 -7.06,-4.12 c -0.35,-0.2 -0.79,-0.09 -0.99,0.26 -0.2,0.34 -0.08,0.78 0.26,0.98 l 6,3.5 0,-1.24 -6,3.5 c -0.34,0.2 -0.46,0.64 -0.26,0.98 0.2,0.35 0.64,0.46 0.99,0.26 z" /></g></svg>