<?xml version="1.0" encoding="UTF-8" standalone="no"?>
<svg
   xmlns:dc="http://purl.org/dc/elements/1.1/"
   xmlns:cc="http://creativecommons.org/ns#"
   xmlns:rdf="http://www.w3.org/1999/02/22-rdf-syntax-ns#"
   xmlns:svg="http://www.w3.org/2000/svg"
   xmlns="http://www.w3.org/2000/svg"
   xmlns:sodipodi="http://sodipodi.sourceforge.net/DTD/sodipodi-0.dtd"
   xmlns:inkscape="http://www.inkscape.org/namespaces/inkscape"
   viewBox="0 0 992.25 744"
   height="744"
   width="992.25"
   xml:space="preserve"
   version="1.1"
   id="svg2"
   inkscape:version="0.91 r13725"
   sodipodi:docname="rsector_first_angle.svg"><sodipodi:namedview
     pagecolor="#ffffff"
     bordercolor="#666666"
     borderopacity="1"
     objecttolerance="10"
     gridtolerance="10"
     guidetolerance="10"
     inkscape:pageopacity="0"
     inkscape:pageshadow="2"
     inkscape:window-width="1920"
     inkscape:window-height="1009"
     id="namedview158"
     showgrid="false"
     inkscape:zoom="1.2688172"
     inkscape:cx="554.20884"
     inkscape:cy="369.73572"
     inkscape:window-x="0"
     inkscape:window-y="0"
     inkscape:window-maximized="1"
     inkscape:current-layer="g10" /><metadata
     id="metadata8"><rdf:RDF><cc:Work
         rdf:about=""><dc:format>image/svg+xml</dc:format><dc:type
           rdf:resource="http://purl.org/dc/dcmitype/StillImage" /><dc:title></dc:title></cc:Work></rdf:RDF></metadata><defs
     id="defs6"><clipPath
       id="clipPath98"
       clipPathUnits="userSpaceOnUse"><path
         style="clip-rule:evenodd"
         id="path100"
         d="M 1.1829e-5,0 793.80001,0 l 0,595.2 -793.799998171,0 0,-595.2 z" /></clipPath><clipPath
       id="clipPath110"
       clipPathUnits="userSpaceOnUse"><path
         style="clip-rule:evenodd"
         id="path112"
         d="M 1.1829e-5,0 793.80001,0 l 0,595.2 -793.799998171,0 0,-595.2 z" /></clipPath><clipPath
       id="clipPath122"
       clipPathUnits="userSpaceOnUse"><path
         style="clip-rule:evenodd"
         id="path124"
         d="M 1.1829e-5,0 793.80001,0 l 0,595.2 -793.799998171,0 0,-595.2 z" /></clipPath><clipPath
       id="clipPath134"
       clipPathUnits="userSpaceOnUse"><path
         style="clip-rule:evenodd"
         id="path136"
         d="M 1.1829e-5,0 793.80001,0 l 0,595.2 -793.799998171,0 0,-595.2 z" /></clipPath><clipPath
       id="clipPath146"
       clipPathUnits="userSpaceOnUse"><path
         style="clip-rule:evenodd"
         id="path148"
         d="M 1.1829e-5,0 793.80001,0 l 0,595.2 -793.799998171,0 0,-595.2 z" /></clipPath><clipPath
       id="clipPath158"
       clipPathUnits="userSpaceOnUse"><path
         style="clip-rule:evenodd"
         id="path160"
         d="M 1.1829e-5,0 793.80001,0 l 0,595.2 -793.799998171,0 0,-595.2 z" /></clipPath><clipPath
       id="clipPath170"
       clipPathUnits="userSpaceOnUse"><path
         style="clip-rule:evenodd"
         id="path172"
         d="M 1.1829e-5,0 793.80001,0 l 0,595.2 -793.799998171,0 0,-595.2 z" /></clipPath><clipPath
       id="clipPath182"
       clipPathUnits="userSpaceOnUse"><path
         style="clip-rule:evenodd"
         id="path184"
         d="M 1.1829e-5,0 793.80001,0 l 0,595.2 -793.799998171,0 0,-595.2 z" /></clipPath><clipPath
       id="clipPath194"
       clipPathUnits="userSpaceOnUse"><path
         style="clip-rule:evenodd"
         id="path196"
         d="M 1.1829e-5,0 793.80001,0 l 0,595.2 -793.799998171,0 0,-595.2 z" /></clipPath><clipPath
       id="clipPath206"
       clipPathUnits="userSpaceOnUse"><path
         style="clip-rule:evenodd"
         id="path208"
         d="M 1.1829e-5,0 793.80001,0 l 0,595.2 -793.799998171,0 0,-595.2 z" /></clipPath><clipPath
       id="clipPath218"
       clipPathUnits="userSpaceOnUse"><path
         style="clip-rule:evenodd"
         id="path220"
         d="M 1.1829e-5,0 793.80001,0 l 0,595.2 -793.799998171,0 0,-595.2 z" /></clipPath><clipPath
       id="clipPath230"
       clipPathUnits="userSpaceOnUse"><path
         style="clip-rule:evenodd"
         id="path232"
         d="M 1.1829e-5,0 793.80001,0 l 0,595.2 -793.799998171,0 0,-595.2 z" /></clipPath><clipPath
       id="clipPath246"
       clipPathUnits="userSpaceOnUse"><path
         style="clip-rule:evenodd"
         id="path248"
         d="M 1.1829e-5,0 793.80001,0 l 0,595.2 -793.799998171,0 0,-595.2 z" /></clipPath><clipPath
       id="clipPath258"
       clipPathUnits="userSpaceOnUse"><path
         style="clip-rule:evenodd"
         id="path260"
         d="M 1.1829e-5,0 793.80001,0 l 0,595.2 -793.799998171,0 0,-595.2 z" /></clipPath><clipPath
       id="clipPath270"
       clipPathUnits="userSpaceOnUse"><path
         style="clip-rule:evenodd"
         id="path272"
         d="M 1.1829e-5,0 793.80001,0 l 0,595.2 -793.799998171,0 0,-595.2 z" /></clipPath><clipPath
       id="clipPath290"
       clipPathUnits="userSpaceOnUse"><path
         style="clip-rule:evenodd"
         id="path292"
         d="M 1.1829e-5,0 793.80001,0 l 0,595.2 -793.799998171,0 0,-595.2 z" /></clipPath><clipPath
       id="clipPath310"
       clipPathUnits="userSpaceOnUse"><path
         style="clip-rule:evenodd"
         id="path312"
         d="M -9.1553e-5,595.2 793.8,595.2 l 0,-595.19981689 -793.800061035,0" /></clipPath></defs><g
     transform="matrix(1.25,0,0,-1.25,0,744)"
     id="g10"><path
       id="path12"
       style="fill:#cfe7f5;fill-opacity:0.50196019;fill-rule:evenodd;stroke:none"
       d="M 596.46,313.74 C 596.46,440.12 493.28,542.58 366,542.58"
       inkscape:connector-curvature="0"
       sodipodi:nodetypes="cc" /><path
       id="path14"
       style="fill:none;stroke:#808080;stroke-width:0.14;stroke-linecap:butt;stroke-linejoin:round;stroke-miterlimit:10;stroke-dasharray:none;stroke-opacity:1"
       d="M 596.46,313.74 C 596.46,440.12 493.28,542.58 366,542.58"
       inkscape:connector-curvature="0"
       sodipodi:nodetypes="cc" /><path
       id="path16"
       style="fill:none;stroke:#000000;stroke-width:0.21465518;stroke-linecap:butt;stroke-linejoin:round;stroke-miterlimit:10;stroke-dasharray:none;stroke-opacity:1"
       d="m 560.60475,356.49501 32.24003,7.15371"
       inkscape:connector-curvature="0"
       sodipodi:nodetypes="cc" /><path
       id="path18"
       style="fill:none;stroke:#000000;stroke-width:0.23643695;stroke-linecap:butt;stroke-linejoin:round;stroke-miterlimit:10;stroke-dasharray:none;stroke-opacity:1"
       d="m 535.17718,424.84213 22.94294,15.45598"
       inkscape:connector-curvature="0"
       sodipodi:nodetypes="cc" /><path
       id="path20"
       style="fill:none;stroke:#000000;stroke-width:0.22232953;stroke-linecap:butt;stroke-linejoin:round;stroke-miterlimit:10;stroke-dasharray:none;stroke-opacity:1"
       d="m 550.74017,390.42948 27.71962,11.59358"
       inkscape:connector-curvature="0"
       sodipodi:nodetypes="cc" /><path
       id="path22"
       style="fill:none;stroke:#000000;stroke-width:0.2377252;stroke-linecap:butt;stroke-linejoin:round;stroke-miterlimit:10;stroke-dasharray:none;stroke-opacity:1"
       d="m 510.26002,455.04558 19.64327,19.33188"
       inkscape:connector-curvature="0"
       sodipodi:nodetypes="cc" /><path
       id="path24"
       style="fill:none;stroke:#000000;stroke-width:0.23657103;stroke-linecap:butt;stroke-linejoin:round;stroke-miterlimit:10;stroke-dasharray:none;stroke-opacity:1"
       d="m 481.10911,479.36869 15.50317,22.88313"
       inkscape:connector-curvature="0"
       sodipodi:nodetypes="cc" /><path
       id="path26"
       style="fill:none;stroke:#000000;stroke-width:0.23999999;stroke-linecap:butt;stroke-linejoin:round;stroke-miterlimit:10;stroke-dasharray:none;stroke-opacity:1"
       d="M 408.30904,512.39039 413.88,538.56"
       inkscape:connector-curvature="0"
       sodipodi:nodetypes="cc" /><path
       id="path28"
       style="fill:none;stroke:#000000;stroke-width:0.23999999;stroke-linecap:butt;stroke-linejoin:round;stroke-miterlimit:10;stroke-dasharray:none;stroke-opacity:1"
       d="M 445.46351,499.84848 456.36,524.28"
       inkscape:connector-curvature="0"
       sodipodi:nodetypes="cc" /><path
       id="path78"
       style="fill:none;stroke:#000000;stroke-width:0.13336463;stroke-linecap:butt;stroke-linejoin:round;stroke-miterlimit:10;stroke-dasharray:none;stroke-opacity:1"
       d="m 563.68033,320.76769 30.95417,1.10534"
       inkscape:connector-curvature="0"
       sodipodi:nodetypes="cc" /><g
       id="g80"><path
         id="path82"
         style="fill:none;stroke:#000000;stroke-width:0.23999999;stroke-linecap:butt;stroke-linejoin:round;stroke-miterlimit:10;stroke-dasharray:1.224, 1.224, 1.224, 1.224;stroke-dashoffset:0;stroke-opacity:1"
         d="M 386.14232,516.42246 391.2,566.88"
         inkscape:connector-curvature="0"
         sodipodi:nodetypes="cc" /></g><path
       id="path84"
       style="fill:#ffffff;fill-opacity:1;fill-rule:evenodd;stroke:none"
       d="m 565.26,315.66 c 0,111.27 -89.72,201.48 -200.4,201.48"
       inkscape:connector-curvature="0"
       sodipodi:nodetypes="cc" /><path
       id="path86"
       style="fill:none;stroke:#808080;stroke-width:0.14;stroke-linecap:butt;stroke-linejoin:round;stroke-miterlimit:10;stroke-dasharray:none;stroke-opacity:1"
       d="m 565.26,315.66 c 0,111.27 -89.72,201.48 -200.4,201.48"
       inkscape:connector-curvature="0"
       sodipodi:nodetypes="cc" /><path
       id="path88"
       style="fill:none;stroke:#808080;stroke-width:0.14;stroke-linecap:butt;stroke-linejoin:round;stroke-miterlimit:10;stroke-dasharray:none;stroke-opacity:1"
       d="M 364.05738,313.24249 566.34,313.02"
       inkscape:connector-curvature="0"
       sodipodi:nodetypes="cc" /><path
       id="path90"
       style="fill:none;stroke:#808080;stroke-width:0.14;stroke-linecap:butt;stroke-linejoin:round;stroke-miterlimit:10;stroke-dasharray:none;stroke-opacity:1"
       d="m 365.82,566.82 0.24,-252.30511"
       inkscape:connector-curvature="0"
       sodipodi:nodetypes="cc" /><path
       id="path92"
       style="fill:none;stroke:#000000;stroke-width:0.23999999;stroke-linecap:butt;stroke-linejoin:round;stroke-miterlimit:10;stroke-dasharray:none;stroke-opacity:1"
       d="m 366,517.8 -0.12,0" /><g
       id="g94"><g
         clip-path="url(#clipPath98)"
         id="g96"><text
           id="text102"
           style="font-variant:normal;font-weight:normal;font-size:12.02400017px;font-family:TimesNewRomanPSMT;-inkscape-font-specification:TimesNewRomanPSMT;writing-mode:lr-tb;fill:#000000;fill-opacity:1;fill-rule:nonzero;stroke:none"
           transform="matrix(1,0,0,-1,390.96,523.8)"><tspan
             id="tspan104"
             y="0"
             x="0">0</tspan></text>
</g></g><g
       id="g106"><g
         clip-path="url(#clipPath110)"
         id="g108"><text
           id="text114"
           style="font-variant:normal;font-weight:normal;font-size:12px;font-family:TimesNewRomanPSMT;-inkscape-font-specification:TimesNewRomanPSMT;writing-mode:lr-tb;fill:#000000;fill-opacity:1;fill-rule:nonzero;stroke:none"
           transform="matrix(1,0,0,-1,430.66,515.28)"><tspan
             id="tspan116"
             y="0"
             x="0">1</tspan></text>
</g></g><g
       id="g118"><g
         clip-path="url(#clipPath122)"
         id="g120"><text
           id="text126"
           style="font-variant:normal;font-weight:normal;font-size:12px;font-family:TimesNewRomanPSMT;-inkscape-font-specification:TimesNewRomanPSMT;writing-mode:lr-tb;fill:#000000;fill-opacity:1;fill-rule:nonzero;stroke:none"
           transform="matrix(1,0,0,-1,470.35,498.98)"><tspan
             id="tspan128"
             y="0"
             x="0">2</tspan></text>
</g></g><g
       id="g130"><g
         clip-path="url(#clipPath134)"
         id="g132"><text
           id="text138"
           style="font-variant:normal;font-weight:normal;font-size:12px;font-family:TimesNewRomanPSMT;-inkscape-font-specification:TimesNewRomanPSMT;writing-mode:lr-tb;fill:#000000;fill-opacity:1;fill-rule:nonzero;stroke:none"
           transform="matrix(1,0,0,-1,506.06,476.86)"><tspan
             id="tspan140"
             y="0"
             x="0">3</tspan></text>
</g></g><g
       id="g142"><g
         clip-path="url(#clipPath146)"
         id="g144"><text
           id="text150"
           style="font-variant:normal;font-weight:normal;font-size:12px;font-family:TimesNewRomanPSMT;-inkscape-font-specification:TimesNewRomanPSMT;writing-mode:lr-tb;fill:#000000;fill-opacity:1;fill-rule:nonzero;stroke:none"
           transform="matrix(1,0,0,-1,528.74,452.14)"><tspan
             id="tspan152"
             y="0"
             x="0">4</tspan></text>
</g></g><g
       id="g226"><g
         clip-path="url(#clipPath230)"
         id="g228"><text
           id="text234"
           style="font-variant:normal;font-weight:normal;font-size:12.02400017px;font-family:TimesNewRomanPSMT;-inkscape-font-specification:TimesNewRomanPSMT;writing-mode:lr-tb;fill:#000000;fill-opacity:1;fill-rule:nonzero;stroke:none"
           transform="matrix(1,0,0,-1,568.44,440.78)"><tspan
             id="tspan236"
             y="0"
             x="0 3 6">...</tspan></text>
</g></g><path
       id="path238"
       style="fill:#000000;fill-opacity:1;fill-rule:nonzero;stroke:none"
       d="m 424.44,335.16 0,58.21 -1.44,0 0,-58.21 1.44,0 z m 3.4,52.58 -4.12,7.06 -4.12,-7.06 c -0.2,-0.35 -0.09,-0.79 0.26,-0.99 0.34,-0.2 0.78,-0.08 0.98,0.26 l 3.5,6 -1.24,0 3.5,-6 c 0.2,-0.34 0.64,-0.46 0.98,-0.26 0.35,0.2 0.46,0.64 0.26,0.99 z" /><path
       id="path240"
       style="fill:#000000;fill-opacity:1;fill-rule:nonzero;stroke:none"
       d="m 423.72,335.88 58.69,0 0,-1.44 -58.69,0 0,1.44 z m 53.06,3.4 7.06,-4.12 -7.06,-4.12 c -0.35,-0.2 -0.79,-0.09 -0.99,0.26 -0.2,0.34 -0.08,0.78 0.26,0.98 l 6,3.5 0,-1.24 -6,3.5 c -0.34,0.2 -0.46,0.64 -0.26,0.98 0.2,0.35 0.64,0.46 0.99,0.26 z" /><g
       id="g242"><g
         clip-path="url(#clipPath246)"
         id="g244"><text
           id="text250"
           style="font-variant:normal;font-weight:normal;font-size:24px;font-family:TimesNewRomanPSMT;-inkscape-font-specification:TimesNewRomanPSMT;writing-mode:lr-tb;fill:#000000;fill-opacity:1;fill-rule:nonzero;stroke:none"
           transform="matrix(1,0,0,-1,477.72,346.78)"><tspan
             id="tspan252"
             y="0"
             x="0">x</tspan></text>
</g></g><g
       id="g254"><g
         clip-path="url(#clipPath258)"
         id="g256"><text
           id="text262"
           style="font-variant:normal;font-weight:normal;font-size:24.02400017px;font-family:TimesNewRomanPSMT;-inkscape-font-specification:TimesNewRomanPSMT;writing-mode:lr-tb;fill:#000000;fill-opacity:1;fill-rule:nonzero;stroke:none"
           transform="matrix(1,0,0,-1,404.83,390.43)"><tspan
             id="tspan264"
             y="0"
             x="0">y</tspan></text>
</g></g><g
       id="g266"><g
         clip-path="url(#clipPath270)"
         id="g268"><text
           id="text274"
           style="font-variant:normal;font-weight:normal;font-size:24px;font-family:TimesNewRomanPSMT;-inkscape-font-specification:TimesNewRomanPSMT;writing-mode:lr-tb;fill:#000000;fill-opacity:1;fill-rule:nonzero;stroke:none"
           transform="matrix(1,0,0,-1,385.3,319.7)"><tspan
             id="tspan276"
             y="0"
             x="0">z</tspan></text>
</g></g><path
       id="path278"
       style="fill:#000000;fill-opacity:1;fill-rule:nonzero;stroke:none"
       d="m 403.56,413.28 13.57,0 0,-1.44 -13.57,0 0,1.44 z m 7.94,3.4 7.06,-4.12 -7.06,-4.12 c -0.35,-0.2 -0.79,-0.09 -0.99,0.26 -0.2,0.34 -0.08,0.78 0.26,0.98 l 6,3.5 0,-1.24 -6,3.5 c -0.34,0.2 -0.46,0.64 -0.26,0.98 0.2,0.35 0.64,0.46 0.99,0.26 z" /><path
       id="path280"
       style="fill:#000000;fill-opacity:1;fill-rule:nonzero;stroke:none"
       d="m 477.24,367.92 15.61,0 0,-1.44 -15.61,0 0,1.44 z m 9.98,3.4 7.06,-4.12 -7.06,-4.12 0,0 c -0.35,-0.2 -0.79,-0.09 -0.99,0.26 -0.2,0.34 -0.08,0.78 0.26,0.98 l 0,0 6,3.5 0,-1.24 -6,3.5 c -0.34,0.2 -0.46,0.64 -0.26,0.98 0.2,0.35 0.64,0.46 0.99,0.26 z" /><path
       id="path282"
       style="fill:#000000;fill-opacity:1;fill-rule:nonzero;stroke:none"
       d="m 385.56,340.8 13.57,0 0,-1.44 -13.57,0 0,1.44 z m 7.94,3.4 7.06,-4.12 -7.06,-4.12 c -0.35,-0.2 -0.79,-0.09 -0.99,0.26 -0.2,0.34 -0.08,0.78 0.26,0.98 l 6,3.5 0,-1.24 -6,3.5 c -0.34,0.2 -0.46,0.64 -0.26,0.98 0.2,0.35 0.64,0.46 0.99,0.26 z" /><path
       id="path284"
       style="fill:none;stroke:#ff0000;stroke-width:0.23999999;stroke-linecap:butt;stroke-linejoin:round;stroke-miterlimit:10;stroke-dasharray:none;stroke-opacity:1"
       d="m 366.48,314.04 19.08,190.44" /><g
       id="g286"><g
         clip-path="url(#clipPath290)"
         id="g288"><text
           id="text294"
           style="font-variant:normal;font-weight:normal;font-size:12px;font-family:TimesNewRomanPSMT;-inkscape-font-specification:TimesNewRomanPSMT;writing-mode:lr-tb;fill:#000000;fill-opacity:1;fill-rule:nonzero;stroke:none"
           transform="matrix(1,0,0,-1,370.03,574.8)"><tspan
             id="tspan296"
             y="0"
             x="0 8.0279999 12.696 17.988001 23.268 26.604 32.604 36.599998 39.599998 43.548 46.883999 50.880001 55.548 58.883999 62.015999 67.295998 73.295998 79.176003 82.512001">Rsector first angle</tspan></text>
</g></g><path
       id="path298"
       style="fill:#ffffff;fill-opacity:1;fill-rule:evenodd;stroke:none"
       d="m 366.36,328.74 c -7.46,0 -13.5,-5.88 -13.5,-13.14 0,-7.26 6.04,-13.14 13.5,-13.14 7.46,0 13.5,5.88 13.5,13.14 0,7.26 -6.04,13.14 -13.5,13.14 z" /><path
       id="path300"
       style="fill:none;stroke:#3465a4;stroke-width:0.14;stroke-linecap:butt;stroke-linejoin:round;stroke-miterlimit:10;stroke-dasharray:none;stroke-opacity:1"
       d="m 366.36,328.74 c -7.46,0 -13.5,-5.88 -13.5,-13.14 0,-7.26 6.04,-13.14 13.5,-13.14 7.46,0 13.5,5.88 13.5,13.14 0,7.26 -6.04,13.14 -13.5,13.14 z" /><path
       id="path302"
       style="fill:none;stroke:#000000;stroke-width:0.14;stroke-linecap:butt;stroke-linejoin:round;stroke-miterlimit:10;stroke-dasharray:none;stroke-opacity:1"
       d="m 357.42,324.3 18,-17.52" /><path
       id="path304"
       style="fill:none;stroke:#000000;stroke-width:0.14;stroke-linecap:butt;stroke-linejoin:round;stroke-miterlimit:10;stroke-dasharray:none;stroke-opacity:1"
       d="m 357.3,306.9 18.12,17.4" /><g
       id="g306"><g
         clip-path="url(#clipPath310)"
         id="g308"><path
           id="path314"
           style="fill:none;stroke:#ff3333;stroke-width:0.14;stroke-linecap:butt;stroke-linejoin:round;stroke-miterlimit:10;stroke-dasharray:none;stroke-opacity:1"
           d="m 365.74,555.29 c 0,0 2.6,1.85 13.18,0.26 10.6,-1.56 10.6,-5.3 10.6,-5.3" /></g></g></g></svg>