<?xml version="1.0" encoding="UTF-8" standalone="no"?>
<svg
   xmlns:dc="http://purl.org/dc/elements/1.1/"
   xmlns:cc="http://creativecommons.org/ns#"
   xmlns:rdf="http://www.w3.org/1999/02/22-rdf-syntax-ns#"
   xmlns:svg="http://www.w3.org/2000/svg"
   xmlns="http://www.w3.org/2000/svg"
   xmlns:sodipodi="http://sodipodi.sourceforge.net/DTD/sodipodi-0.dtd"
   xmlns:inkscape="http://www.inkscape.org/namespaces/inkscape"
   viewBox="0 0 846 279"
   height="279"
   width="846"
   xml:space="preserve"
   version="1.1"
   id="svg2"
   inkscape:version="0.48.4 r9939"
   sodipodi:docname="scanner_iso.svg"><sodipodi:namedview
     pagecolor="#ffffff"
     bordercolor="#666666"
     borderopacity="1"
     objecttolerance="10"
     gridtolerance="10"
     guidetolerance="10"
     inkscape:pageopacity="0"
     inkscape:pageshadow="2"
     inkscape:window-width="1855"
     inkscape:window-height="1056"
     id="namedview62"
     showgrid="false"
     inkscape:zoom="0.89718925"
     inkscape:cx="462.67506"
     inkscape:cy="471.60765"
     inkscape:window-x="65"
     inkscape:window-y="24"
     inkscape:window-maximized="1"
     inkscape:current-layer="g10" /><metadata
     id="metadata8"><rdf:RDF><cc:Work
         rdf:about=""><dc:format>image/svg+xml</dc:format><dc:type
           rdf:resource="http://purl.org/dc/dcmitype/StillImage" /><dc:title /></cc:Work></rdf:RDF></metadata><defs
     id="defs6"><clipPath
       id="clipPath88"
       clipPathUnits="userSpaceOnUse"><path
         id="path90"
         d="M 1.1829e-5,0 793.80001,0 l 0,595.2 -793.799998171,0 0,-595.2 z"
         inkscape:connector-curvature="0" /></clipPath><clipPath
       id="clipPath100"
       clipPathUnits="userSpaceOnUse"><path
         id="path102"
         d="M 1.1829e-5,0 793.80001,0 l 0,595.2 -793.799998171,0 0,-595.2 z"
         inkscape:connector-curvature="0" /></clipPath><clipPath
       id="clipPath112"
       clipPathUnits="userSpaceOnUse"><path
         id="path114"
         d="M 1.1829e-5,0 793.80001,0 l 0,595.2 -793.799998171,0 0,-595.2 z"
         inkscape:connector-curvature="0" /></clipPath></defs><g
     transform="matrix(1.25,0,0,-1.25,0,279)"
     id="g10"><path
       id="path12"
       style="fill:#cfe7f5;fill-opacity:1;fill-rule:evenodd;stroke:none"
       d="m 425.93683,222.79 c -47.49,0 -85.98,-49.83 -85.98,-111.3 0,-61.47 38.49,-111.3 85.98,-111.3 47.49,0 85.98,49.83 85.98,111.3 0,61.47 -38.49,111.3 -85.98,111.3 z"
       inkscape:connector-curvature="0" /><path
       id="path14"
       style="fill:none;stroke:#808080;stroke-width:0.14;stroke-linecap:butt;stroke-linejoin:round;stroke-miterlimit:10;stroke-opacity:1;stroke-dasharray:none"
       d="m 425.93683,222.79 c -47.49,0 -85.98,-49.83 -85.98,-111.3 0,-61.47 38.49,-111.3 85.98,-111.3 47.49,0 85.98,49.83 85.98,111.3 0,61.47 -38.49,111.3 -85.98,111.3 z"
       inkscape:connector-curvature="0" /><path
       id="path16"
       style="fill:#cfe7f5;fill-opacity:1;fill-rule:evenodd;stroke:none"
       d="m 391.61683,0.25 37.68,0 0,12.36 -37.68,0 0,-12.36 z"
       inkscape:connector-curvature="0" /><path
       id="path18"
       style="fill:#cfe7f5;fill-opacity:1;fill-rule:evenodd;stroke:none"
       d="m 391.61683,210.49 37.68,0 0,12.24 -37.68,0 0,-12.24 z"
       inkscape:connector-curvature="0" /><path
       id="path20"
       style="fill:#cfe7f5;fill-opacity:1;fill-rule:evenodd;stroke:none"
       d="m 391.61683,222.67 c -47.49,0 -85.98,-49.83 -85.98,-111.3 0,-61.47 38.49,-111.3 85.98,-111.3 47.49,0 85.98,49.83 85.98,111.3 0,61.47 -38.49,111.3 -85.98,111.3 z"
       inkscape:connector-curvature="0" /><path
       id="path22"
       style="fill:none;stroke:#808080;stroke-width:0.14;stroke-linecap:butt;stroke-linejoin:round;stroke-miterlimit:10;stroke-opacity:1;stroke-dasharray:none"
       d="m 391.61683,222.67 c -47.49,0 -85.98,-49.83 -85.98,-111.3 0,-61.47 38.49,-111.3 85.98,-111.3 47.49,0 85.98,49.83 85.98,111.3 0,61.47 -38.49,111.3 -85.98,111.3 z"
       inkscape:connector-curvature="0" /><path
       id="path24"
       style="fill:none;stroke:#808080;stroke-width:0.14;stroke-linecap:butt;stroke-linejoin:round;stroke-miterlimit:10;stroke-opacity:1;stroke-dasharray:none"
       d="m 391.67683,222.79 37.68,-0.12"
       inkscape:connector-curvature="0" /><path
       id="path26"
       style="fill:none;stroke:#808080;stroke-width:0.14;stroke-linecap:butt;stroke-linejoin:round;stroke-miterlimit:10;stroke-opacity:1;stroke-dasharray:none"
       d="m 391.55683,0.19 37.8,0"
       inkscape:connector-curvature="0" /><path
       id="path28"
       style="fill:#ffffff;fill-opacity:1;fill-rule:evenodd;stroke:none"
       d="m 391.61683,193.15 c -28.53,0 -51.66,-36.56 -51.66,-81.66 0,-45.1 23.13,-81.66 51.66,-81.66 28.53,0 51.66,36.56 51.66,81.66 0,45.1 -23.13,81.66 -51.66,81.66 z"
       inkscape:connector-curvature="0" /><path
       id="path30"
       style="fill:none;stroke:#808080;stroke-width:0.14;stroke-linecap:butt;stroke-linejoin:round;stroke-miterlimit:10;stroke-opacity:1;stroke-dasharray:none"
       d="m 391.61683,193.15 c -28.53,0 -51.66,-36.56 -51.66,-81.66 0,-45.1 23.13,-81.66 51.66,-81.66 28.53,0 51.66,36.56 51.66,81.66 0,45.1 -23.13,81.66 -51.66,81.66 z"
       inkscape:connector-curvature="0" /><path
       id="path32"
       style="fill:none;stroke:#000000;stroke-width:0.229376;stroke-linecap:butt;stroke-linejoin:round;stroke-miterlimit:10;stroke-opacity:1;stroke-dasharray:none"
       d="m 3.2368315,80.47 247.4399985,0"
       inkscape:connector-curvature="0" /><path
       id="path34"
       style="fill:none;stroke:#000000;stroke-width:0.229376;stroke-linecap:butt;stroke-linejoin:round;stroke-miterlimit:10;stroke-opacity:1;stroke-dasharray:none"
       d="m 37.556832,61.99 247.439998,0"
       inkscape:connector-curvature="0" /><path
       id="path36"
       style="fill:none;stroke:#000000;stroke-width:0.229376;stroke-linecap:butt;stroke-linejoin:round;stroke-miterlimit:10;stroke-opacity:1;stroke-dasharray:none"
       d="m 37.556832,49.63 247.439998,0"
       inkscape:connector-curvature="0" /><path
       id="path38"
       style="fill:none;stroke:#000000;stroke-width:0.229376;stroke-linecap:butt;stroke-linejoin:round;stroke-miterlimit:10;stroke-opacity:1;stroke-dasharray:none"
       d="M 3.2368315,80.47 37.556832,61.99"
       inkscape:connector-curvature="0" /><path
       id="path40"
       style="fill:none;stroke:#000000;stroke-width:0.229376;stroke-linecap:butt;stroke-linejoin:round;stroke-miterlimit:10;stroke-opacity:1;stroke-dasharray:none"
       d="M 3.1168315,68.23 37.556832,49.63"
       inkscape:connector-curvature="0" /><path
       id="path42"
       style="fill:none;stroke:#000000;stroke-width:0.229376;stroke-linecap:butt;stroke-linejoin:round;stroke-miterlimit:10;stroke-opacity:1;stroke-dasharray:none"
       d="m 250.67683,80.47 34.32,-18.48"
       inkscape:connector-curvature="0" /><path
       id="path44"
       style="fill:none;stroke:#000000;stroke-width:0.229376;stroke-linecap:butt;stroke-linejoin:round;stroke-miterlimit:10;stroke-opacity:1;stroke-dasharray:none"
       d="m 285.05683,61.99 c 6.68,-6.15 -0.06,-12.24 -0.06,-12.24"
       inkscape:connector-curvature="0" /><path
       id="path46"
       style="fill:none;stroke:#000000;stroke-width:0.229376;stroke-linecap:butt;stroke-linejoin:round;stroke-miterlimit:10;stroke-opacity:1;stroke-dasharray:none"
       d="m 37.556832,61.99 c -6.722,-6.15 -0.056,-12.24 -0.056,-12.24"
       inkscape:connector-curvature="0" /><path
       id="path48"
       style="fill:none;stroke:#000000;stroke-width:0.229376;stroke-linecap:butt;stroke-linejoin:round;stroke-miterlimit:10;stroke-opacity:1;stroke-dasharray:none"
       d="m 3.1168315,80.47 c -6.722,-6.15 -0.056,-12.24 -0.056,-12.24"
       inkscape:connector-curvature="0" /><path
       id="path50"
       style="fill:none;stroke:#000000;stroke-width:0.15490051;stroke-linecap:butt;stroke-linejoin:round;stroke-miterlimit:10;stroke-opacity:1;stroke-dasharray:none"
       d="m 82.676832,24.91 78.367118,0"
       inkscape:connector-curvature="0" /><path
       id="path52"
       style="fill:none;stroke:#000000;stroke-width:0.229376;stroke-linecap:butt;stroke-linejoin:round;stroke-miterlimit:10;stroke-opacity:1;stroke-dasharray:none"
       d="m 116.99683,6.31 171.84,0"
       inkscape:connector-curvature="0" /><path
       id="path54"
       style="fill:none;stroke:#000000;stroke-width:0.229376;stroke-linecap:butt;stroke-linejoin:round;stroke-miterlimit:10;stroke-opacity:1;stroke-dasharray:none"
       d="m 116.99683,0.19 171.84,0"
       inkscape:connector-curvature="0" /><path
       id="path56"
       style="fill:none;stroke:#000000;stroke-width:0.229376;stroke-linecap:butt;stroke-linejoin:round;stroke-miterlimit:10;stroke-opacity:1;stroke-dasharray:none"
       d="M 82.676832,24.91 116.99683,6.31"
       inkscape:connector-curvature="0" /><path
       id="path58"
       style="fill:none;stroke:#000000;stroke-width:0.229376;stroke-linecap:butt;stroke-linejoin:round;stroke-miterlimit:10;stroke-opacity:1;stroke-dasharray:none"
       d="M 82.556832,18.79 116.99683,0.19"
       inkscape:connector-curvature="0" /><path
       id="path60"
       style="fill:none;stroke:#000000;stroke-width:0.229376;stroke-linecap:butt;stroke-linejoin:round;stroke-miterlimit:10;stroke-opacity:1;stroke-dasharray:none"
       d="m 254.51683,24.91 34.32,-18.6"
       inkscape:connector-curvature="0" /><path
       id="path62"
       style="fill:none;stroke:#000000;stroke-width:0.229376;stroke-linecap:butt;stroke-linejoin:round;stroke-miterlimit:10;stroke-opacity:1;stroke-dasharray:none"
       d="m 288.95683,6.31 0,-6.12"
       inkscape:connector-curvature="0" /><path
       id="path64"
       style="fill:none;stroke:#000000;stroke-width:0.229376;stroke-linecap:butt;stroke-linejoin:round;stroke-miterlimit:10;stroke-opacity:1;stroke-dasharray:none"
       d="m 116.99683,6.43 0,-6.24"
       inkscape:connector-curvature="0" /><path
       id="path66"
       style="fill:none;stroke:#000000;stroke-width:0.229376;stroke-linecap:butt;stroke-linejoin:round;stroke-miterlimit:10;stroke-opacity:1;stroke-dasharray:none"
       d="m 82.676832,24.91 0,-6.24"
       inkscape:connector-curvature="0" /><path
       id="path68"
       style="fill:none;stroke:#000000;stroke-width:0.229376;stroke-linecap:butt;stroke-linejoin:round;stroke-miterlimit:10;stroke-opacity:1;stroke-dasharray:none"
       d="m 154.67683,49.87 40.8,-43.68"
       inkscape:connector-curvature="0" /><path
       id="path70"
       style="fill:none;stroke:#000000;stroke-width:0.229376;stroke-linecap:butt;stroke-linejoin:round;stroke-miterlimit:10;stroke-opacity:1;stroke-dasharray:none"
       d="m 195.59683,49.63 41.28,-43.32"
       inkscape:connector-curvature="0" /><path
       id="path72"
       style="fill:none;stroke:#000000;stroke-width:0.23973437;stroke-linecap:butt;stroke-linejoin:round;stroke-miterlimit:10;stroke-opacity:1;stroke-dasharray:none"
       d="M 138.85342,49.62077 161.15449,24.7616"
       inkscape:connector-curvature="0" /><path
       id="path74"
       style="fill:none;stroke:#000000;stroke-width:0.229376;stroke-linecap:butt;stroke-linejoin:round;stroke-miterlimit:10;stroke-opacity:1;stroke-dasharray:none"
       d="m 161.15683,24.91 34.32,-18.6"
       inkscape:connector-curvature="0" /><path
       id="path76"
       style="fill:none;stroke:#000000;stroke-width:0.229376;stroke-linecap:butt;stroke-linejoin:round;stroke-miterlimit:10;stroke-opacity:1;stroke-dasharray:none"
       d="m 195.71683,6.43 41.16,-0.12"
       inkscape:connector-curvature="0" /><path
       id="path82"
       style="fill:none;stroke:#000000;stroke-width:0.229376;stroke-linecap:butt;stroke-linejoin:round;stroke-miterlimit:10;stroke-opacity:1;stroke-dasharray:none"
       d="m 285.05683,61.99 c 6.68,-6.15 -0.06,-12.24 -0.06,-12.24"
       inkscape:connector-curvature="0" /><g
       id="g84"
       transform="translate(-22.008931,-405.22797)"><g
         clip-path="url(#clipPath88)"
         id="g86"><text
           id="text92"
           style="font-size:24px;font-variant:normal;font-weight:normal;writing-mode:lr-tb;fill:#000000;fill-opacity:1;fill-rule:nonzero;stroke:none;font-family:TimesNewRomanPSMT;-inkscape-font-specification:TimesNewRomanPSMT"
           transform="matrix(1,0,0,-1,434.9,523.85)"><tspan
             id="tspan94"
             y="0"
             x="0">z</tspan></text>
</g></g><g
       id="g96"
       transform="translate(-39.663168,-277.55)"><g
         clip-path="url(#clipPath100)"
         id="g98"><text
           id="text104"
           style="font-size:24px;font-variant:normal;font-weight:normal;writing-mode:lr-tb;fill:#000000;fill-opacity:1;fill-rule:nonzero;stroke:none;font-family:TimesNewRomanPSMT;-inkscape-font-specification:TimesNewRomanPSMT"
           transform="matrix(1,0,0,-1,146.16,390.19)"><tspan
             id="tspan106"
             y="0"
             x="0 13.344 21.336 33.335999 45.335999 52.056 57.936001 69.935997 77.928001 83.928001 95.928001 106.632 118.632 125.304 133.368">Front of gantry</tspan></text>
</g></g><g
       id="g108"
       transform="translate(-39.663168,-277.55)"><g
         clip-path="url(#clipPath112)"
         id="g110"><text
           id="text116"
           style="font-size:24px;font-variant:normal;font-weight:normal;writing-mode:lr-tb;fill:#000000;fill-opacity:1;fill-rule:nonzero;stroke:none;font-family:TimesNewRomanPSMT;-inkscape-font-specification:TimesNewRomanPSMT"
           transform="scale(1,-1)"
           x="571.89069"
           y="-390.19"><tspan
             id="tspan118"
             y="-390.19"
             x="571.89069 587.89868 598.55469 609.21069 621.21069 627.21069 639.21069 647.13068 653.13068 665.13068 675.78668 687.78668 694.45868 702.54669">Back of gantry</tspan></text>
</g></g><path
       id="path120"
       style="fill:#000000;fill-opacity:1;fill-rule:nonzero;stroke:none"
       d="m 393.36531,114.24187 39.47962,0 0,-1.44 -39.47962,0 0,1.44 z m 37.43086,3.4 2.56914,-4.12 -2.56914,-4.12 c -0.12737,-0.2 -0.28749,-0.09 -0.36027,0.26 -0.0728,0.34 -0.0291,0.78 0.0946,0.98 l 2.1834,3.5 0,-1.24 -2.1834,3.5 c -0.12373,0.2 -0.1674,0.64 -0.0946,0.98 0.0728,0.35 0.2329,0.46 0.36027,0.26 z"
       inkscape:connector-curvature="0" /><path
       id="path122"
       style="fill:#000000;fill-opacity:1;fill-rule:nonzero;stroke:none"
       d="m 410.12734,137.46153 19.21,0 0,-1.44 -19.21,0 0,1.44 z m 13.58,3.4 7.06,-4.12 -7.06,-4.12 c -0.35,-0.2 -0.79,-0.09 -0.99,0.26 -0.2,0.34 -0.08,0.78 0.26,0.98 l 6,3.5 0,-1.24 -6,3.5 c -0.34,0.2 -0.46,0.64 -0.26,0.98 0.2,0.35 0.64,0.46 0.99,0.26 z"
       inkscape:connector-curvature="0" /><path
       inkscape:connector-curvature="0"
       id="path50-1"
       style="fill:none;stroke:#000000;stroke-width:0.10401304;stroke-linecap:butt;stroke-linejoin:round;stroke-miterlimit:10;stroke-opacity:1;stroke-dasharray:none"
       d="m 219.17785,24.99238 35.33491,0" /><path
       inkscape:connector-curvature="0"
       id="path30-9"
       style="fill:none;stroke:#808080;stroke-width:0.14;stroke-linecap:butt;stroke-linejoin:round;stroke-miterlimit:10;stroke-opacity:1;stroke-dasharray:none"
       d="m 408.73134,188.74979 c -19.48891,-11.6853 -33.34264,-41.47401 -33.34264,-76.37776 0,-35.69084 14.48559,-66.03335 34.66958,-77.14051"
       sodipodi:nodetypes="csc" /><path
       inkscape:connector-curvature="0"
       d="m 392.58497,112.78561 0,39.47962 1.44,0 0,-39.47962 -1.44,0 z m -3.4,37.43086 4.12,2.56914 4.12,-2.56914 c 0.2,-0.12737 0.09,-0.28748 -0.26,-0.36026 -0.34,-0.0728 -0.78,-0.0291 -0.98,0.0946 l -3.5,2.18341 1.24,0 -3.5,-2.18341 c -0.2,-0.12372 -0.64,-0.16739 -0.98,-0.0946 -0.35,0.0728 -0.46,0.23289 -0.26,0.36026 z"
       style="fill:#000000;fill-opacity:1;fill-rule:nonzero;stroke:none"
       id="path3038" /><path
       inkscape:connector-curvature="0"
       d="m 392.72423,113.09141 27.9163,-27.91631 1.01824,1.01824 -27.91631,27.9163 -1.01823,-1.01823 z m 24.06345,-28.87178 4.72994,1.09662 1.09662,4.72994 c 0.0514,0.23149 -0.13965,0.26693 -0.4386,0.0709 -0.29189,-0.18894 -0.57212,-0.53096 -0.62607,-0.75985 l -0.93098,-4.01878 0.87682,0.87682 -4.01878,-0.93098 c -0.22891,-0.0539 -0.57091,-0.33418 -0.75985,-0.62607 -0.19601,-0.29897 -0.16059,-0.48996 0.0709,-0.4386 z"
       style="fill:#000000;fill-opacity:1;fill-rule:nonzero;stroke:none"
       id="path3810" /><g
       transform="translate(-62.008931,-382.82797)"
       id="g3812"><g
         id="g3814"
         clip-path="url(#clipPath88)"><text
           transform="matrix(1,0,0,-1,434.9,523.85)"
           style="font-size:24px;font-variant:normal;font-weight:normal;writing-mode:lr-tb;fill:#000000;fill-opacity:1;fill-rule:nonzero;stroke:none;font-family:TimesNewRomanPSMT;-inkscape-font-specification:TimesNewRomanPSMT"
           id="text3816"><tspan
             x="0"
             y="0"
             id="tspan3818">y</tspan></text>
</g></g><path
       inkscape:connector-curvature="0"
       d="m 373.32734,159.86153 19.21,0 0,-1.44 -19.21,0 0,1.44 z m 13.58,3.4 7.06,-4.12 -7.06,-4.12 c -0.35,-0.2 -0.79,-0.09 -0.99,0.26 -0.2,0.34 -0.08,0.78 0.26,0.98 l 6,3.5 0,-1.24 -6,3.5 c -0.34,0.2 -0.46,0.64 -0.26,0.98 0.2,0.35 0.64,0.46 0.99,0.26 z"
       style="fill:#000000;fill-opacity:1;fill-rule:nonzero;stroke:none"
       id="path3820" /><g
       id="g3822"
       transform="translate(-41.208931,-453.22797)"><g
         clip-path="url(#clipPath88)"
         id="g3824"><text
           id="text3826"
           style="font-size:24px;font-variant:normal;font-weight:normal;writing-mode:lr-tb;fill:#000000;fill-opacity:1;fill-rule:nonzero;stroke:none;font-family:TimesNewRomanPSMT;-inkscape-font-specification:TimesNewRomanPSMT"
           transform="matrix(1,0,0,-1,434.9,523.85)"><tspan
             id="tspan3828"
             y="0"
             x="0">x</tspan></text>
</g></g><path
       id="path3830"
       style="fill:#000000;fill-opacity:1;fill-rule:nonzero;stroke:none"
       d="m 394.12734,89.46153 19.21,0 0,-1.44 -19.21,0 0,1.44 z m 13.58,3.4 7.06,-4.12 -7.06,-4.12 c -0.35,-0.2 -0.79,-0.09 -0.99,0.26 -0.2,0.34 -0.08,0.78 0.26,0.98 l 6,3.5 0,-1.24 -6,3.5 c -0.34,0.2 -0.46,0.64 -0.26,0.98 0.2,0.35 0.64,0.46 0.99,0.26 z"
       inkscape:connector-curvature="0" /></g></svg>