<?xml version="1.0" encoding="UTF-8" standalone="no"?>
<svg
   xmlns:dc="http://purl.org/dc/elements/1.1/"
   xmlns:cc="http://creativecommons.org/ns#"
   xmlns:rdf="http://www.w3.org/1999/02/22-rdf-syntax-ns#"
   xmlns:svg="http://www.w3.org/2000/svg"
   xmlns="http://www.w3.org/2000/svg"
   xmlns:sodipodi="http://sodipodi.sourceforge.net/DTD/sodipodi-0.dtd"
   xmlns:inkscape="http://www.inkscape.org/namespaces/inkscape"
   viewBox="0 0 342 344"
   height="344"
   width="342"
   xml:space="preserve"
   version="1.1"
   id="svg2"
   inkscape:version="0.48.4 r9939"
   sodipodi:docname="scanner_variable.svg"><sodipodi:namedview
     pagecolor="#ffffff"
     bordercolor="#666666"
     borderopacity="1"
     objecttolerance="10"
     gridtolerance="10"
     guidetolerance="10"
     inkscape:pageopacity="0"
     inkscape:pageshadow="2"
     inkscape:window-width="1855"
     inkscape:window-height="1056"
     id="namedview151"
     showgrid="false"
     inkscape:zoom="1.7943785"
     inkscape:cx="200.9488"
     inkscape:cy="165.20359"
     inkscape:window-x="65"
     inkscape:window-y="24"
     inkscape:window-maximized="1"
     inkscape:current-layer="g10" /><metadata
     id="metadata8"><rdf:RDF><cc:Work
         rdf:about=""><dc:format>image/svg+xml</dc:format><dc:type
           rdf:resource="http://purl.org/dc/dcmitype/StillImage" /><dc:title /></cc:Work></rdf:RDF></metadata><defs
     id="defs6"><marker
       inkscape:stockid="Arrow1Lend"
       orient="auto"
       refY="0"
       refX="0"
       id="Arrow1Lend"
       style="overflow:visible"><path
         id="path4080"
         d="M 0,0 5,-5 -12.5,0 5,5 0,0 z"
         style="fill-rule:evenodd;stroke:#000000;stroke-width:1pt"
         transform="matrix(-0.8,0,0,-0.8,-10,0)"
         inkscape:connector-curvature="0" /></marker><marker
       inkscape:stockid="Arrow1Lstart"
       orient="auto"
       refY="0"
       refX="0"
       id="Arrow1Lstart"
       style="overflow:visible"
       inkscape:isstock="true"><path
         id="path4228"
         d="M 0,0 5,-5 -12.5,0 5,5 0,0 z"
         style="fill:#000000;fill-opacity:1;fill-rule:evenodd;stroke:#000000;stroke-width:1pt;stroke-opacity:1"
         transform="matrix(0.8,0,0,0.8,10,0)"
         inkscape:connector-curvature="0" /></marker><clipPath
       id="clipPath108"
       clipPathUnits="userSpaceOnUse"><path
         id="path110"
         d="M 1.1829e-5,0 793.80001,0 l 0,595.2 -793.799998171,0 0,-595.2 z"
         inkscape:connector-curvature="0" /></clipPath><clipPath
       id="clipPath120"
       clipPathUnits="userSpaceOnUse"><path
         id="path122"
         d="M 1.1829e-5,0 793.80001,0 l 0,595.2 -793.799998171,0 0,-595.2 z"
         inkscape:connector-curvature="0" /></clipPath><clipPath
       id="clipPath132"
       clipPathUnits="userSpaceOnUse"><path
         id="path134"
         d="M 1.1829e-5,0 793.80001,0 l 0,595.2 -793.799998171,0 0,-595.2 z"
         inkscape:connector-curvature="0" /></clipPath><clipPath
       id="clipPath144"
       clipPathUnits="userSpaceOnUse"><path
         id="path146"
         d="M 1.1829e-5,0 793.80001,0 l 0,595.2 -793.799998171,0 0,-595.2 z"
         inkscape:connector-curvature="0" /></clipPath><clipPath
       id="clipPath156"
       clipPathUnits="userSpaceOnUse"><path
         id="path158"
         d="M 1.1829e-5,0 793.80001,0 l 0,595.2 -793.799998171,0 0,-595.2 z"
         inkscape:connector-curvature="0" /></clipPath><clipPath
       id="clipPath168"
       clipPathUnits="userSpaceOnUse"><path
         id="path170"
         d="M 1.1829e-5,0 793.80001,0 l 0,595.2 -793.799998171,0 0,-595.2 z"
         inkscape:connector-curvature="0" /></clipPath><clipPath
       id="clipPath180"
       clipPathUnits="userSpaceOnUse"><path
         id="path182"
         d="M 1.1829e-5,0 793.80001,0 l 0,595.2 -793.799998171,0 0,-595.2 z"
         inkscape:connector-curvature="0" /></clipPath><clipPath
       id="clipPath192"
       clipPathUnits="userSpaceOnUse"><path
         id="path194"
         d="M 1.1829e-5,0 793.80001,0 l 0,595.2 -793.799998171,0 0,-595.2 z"
         inkscape:connector-curvature="0" /></clipPath><clipPath
       id="clipPath204"
       clipPathUnits="userSpaceOnUse"><path
         id="path206"
         d="M 1.1829e-5,0 793.80001,0 l 0,595.2 -793.799998171,0 0,-595.2 z"
         inkscape:connector-curvature="0" /></clipPath><clipPath
       id="clipPath220"
       clipPathUnits="userSpaceOnUse"><path
         id="path222"
         d="M 1.1829e-5,0 793.80001,0 l 0,595.2 -793.799998171,0 0,-595.2 z"
         inkscape:connector-curvature="0" /></clipPath><clipPath
       id="clipPath232"
       clipPathUnits="userSpaceOnUse"><path
         id="path234"
         d="M 1.1829e-5,0 793.80001,0 l 0,595.2 -793.799998171,0 0,-595.2 z"
         inkscape:connector-curvature="0" /></clipPath><clipPath
       id="clipPath244"
       clipPathUnits="userSpaceOnUse"><path
         id="path246"
         d="M 1.1829e-5,0 793.80001,0 l 0,595.2 -793.799998171,0 0,-595.2 z"
         inkscape:connector-curvature="0" /></clipPath><clipPath
       id="clipPath256"
       clipPathUnits="userSpaceOnUse"><path
         id="path258"
         d="M 1.1829e-5,0 793.80001,0 l 0,595.2 -793.799998171,0 0,-595.2 z"
         inkscape:connector-curvature="0" /></clipPath><clipPath
       id="clipPath268"
       clipPathUnits="userSpaceOnUse"><path
         id="path270"
         d="M 1.1829e-5,0 793.80001,0 l 0,595.2 -793.799998171,0 0,-595.2 z"
         inkscape:connector-curvature="0" /></clipPath><clipPath
       id="clipPath280"
       clipPathUnits="userSpaceOnUse"><path
         id="path282"
         d="M 1.1829e-5,0 793.80001,0 l 0,595.2 -793.799998171,0 0,-595.2 z"
         inkscape:connector-curvature="0" /></clipPath><clipPath
       id="clipPath292"
       clipPathUnits="userSpaceOnUse"><path
         id="path294"
         d="M 1.1829e-5,0 793.80001,0 l 0,595.2 -793.799998171,0 0,-595.2 z"
         inkscape:connector-curvature="0" /></clipPath><marker
       inkscape:stockid="Arrow1Lstart"
       orient="auto"
       refY="0"
       refX="0"
       id="Arrow1Lstart-6"
       style="overflow:visible"
       inkscape:isstock="true"><path
         inkscape:connector-curvature="0"
         id="path4228-6"
         d="M 0,0 5,-5 -12.5,0 5,5 0,0 z"
         style="fill:#000000;fill-opacity:1;fill-rule:evenodd;stroke:#000000;stroke-width:1pt;stroke-opacity:1"
         transform="matrix(0.8,0,0,0.8,10,0)" /></marker><marker
       inkscape:stockid="Arrow1Lstart"
       orient="auto"
       refY="0"
       refX="0"
       id="marker4572"
       style="overflow:visible"
       inkscape:isstock="true"><path
         inkscape:connector-curvature="0"
         id="path4574"
         d="M 0,0 5,-5 -12.5,0 5,5 0,0 z"
         style="fill:#000000;fill-opacity:1;fill-rule:evenodd;stroke:#000000;stroke-width:1pt;stroke-opacity:1"
         transform="matrix(0.8,0,0,0.8,10,0)" /></marker></defs><g
     transform="matrix(1.25,0,0,-1.25,0,344)"
     id="g10"><path
       inkscape:connector-curvature="0"
       id="path4713"
       d="m 25.11167,22.403637 0,73.11724"
       style="fill:none;stroke:#000000;stroke-width:0.40000001;stroke-linecap:butt;stroke-linejoin:miter;stroke-miterlimit:4;stroke-opacity:1;stroke-dasharray:none;marker-end:url(#Arrow1Lend)" /><path
       style="fill:none;stroke:#000000;stroke-width:0.40000001;stroke-linecap:butt;stroke-linejoin:miter;stroke-miterlimit:4;stroke-opacity:1;stroke-dasharray:none;marker-end:url(#Arrow1Lend)"
       d="m 24.951742,22.100617 73.11724,0"
       id="path3885"
       inkscape:connector-curvature="0" /><path
       id="path88"
       style="fill:none;stroke:#000000;stroke-width:0.23999999;stroke-linecap:butt;stroke-linejoin:round;stroke-miterlimit:10;stroke-opacity:1;stroke-dasharray:none"
       d="m 25.58847,227.81484 -0.12,0"
       inkscape:connector-curvature="0" /><g
       id="g104"
       transform="translate(-340.41153,-280.38516)"><g
         clip-path="url(#clipPath108)"
         id="g106"><text
           id="text112"
           style="font-size:12px;font-variant:normal;font-weight:normal;writing-mode:lr-tb;fill:#000000;fill-opacity:1;fill-rule:nonzero;stroke:none;font-family:TimesNewRomanPSMT;-inkscape-font-specification:TimesNewRomanPSMT"
           transform="matrix(1,0,0,-1,362.62,546.48)"><tspan
             id="tspan114"
             y="0"
             x="0">0</tspan></text>
</g></g><g
       id="g116"
       transform="translate(-343.61153,-280.38516)"><g
         clip-path="url(#clipPath120)"
         id="g118"><text
           id="text124"
           style="font-size:12px;font-variant:normal;font-weight:normal;writing-mode:lr-tb;fill:#000000;fill-opacity:1;fill-rule:nonzero;stroke:none;font-family:TimesNewRomanPSMT;-inkscape-font-specification:TimesNewRomanPSMT"
           transform="matrix(1,0,0,-1,409.68,542.83)"><tspan
             id="tspan126"
             y="0"
             x="0">1</tspan></text>
</g></g><g
       id="g128"
       transform="translate(-346.81153,-277.18516)"><g
         clip-path="url(#clipPath132)"
         id="g130"><text
           id="text136"
           style="font-size:12px;font-variant:normal;font-weight:normal;writing-mode:lr-tb;fill:#000000;fill-opacity:1;fill-rule:nonzero;stroke:none;font-family:TimesNewRomanPSMT;-inkscape-font-specification:TimesNewRomanPSMT"
           transform="matrix(1,0,0,-1,455.04,527.95)"><tspan
             id="tspan138"
             y="0"
             x="0">2</tspan></text>
</g></g><g
       id="g140"
       transform="translate(-354.81153,-273.98516)"><g
         clip-path="url(#clipPath144)"
         id="g142"><text
           id="text148"
           style="font-size:12px;font-variant:normal;font-weight:normal;writing-mode:lr-tb;fill:#000000;fill-opacity:1;fill-rule:nonzero;stroke:none;font-family:TimesNewRomanPSMT;-inkscape-font-specification:TimesNewRomanPSMT"
           transform="matrix(1,0,0,-1,500.4,506.02)"><tspan
             id="tspan150"
             y="0"
             x="0">3</tspan></text>
</g></g><g
       id="g152"
       transform="translate(-356.41153,-270.78516)"><g
         clip-path="url(#clipPath156)"
         id="g154"><text
           id="text160"
           style="font-size:12px;font-variant:normal;font-weight:normal;writing-mode:lr-tb;fill:#000000;fill-opacity:1;fill-rule:nonzero;stroke:none;font-family:TimesNewRomanPSMT;-inkscape-font-specification:TimesNewRomanPSMT"
           transform="matrix(1,0,0,-1,538.39,476.86)"><tspan
             id="tspan162"
             y="0"
             x="0">4</tspan></text>
</g></g><g
       id="g176"
       transform="translate(-374.15845,-351.67)"><g
         clip-path="url(#clipPath180)"
         id="g178"><text
           id="text184"
           style="font-size:24.02400017px;font-variant:normal;font-weight:normal;writing-mode:lr-tb;fill:#000000;fill-opacity:1;fill-rule:nonzero;stroke:none;font-family:TimesNewRomanPSMT;-inkscape-font-specification:TimesNewRomanPSMT"
           transform="matrix(1,0,0,-1,455.04,351.67)"><tspan
             id="tspan186"
             y="0"
             x="0"
             style="font-size:20px">x</tspan></text>
</g></g><g
       id="g188"
       transform="translate(-402.2068,-333.59618)"><g
         clip-path="url(#clipPath192)"
         id="g190"><text
           id="text196"
           style="font-size:24px;font-variant:normal;font-weight:normal;writing-mode:lr-tb;fill:#000000;fill-opacity:1;fill-rule:nonzero;stroke:none;font-family:TimesNewRomanPSMT;-inkscape-font-specification:TimesNewRomanPSMT"
           transform="matrix(1,0,0,-1,409.68,404.76)"><tspan
             id="tspan198"
             y="0"
             x="0"
             style="font-size:20px">y</tspan></text>
</g></g><g
       id="g200"
       transform="translate(-331.04896,-318.07289)"><g
         clip-path="url(#clipPath204)"
         id="g202"><text
           id="text208"
           style="font-size:24px;font-variant:normal;font-weight:normal;writing-mode:lr-tb;fill:#000000;fill-opacity:1;fill-rule:nonzero;stroke:none;font-family:TimesNewRomanPSMT;-inkscape-font-specification:TimesNewRomanPSMT"
           transform="matrix(1,0,0,-1,330.29,333.1)"><tspan
             id="tspan210"
             y="0"
             x="0"
             style="font-size:20px">z</tspan></text>
</g></g><path
       id="path214"
       style="fill:#000000;fill-opacity:1;fill-rule:nonzero;stroke:none"
       d="m 82.09538,16.303627 9.366,0 0,-0.864 -9.366,0 0,0.864 z m 5.988,2.04 4.236,-2.472 -4.236,-2.472 0,0 c -0.21,-0.12 -0.474,-0.054 -0.594,0.156 -0.12,0.204 -0.048,0.468 0.156,0.588 l 0,0 3.6,2.1 0,-0.744 -3.6,2.1 c -0.204,0.12 -0.276,0.384 -0.156,0.588 0.12,0.21 0.384,0.276 0.594,0.156 z"
       inkscape:connector-curvature="0" /><g
       id="g288"
       transform="translate(-358.01153,-261.18516)"><g
         clip-path="url(#clipPath292)"
         id="g290"><text
           id="text296"
           style="font-size:12.02400017px;font-variant:normal;font-weight:normal;writing-mode:lr-tb;fill:#000000;fill-opacity:1;fill-rule:nonzero;stroke:none;font-family:TimesNewRomanPSMT;-inkscape-font-specification:TimesNewRomanPSMT"
           transform="matrix(1,0,0,-1,568.44,440.78)"><tspan
             id="tspan298"
             y="0"
             x="0 3 6">...</tspan></text>
</g></g><rect
       style="fill:#64bec8;fill-opacity:1;stroke:#000000;stroke-width:0.16;stroke-miterlimit:10;stroke-opacity:1;stroke-dasharray:none"
       id="rect4278"
       width="37.450272"
       height="23.183521"
       x="7.3412166"
       y="-262.03351"
       transform="scale(1,-1)" /><rect
       style="fill:#64bec8;fill-opacity:1;stroke:#000000;stroke-width:0.16;stroke-miterlimit:10;stroke-opacity:1;stroke-dasharray:none"
       id="rect4278-5"
       width="37.450272"
       height="23.183521"
       x="2.8625524"
       y="-266.40179"
       transform="matrix(0.98480775,-0.17364818,-0.17364818,-0.98480775,0,0)" /><rect
       style="fill:#64bec8;fill-opacity:1;stroke:#000000;stroke-width:0.16;stroke-miterlimit:10;stroke-opacity:1;stroke-dasharray:none"
       id="rect4278-5-6"
       width="37.450272"
       height="23.183521"
       x="-2.5686285"
       y="-269.05838"
       transform="matrix(0.93969262,-0.34202015,-0.34202015,-0.93969262,0,0)" /><rect
       style="fill:#64bec8;fill-opacity:1;stroke:#000000;stroke-width:0.16;stroke-miterlimit:10;stroke-opacity:1;stroke-dasharray:none"
       id="rect4278-5-9"
       width="37.450272"
       height="23.183521"
       x="-8.2633057"
       y="-271.33191"
       transform="matrix(0.8660254,-0.50000001,-0.50000001,-0.8660254,0,0)" /><rect
       style="fill:#64bec8;fill-opacity:1;stroke:#000000;stroke-width:0.16;stroke-miterlimit:10;stroke-opacity:1;stroke-dasharray:none"
       id="rect4278-5-8"
       width="37.450272"
       height="23.183521"
       x="-14.163003"
       y="-272.35001"
       transform="matrix(0.76604444,-0.64278762,-0.64278762,-0.76604444,0,0)" /><rect
       style="fill:#64bec8;fill-opacity:1;stroke:#000000;stroke-width:0.16;stroke-miterlimit:10;stroke-opacity:1;stroke-dasharray:none"
       id="rect4278-5-1"
       width="37.450272"
       height="23.183521"
       x="-19.896851"
       y="-272.20578"
       transform="matrix(0.6427876,-0.76604445,-0.76604445,-0.6427876,0,0)" /><rect
       style="fill:#64bec8;fill-opacity:1;stroke:#000000;stroke-width:0.16;stroke-miterlimit:10;stroke-opacity:1;stroke-dasharray:none"
       id="rect4278-5-3"
       width="37.450272"
       height="23.183521"
       x="-25.594851"
       y="-271.34534"
       transform="matrix(0.49999999,-0.86602541,-0.86602541,-0.49999999,0,0)" /><rect
       style="fill:#64bec8;fill-opacity:1;stroke:#000000;stroke-width:0.16;stroke-miterlimit:10;stroke-opacity:1;stroke-dasharray:none"
       id="rect4278-5-7"
       width="37.450272"
       height="23.183521"
       x="-35.866131"
       y="-266.73145"
       transform="matrix(0.17364817,-0.98480775,-0.98480775,-0.17364817,0,0)" /><rect
       style="fill:#64bec8;fill-opacity:1;stroke:#000000;stroke-width:0.16;stroke-miterlimit:10;stroke-opacity:1;stroke-dasharray:none"
       id="rect4278-5-86"
       width="37.450272"
       height="23.183521"
       x="-40.555302"
       y="-263.44553"
       transform="matrix(0,-1,-1,0,0,0)" /><rect
       style="fill:#64bec8;fill-opacity:1;stroke:#000000;stroke-width:0.16;stroke-miterlimit:10;stroke-opacity:1;stroke-dasharray:none"
       id="rect4278-5-7-0"
       width="37.450272"
       height="23.183521"
       x="-30.659027"
       y="-269.29477"
       transform="matrix(0.34202014,-0.93969262,-0.93969262,-0.34202014,0,0)" /><text
       xml:space="preserve"
       style="font-size:10px;font-style:normal;font-weight:normal;line-height:125%;letter-spacing:0px;word-spacing:0px;fill:#000080;fill-opacity:1;stroke:none;font-family:sans-serif"
       x="124.05811"
       y="37.583954"
       id="text4546"
       sodipodi:linespacing="125%"
       transform="matrix(0,1,1,0,0,0)"><tspan
         sodipodi:role="line"
         id="tspan4548"
         x="124.05811"
         y="37.583954"
         style="font-size:12px;fill:#000080">scanner radius</tspan></text>
<path
       style="fill:none;stroke:#e8720e;stroke-width:0.80000001px;stroke-linecap:round;stroke-linejoin:miter;stroke-opacity:1"
       d="M 81.3501,231.80248 25.6205,24.617067"
       id="path4222-2"
       inkscape:connector-curvature="0"
       sodipodi:nodetypes="cc" /><path
       style="fill:none;stroke:#e8720e;stroke-width:0.80000001px;stroke-linecap:round;stroke-linejoin:miter;stroke-opacity:1"
       d="M 238.7305,41.430167 25.17466,24.171227"
       id="path4222-2-1"
       inkscape:connector-curvature="0"
       sodipodi:nodetypes="cc" /><path
       style="fill:none;stroke:#e8720e;stroke-width:0.80000001px;stroke-linecap:butt;stroke-linejoin:miter;stroke-opacity:0.83529412"
       d="m 38.10393,70.696817 c 17.38764,-8.32228 30.3169,-26.45298 33.43776,-42.35449"
       id="path4709"
       inkscape:connector-curvature="0"
       sodipodi:nodetypes="cc" /><text
       xml:space="preserve"
       style="font-size:10px;font-style:normal;font-weight:normal;line-height:125%;letter-spacing:0px;word-spacing:0px;fill:#000000;fill-opacity:1;stroke:none;font-family:sans-serif"
       x="124.25757"
       y="-67.083138"
       id="text4546-5"
       sodipodi:linespacing="125%"
       transform="scale(1,-1)"><tspan
         sodipodi:role="line"
         x="128.07788"
         y="-67.083138"
         style="font-size:12px;text-align:end;text-anchor:end;fill:#d45500;stroke:none"
         id="tspan4729">min angle </tspan><tspan
         sodipodi:role="line"
         x="124.25757"
         y="-52.083138"
         style="font-size:12px;text-align:end;text-anchor:end;fill:#d45500;stroke:none"
         id="tspan4717">difference</tspan></text>
<path
       id="path214-7"
       style="fill:#000000;fill-opacity:1;fill-rule:nonzero;stroke:none"
       d="m 7.75528,86.368277 9.366,0 0,-0.864 -9.366,0 0,0.864 z m 5.988,2.04 4.236,-2.472 -4.236,-2.472 0,0 c -0.21,-0.12 -0.474,-0.054 -0.594,0.156 -0.12,0.204 -0.048,0.468 0.156,0.588 l 0,0 3.6,2.1 0,-0.744 -3.6,2.1 c -0.204,0.12 -0.276,0.384 -0.156,0.588 0.12,0.21 0.384,0.276 0.594,0.156 z"
       inkscape:connector-curvature="0" /><path
       id="path214-7-0"
       style="fill:#000000;fill-opacity:1;fill-rule:nonzero;stroke:none"
       d="m 0,30.557677 9.366,0 0,-0.864 -9.366,0 0,0.864 z m 5.988,2.04 4.236,-2.472 -4.236,-2.472 0,0 c -0.21,-0.12 -0.474,-0.054 -0.594,0.156 -0.12,0.204 -0.048,0.468 0.156,0.588 l 0,0 3.6,2.1 0,-0.744 -3.6,2.1 c -0.204,0.12 -0.276,0.384 -0.156,0.588 0.12,0.21 0.384,0.276 0.594,0.156 z"
       inkscape:connector-curvature="0" /><g
       id="g3878"
       transform="translate(-255.40723,-404.46261)"><path
         transform="matrix(0.33759613,0,0,-0.95515001,172.05299,558.12254)"
         d="m 344.41526,137.7267 c 0,4.46157 -10.23295,8.07839 -22.85593,8.07839 -12.62299,0 -22.85594,-3.61682 -22.85594,-8.07839 0,-4.46157 10.23295,-8.07839 22.85594,-8.07839 12.62298,0 22.85593,3.61682 22.85593,8.07839 z"
         sodipodi:ry="8.0783901"
         sodipodi:rx="22.855932"
         sodipodi:cy="137.7267"
         sodipodi:cx="321.55933"
         id="path3088"
         style="fill:#ffffff;stroke:#000000;stroke-width:0.70440996;stroke-miterlimit:4;stroke-opacity:1;stroke-dasharray:none;stroke-dashoffset:0"
         sodipodi:type="arc" /><path
         inkscape:connector-curvature="0"
         d="m 275.2155,421.17821 10.78934,10.78935"
         style="fill:none;stroke:#000000;stroke-width:0.4106563;stroke-linecap:butt;stroke-linejoin:round;stroke-miterlimit:10;stroke-opacity:1;stroke-dasharray:none"
         id="path100" /><path
         id="path3876"
         style="fill:none;stroke:#000000;stroke-width:0.4106563;stroke-linecap:butt;stroke-linejoin:round;stroke-miterlimit:10;stroke-opacity:1;stroke-dasharray:none"
         d="M 286.00484,421.17821 275.2155,431.96756"
         inkscape:connector-curvature="0" /></g><text
       xml:space="preserve"
       style="font-size:19.20000076px;font-style:normal;font-variant:normal;font-weight:normal;font-stretch:normal;line-height:125%;letter-spacing:0px;word-spacing:0px;fill:#008000;fill-opacity:1;stroke:none;font-family:Symbol;-inkscape-font-specification:Symbol"
       x="86.127472"
       y="-90.526711"
       id="text4721"
       sodipodi:linespacing="125%"
       transform="scale(1,-1)"><tspan
         sodipodi:role="line"
         id="tspan4723"
         x="86.127472"
         y="-90.526711">valid LoR</tspan></text>
<path
       style="fill:none;stroke:#000080;stroke-width:0.80000001;stroke-linecap:butt;stroke-linejoin:miter;stroke-miterlimit:4;stroke-opacity:1;stroke-dasharray:none;marker-start:url(#marker4572);marker-end:url(#Arrow1Lend)"
       d="M 25.28339,22.116537 63.113894,236.17416"
       id="path4725"
       inkscape:connector-curvature="0" /><path
       style="fill:none;stroke:#008000;stroke-width:0.80000001;stroke-linecap:butt;stroke-linejoin:miter;stroke-miterlimit:4;stroke-opacity:1;stroke-dasharray:0.8, 1.6;stroke-dashoffset:0"
       d="M 81.713894,231.44535 239.65627,19.909757"
       id="path5291"
       inkscape:connector-curvature="0" /><path
       style="fill:none;stroke:#ff0000;stroke-width:0.80000001;stroke-linecap:butt;stroke-linejoin:miter;stroke-miterlimit:4;stroke-opacity:1;stroke-dasharray:0.8, 1.6;stroke-dashoffset:0"
       d="M 81.398638,231.7606 236.18847,62.469077"
       id="path5293"
       inkscape:connector-curvature="0" /><text
       xml:space="preserve"
       style="font-size:19.20000076px;font-style:normal;font-variant:normal;font-weight:normal;font-stretch:normal;line-height:125%;letter-spacing:0px;word-spacing:0px;fill:#ff0000;fill-opacity:1;stroke:none;font-family:Symbol;-inkscape-font-specification:Symbol"
       x="125.80626"
       y="-184.74515"
       id="text5295"
       sodipodi:linespacing="125%"
       transform="scale(1,-1)"><tspan
         sodipodi:role="line"
         id="tspan5297"
         x="125.80626"
         y="-184.74515">non-valid LoR</tspan></text>
</g></svg>