<?xml version="1.0" encoding="UTF-8" standalone="no"?>
<svg
   xmlns:dc="http://purl.org/dc/elements/1.1/"
   xmlns:cc="http://creativecommons.org/ns#"
   xmlns:rdf="http://www.w3.org/1999/02/22-rdf-syntax-ns#"
   xmlns:svg="http://www.w3.org/2000/svg"
   xmlns="http://www.w3.org/2000/svg"
   xmlns:sodipodi="http://sodipodi.sourceforge.net/DTD/sodipodi-0.dtd"
   xmlns:inkscape="http://www.inkscape.org/namespaces/inkscape"
   viewBox="0 0 913 614"
   height="614"
   width="913"
   xml:space="preserve"
   version="1.1"
   id="svg2"
   inkscape:version="0.48.4 r9939"
   sodipodi:docname="scanner_trans.svg"><sodipodi:namedview
     pagecolor="#ffffff"
     bordercolor="#666666"
     borderopacity="1"
     objecttolerance="10"
     gridtolerance="10"
     guidetolerance="10"
     inkscape:pageopacity="0"
     inkscape:pageshadow="2"
     inkscape:window-width="1855"
     inkscape:window-height="1056"
     id="namedview151"
     showgrid="false"
     inkscape:zoom="0.89718925"
     inkscape:cx="470.16666"
     inkscape:cy="321.23474"
     inkscape:window-x="65"
     inkscape:window-y="24"
     inkscape:window-maximized="1"
     inkscape:current-layer="svg2" /><metadata
     id="metadata8"><rdf:RDF><cc:Work
         rdf:about=""><dc:format>image/svg+xml</dc:format><dc:type
           rdf:resource="http://purl.org/dc/dcmitype/StillImage" /><dc:title></dc:title></cc:Work></rdf:RDF></metadata><defs
     id="defs6"><marker
       inkscape:stockid="Arrow1Lend"
       orient="auto"
       refY="0.0"
       refX="0.0"
       id="Arrow1Lend"
       style="overflow:visible;"><path
         id="path4904"
         d="M 0.0,0.0 L 5.0,-5.0 L -12.5,0.0 L 5.0,5.0 L 0.0,0.0 z "
         style="fill-rule:evenodd;stroke:#000000;stroke-width:1.0pt;"
         transform="scale(0.8) rotate(180) translate(12.5,0)" /></marker><clipPath
       id="clipPath108"
       clipPathUnits="userSpaceOnUse"><path
         id="path110"
         d="M 1.1829e-5,0 793.80001,0 l 0,595.2 -793.799998171,0 0,-595.2 z"
         inkscape:connector-curvature="0" /></clipPath><clipPath
       id="clipPath120"
       clipPathUnits="userSpaceOnUse"><path
         id="path122"
         d="M 1.1829e-5,0 793.80001,0 l 0,595.2 -793.799998171,0 0,-595.2 z"
         inkscape:connector-curvature="0" /></clipPath><clipPath
       id="clipPath132"
       clipPathUnits="userSpaceOnUse"><path
         id="path134"
         d="M 1.1829e-5,0 793.80001,0 l 0,595.2 -793.799998171,0 0,-595.2 z"
         inkscape:connector-curvature="0" /></clipPath><clipPath
       id="clipPath144"
       clipPathUnits="userSpaceOnUse"><path
         id="path146"
         d="M 1.1829e-5,0 793.80001,0 l 0,595.2 -793.799998171,0 0,-595.2 z"
         inkscape:connector-curvature="0" /></clipPath><clipPath
       id="clipPath156"
       clipPathUnits="userSpaceOnUse"><path
         id="path158"
         d="M 1.1829e-5,0 793.80001,0 l 0,595.2 -793.799998171,0 0,-595.2 z"
         inkscape:connector-curvature="0" /></clipPath><clipPath
       id="clipPath168"
       clipPathUnits="userSpaceOnUse"><path
         id="path170"
         d="M 1.1829e-5,0 793.80001,0 l 0,595.2 -793.799998171,0 0,-595.2 z"
         inkscape:connector-curvature="0" /></clipPath><clipPath
       id="clipPath180"
       clipPathUnits="userSpaceOnUse"><path
         id="path182"
         d="M 1.1829e-5,0 793.80001,0 l 0,595.2 -793.799998171,0 0,-595.2 z"
         inkscape:connector-curvature="0" /></clipPath><clipPath
       id="clipPath192"
       clipPathUnits="userSpaceOnUse"><path
         id="path194"
         d="M 1.1829e-5,0 793.80001,0 l 0,595.2 -793.799998171,0 0,-595.2 z"
         inkscape:connector-curvature="0" /></clipPath><clipPath
       id="clipPath204"
       clipPathUnits="userSpaceOnUse"><path
         id="path206"
         d="M 1.1829e-5,0 793.80001,0 l 0,595.2 -793.799998171,0 0,-595.2 z"
         inkscape:connector-curvature="0" /></clipPath><clipPath
       id="clipPath220"
       clipPathUnits="userSpaceOnUse"><path
         id="path222"
         d="M 1.1829e-5,0 793.80001,0 l 0,595.2 -793.799998171,0 0,-595.2 z"
         inkscape:connector-curvature="0" /></clipPath><clipPath
       id="clipPath232"
       clipPathUnits="userSpaceOnUse"><path
         id="path234"
         d="M 1.1829e-5,0 793.80001,0 l 0,595.2 -793.799998171,0 0,-595.2 z"
         inkscape:connector-curvature="0" /></clipPath><clipPath
       id="clipPath244"
       clipPathUnits="userSpaceOnUse"><path
         id="path246"
         d="M 1.1829e-5,0 793.80001,0 l 0,595.2 -793.799998171,0 0,-595.2 z"
         inkscape:connector-curvature="0" /></clipPath><clipPath
       id="clipPath256"
       clipPathUnits="userSpaceOnUse"><path
         id="path258"
         d="M 1.1829e-5,0 793.80001,0 l 0,595.2 -793.799998171,0 0,-595.2 z"
         inkscape:connector-curvature="0" /></clipPath><clipPath
       id="clipPath268"
       clipPathUnits="userSpaceOnUse"><path
         id="path270"
         d="M 1.1829e-5,0 793.80001,0 l 0,595.2 -793.799998171,0 0,-595.2 z"
         inkscape:connector-curvature="0" /></clipPath><clipPath
       id="clipPath280"
       clipPathUnits="userSpaceOnUse"><path
         id="path282"
         d="M 1.1829e-5,0 793.80001,0 l 0,595.2 -793.799998171,0 0,-595.2 z"
         inkscape:connector-curvature="0" /></clipPath><clipPath
       id="clipPath292"
       clipPathUnits="userSpaceOnUse"><path
         id="path294"
         d="M 1.1829e-5,0 793.80001,0 l 0,595.2 -793.799998171,0 0,-595.2 z"
         inkscape:connector-curvature="0" /></clipPath></defs><path
     sodipodi:type="star"
     style="fill:#d7eef4;fill-opacity:1;stroke:#000080;stroke-width:0.87224317;stroke-miterlimit:10;stroke-opacity:1;stroke-dasharray:none;stroke-dashoffset:0"
     id="path4302"
     sodipodi:sides="28"
     sodipodi:cx="119.79661"
     sodipodi:cy="84.330505"
     sodipodi:r1="251.98656"
     sodipodi:r2="250.40211"
     sodipodi:arg1="0.75885573"
     sodipodi:arg2="0.87105546"
     inkscape:flatsided="true"
     inkscape:rounded="0"
     inkscape:randomized="0"
     d="m 302.64406,257.72034 -43.16723,36.34014 -50.17138,25.8234 -54.65974,14.01178 -56.407206,1.49753 -55.326197,-11.09179 -51.4708972,-23.12494 -45.0346318,-33.9985 -36.340141,-43.16723 -25.823407,-50.17139 -14.01177,-54.65973 -1.49754,-56.407209 11.0918,-55.3261967 23.124933,-51.4708973 33.9985,-45.034631 43.167234,-36.340146 50.171384,-25.8234 54.659731,-14.01178 56.407208,-1.49753 55.3262,11.09179 51.4709,23.12494 45.03463,33.9985 36.34014,43.167234 25.8234,50.1713843 14.01178,54.6597307 1.49754,56.407211 -11.0918,55.3262 -23.12494,51.47089 z"
     transform="matrix(1.1464693,0,0,1.1464692,289.05744,228.98203)" /><path
     transform="matrix(0.99519897,0,0,0.99519897,307.17911,241.73872)"
     d="m 302.64406,257.72034 -43.16723,36.34014 -50.17138,25.8234 -54.65974,14.01178 -56.407206,1.49753 -55.326197,-11.09179 -51.4708972,-23.12494 -45.0346318,-33.9985 -36.340141,-43.16723 -25.823407,-50.17139 -14.01177,-54.65973 -1.49754,-56.407209 11.0918,-55.3261967 23.124933,-51.4708973 33.9985,-45.034631 43.167234,-36.340146 50.171384,-25.8234 54.659731,-14.01178 56.407208,-1.49753 55.3262,11.09179 51.4709,23.12494 45.03463,33.9985 36.34014,43.167234 25.8234,50.1713843 14.01178,54.6597307 1.49754,56.407211 -11.0918,55.3262 -23.12494,51.47089 z"
     inkscape:randomized="0"
     inkscape:rounded="0"
     inkscape:flatsided="true"
     sodipodi:arg2="0.87105546"
     sodipodi:arg1="0.75885573"
     sodipodi:r2="250.40211"
     sodipodi:r1="251.98656"
     sodipodi:cy="84.330505"
     sodipodi:cx="119.79661"
     sodipodi:sides="28"
     id="path4304"
     style="fill:#ffffff;fill-opacity:1;stroke:#000080;stroke-width:1.00482416;stroke-miterlimit:10;stroke-opacity:1;stroke-dasharray:none;stroke-dashoffset:0"
     sodipodi:type="star" /><path
     inkscape:connector-curvature="0"
     d="m 422.57272,43.02186 -0.15,0"
     style="fill:none;stroke:#000000;stroke-width:0.29999998;stroke-linecap:butt;stroke-linejoin:round;stroke-miterlimit:10;stroke-opacity:1;stroke-dasharray:none"
     id="path88" /><g
     id="g104"
     transform="matrix(1.25,0,0,-1.25,-34.92728,706.27186)"><g
       id="g106"
       clip-path="url(#clipPath108)"><text
         transform="matrix(1,0,0,-1,362.62,546.48)"
         style="font-size:12px;font-variant:normal;font-weight:normal;writing-mode:lr-tb;fill:#000000;fill-opacity:1;fill-rule:nonzero;stroke:none;font-family:TimesNewRomanPSMT;-inkscape-font-specification:TimesNewRomanPSMT"
         id="text112"><tspan
           x="0"
           y="0"
           id="tspan114">0</tspan></text>
</g></g><g
     id="g116"
     transform="matrix(1.25,0,0,-1.25,-34.92728,710.27186)"><g
       id="g118"
       clip-path="url(#clipPath120)"><text
         transform="matrix(1,0,0,-1,409.68,542.83)"
         style="font-size:12px;font-variant:normal;font-weight:normal;writing-mode:lr-tb;fill:#000000;fill-opacity:1;fill-rule:nonzero;stroke:none;font-family:TimesNewRomanPSMT;-inkscape-font-specification:TimesNewRomanPSMT"
         id="text124"><tspan
           x="0"
           y="0"
           id="tspan126">1</tspan></text>
</g></g><g
     id="g128"
     transform="matrix(1.25,0,0,-1.25,-30.92728,710.27186)"><g
       id="g130"
       clip-path="url(#clipPath132)"><text
         transform="matrix(1,0,0,-1,455.04,527.95)"
         style="font-size:12px;font-variant:normal;font-weight:normal;writing-mode:lr-tb;fill:#000000;fill-opacity:1;fill-rule:nonzero;stroke:none;font-family:TimesNewRomanPSMT;-inkscape-font-specification:TimesNewRomanPSMT"
         id="text136"><tspan
           x="0"
           y="0"
           id="tspan138">2</tspan></text>
</g></g><g
     id="g140"
     transform="matrix(1.25,0,0,-1.25,-28.92728,718.27186)"><g
       id="g142"
       clip-path="url(#clipPath144)"><text
         transform="matrix(1,0,0,-1,500.4,506.02)"
         style="font-size:12px;font-variant:normal;font-weight:normal;writing-mode:lr-tb;fill:#000000;fill-opacity:1;fill-rule:nonzero;stroke:none;font-family:TimesNewRomanPSMT;-inkscape-font-specification:TimesNewRomanPSMT"
         id="text148"><tspan
           x="0"
           y="0"
           id="tspan150">3</tspan></text>
</g></g><g
     id="g152"
     transform="matrix(1.25,0,0,-1.25,-28.92728,732.27186)"><g
       id="g154"
       clip-path="url(#clipPath156)"><text
         transform="matrix(1,0,0,-1,538.39,476.86)"
         style="font-size:12px;font-variant:normal;font-weight:normal;writing-mode:lr-tb;fill:#000000;fill-opacity:1;fill-rule:nonzero;stroke:none;font-family:TimesNewRomanPSMT;-inkscape-font-specification:TimesNewRomanPSMT"
         id="text160"><tspan
           x="0"
           y="0"
           id="tspan162">4</tspan></text>
</g></g><g
     id="g164"
     transform="matrix(1.25,0,0,-1.25,30.833651,720.36584)"><g
       id="g166"
       clip-path="url(#clipPath168)"><text
         transform="matrix(1,0,0,-1,438.53,557.88)"
         style="font-size:24.02400017px;font-variant:normal;font-weight:normal;writing-mode:lr-tb;fill:#000000;fill-opacity:1;fill-rule:nonzero;stroke:none;font-family:TimesNewRomanPSMT;-inkscape-font-specification:TimesNewRomanPSMT"
         id="text172"><tspan
           x="0 16.024008 22.702681 34.71468 45.381336 57.393337 74.64257 81.321243 90.666573 101.33323 107.33923 119.35123 131.29115 149.76561 161.77762 172.44427 180.44426 187.17099 199.18298"
           y="0"
           id="tspan174">Clockwise numbering</tspan></text>
</g></g><g
     id="g216"
     transform="matrix(1.25,0,0,-1.25,-61.72389,701.30576)"><g
       id="g218"
       clip-path="url(#clipPath220)"><text
         transform="matrix(1,0,0,-1,654.96,302.69)"
         style="font-size:24px;font-variant:normal;font-weight:normal;writing-mode:lr-tb;fill:#000000;fill-opacity:1;fill-rule:nonzero;stroke:none;font-family:TimesNewRomanPSMT;-inkscape-font-specification:TimesNewRomanPSMT"
         id="text224"><tspan
           x="0 16.007999 22.68 34.68 46.68"
           y="0"
           id="tspan226">Right-side</tspan></text>
</g></g><path
     style="fill:none;stroke:#000000;stroke-width:1px;stroke-linecap:butt;stroke-linejoin:miter;stroke-opacity:1"
     d="M 391.65111,77.10237 386.52823,39.66593"
     id="path4306"
     inkscape:connector-curvature="0" /><path
     style="fill:none;stroke:#000000;stroke-width:1px;stroke-linecap:butt;stroke-linejoin:miter;stroke-opacity:1"
     d="m 451.54942,37.69559 -3.34958,37.63347"
     id="path4308"
     inkscape:connector-curvature="0" /><path
     style="fill:none;stroke:#000000;stroke-width:1px;stroke-linecap:butt;stroke-linejoin:miter;stroke-opacity:1"
     d="M 514.7973,50.50279 502.97526,86.75703"
     id="path4310"
     inkscape:connector-curvature="0" /><path
     style="fill:none;stroke:#000000;stroke-width:1px;stroke-linecap:butt;stroke-linejoin:miter;stroke-opacity:1"
     d="m 573.31636,77.8905 -19.11228,32.11653"
     id="path4312"
     inkscape:connector-curvature="0" /><path
     style="fill:none;stroke:#000000;stroke-width:1px;stroke-linecap:butt;stroke-linejoin:miter;stroke-opacity:1"
     d="m 624.93925,116.90322 -25.61441,26.99364"
     id="path4314"
     inkscape:connector-curvature="0" /><path
     style="fill:none;stroke:#000000;stroke-width:1px;stroke-linecap:butt;stroke-linejoin:miter;stroke-opacity:1"
     d="m 667.30153,165.76762 -32.31356,21.08263"
     id="path4316"
     inkscape:connector-curvature="0" /><path
     style="fill:none;stroke:#000000;stroke-width:1px;stroke-linecap:butt;stroke-linejoin:miter;stroke-opacity:1"
     d="M 636.17018,524.36932 607.99433,498.36084"
     id="path4328"
     inkscape:connector-curvature="0" /><path
     style="fill:none;stroke:#000000;stroke-width:1px;stroke-linecap:butt;stroke-linejoin:miter;stroke-opacity:1"
     d="m 565.23797,534.61508 20.8856,31.52542"
     id="path4330"
     inkscape:connector-curvature="0" /><path
     style="fill:none;stroke:#000000;stroke-width:1px;stroke-linecap:butt;stroke-linejoin:miter;stroke-opacity:1"
     d="m 515.78247,560.03245 13.00423,36.05721"
     id="path4332"
     inkscape:connector-curvature="0" /><path
     style="fill:none;stroke:#000000;stroke-width:1px;stroke-linecap:butt;stroke-linejoin:miter;stroke-opacity:1"
     d="m 461.00704,574.61296 5.71399,37.23941"
     id="path4334"
     inkscape:connector-curvature="0" /><path
     style="fill:none;stroke:#000000;stroke-width:1px;stroke-linecap:butt;stroke-linejoin:miter;stroke-opacity:1"
     d="m 404.65535,575.9922 -3.15255,37.43644"
     id="path4336"
     inkscape:connector-curvature="0" /><path
     style="fill:none;stroke:#000000;stroke-width:1px;stroke-linecap:butt;stroke-linejoin:miter;stroke-opacity:1"
     d="m 350.07696,565.15533 -11.42797,35.66314"
     id="path4338"
     inkscape:connector-curvature="0" /><path
     style="fill:none;stroke:#000000;stroke-width:1px;stroke-linecap:butt;stroke-linejoin:miter;stroke-opacity:1"
     d="m 298.65111,541.7083 -19.11229,32.51059"
     id="path4340"
     inkscape:connector-curvature="0" /><path
     style="fill:none;stroke:#000000;stroke-width:1px;stroke-linecap:butt;stroke-linejoin:miter;stroke-opacity:1"
     d="M 253.72738,508.21254 227.1278,535.00915"
     id="path4342"
     inkscape:connector-curvature="0" /><path
     style="fill:none;stroke:#000000;stroke-width:1px;stroke-linecap:butt;stroke-linejoin:miter;stroke-opacity:1"
     d="m 217.67018,464.86508 -31.32839,20.29449"
     id="path4344"
     inkscape:connector-curvature="0" /><path
     style="fill:none;stroke:#000000;stroke-width:1px;stroke-linecap:butt;stroke-linejoin:miter;stroke-opacity:1"
     d="m 191.6617,414.03033 -35.4661,13.79238"
     id="path4346"
     inkscape:connector-curvature="0" /><path
     style="fill:none;stroke:#000000;stroke-width:1px;stroke-linecap:butt;stroke-linejoin:miter;stroke-opacity:1"
     d="m 178.06636,360.04305 -37.8305,5.31991"
     id="path4348"
     inkscape:connector-curvature="0" /><path
     style="fill:none;stroke:#000000;stroke-width:1px;stroke-linecap:butt;stroke-linejoin:miter;stroke-opacity:1"
     d="m 176.49009,303.88839 -38.42161,-3.15255"
     id="path4350"
     inkscape:connector-curvature="0" /><path
     style="fill:none;stroke:#000000;stroke-width:1px;stroke-linecap:butt;stroke-linejoin:miter;stroke-opacity:1"
     d="M 187.52399,248.91593 151.66382,237.48796"
     id="path4352"
     inkscape:connector-curvature="0" /><path
     style="fill:none;stroke:#000000;stroke-width:1px;stroke-linecap:butt;stroke-linejoin:miter;stroke-opacity:1"
     d="M 210.57696,197.68711 177.6723,178.57483"
     id="path4354"
     inkscape:connector-curvature="0" /><path
     style="fill:none;stroke:#000000;stroke-width:1px;stroke-linecap:butt;stroke-linejoin:miter;stroke-opacity:1"
     d="M 243.87569,152.96042 217.07908,127.14898"
     id="path4356"
     inkscape:connector-curvature="0" /><path
     style="fill:none;stroke:#000000;stroke-width:1px;stroke-linecap:butt;stroke-linejoin:miter;stroke-opacity:1"
     d="M 287.42018,116.90322 266.53458,85.57483"
     id="path4358"
     inkscape:connector-curvature="0" /><path
     style="fill:none;stroke:#000000;stroke-width:1px;stroke-linecap:butt;stroke-linejoin:miter;stroke-opacity:1"
     d="m 337.26975,91.48584 -13.3983,-36.0572"
     id="path4360"
     inkscape:connector-curvature="0" /><g
     id="g252"
     transform="matrix(1.25,0,0,-1.25,-30.045499,692.51215)"><g
       id="g254"
       clip-path="url(#clipPath256)"
       transform="translate(2.5220339,-17.023729)"><text
         transform="matrix(1,0,0,-1,25.584,302.57)"
         style="font-size:24.02400017px;font-variant:normal;font-weight:normal;writing-mode:lr-tb;fill:#000000;fill-opacity:1;fill-rule:nonzero;stroke:none;font-family:TimesNewRomanPSMT;-inkscape-font-specification:TimesNewRomanPSMT"
         id="text260"><tspan
           x="0 14.678664 25.34532 33.249214"
           y="0"
           id="tspan262">Left-side</tspan></text>
</g></g><g
     id="g5591"><g
       id="g5559"><path
         style="fill:none;stroke:#000080;stroke-width:1px;stroke-linecap:butt;stroke-linejoin:miter;stroke-opacity:1;marker-end:url(#Arrow1Lend)"
         d="m 421.95281,326.087 0,-236.44068"
         id="path4895"
         inkscape:connector-curvature="0" /><path
         inkscape:connector-curvature="0"
         id="path5341"
         d="M 425.95281,326.087 373.34039,95.574255"
         style="fill:none;stroke:#000080;stroke-width:1px;stroke-linecap:butt;stroke-linejoin:miter;stroke-opacity:1;marker-end:url(#Arrow1Lend)" /><path
         style="fill:none;stroke:#000080;stroke-width:1px;stroke-linecap:butt;stroke-linejoin:miter;stroke-opacity:1;marker-end:url(#Arrow1Lend)"
         d="M 425.95281,326.087 323.36612,113.0608"
         id="path5343"
         inkscape:connector-curvature="0" /><path
         inkscape:connector-curvature="0"
         id="path5345"
         d="M 425.95281,326.087 278.53586,141.22914"
         style="fill:none;stroke:#000080;stroke-width:1px;stroke-linecap:butt;stroke-linejoin:miter;stroke-opacity:1;marker-end:url(#Arrow1Lend)" /><path
         style="fill:none;stroke:#000080;stroke-width:1px;stroke-linecap:butt;stroke-linejoin:miter;stroke-opacity:1;marker-end:url(#Arrow1Lend)"
         d="M 425.95281,326.087 241.09754,178.6668"
         id="path5347"
         inkscape:connector-curvature="0" /><path
         inkscape:connector-curvature="0"
         id="path5349"
         d="M 425.95281,326.087 212.92842,223.49656"
         style="fill:none;stroke:#000080;stroke-width:1px;stroke-linecap:butt;stroke-linejoin:miter;stroke-opacity:1;marker-end:url(#Arrow1Lend)" /><path
         style="fill:none;stroke:#000080;stroke-width:1px;stroke-linecap:butt;stroke-linejoin:miter;stroke-opacity:1;marker-end:url(#Arrow1Lend)"
         d="M 425.95281,326.087 195.441,273.47052"
         id="path5351"
         inkscape:connector-curvature="0" /><path
         style="fill:none;stroke:#000080;stroke-width:1px;stroke-linecap:butt;stroke-linejoin:miter;stroke-opacity:1;marker-end:url(#Arrow1Lend)"
         d="M 422.192,326.35109 474.80442,95.838346"
         id="path5366"
         inkscape:connector-curvature="0" /><path
         inkscape:connector-curvature="0"
         id="path5368"
         d="M 422.192,326.35109 524.77869,113.32489"
         style="fill:none;stroke:#000080;stroke-width:1px;stroke-linecap:butt;stroke-linejoin:miter;stroke-opacity:1;marker-end:url(#Arrow1Lend)" /><path
         style="fill:none;stroke:#000080;stroke-width:1px;stroke-linecap:butt;stroke-linejoin:miter;stroke-opacity:1;marker-end:url(#Arrow1Lend)"
         d="M 422.192,326.35109 569.60895,141.49323"
         id="path5370"
         inkscape:connector-curvature="0" /><path
         inkscape:connector-curvature="0"
         id="path5372"
         d="M 422.192,326.35109 607.04727,178.93089"
         style="fill:none;stroke:#000080;stroke-width:1px;stroke-linecap:butt;stroke-linejoin:miter;stroke-opacity:1;marker-end:url(#Arrow1Lend)" /><path
         style="fill:none;stroke:#000080;stroke-width:1px;stroke-linecap:butt;stroke-linejoin:miter;stroke-opacity:1;marker-end:url(#Arrow1Lend)"
         d="M 422.192,326.35109 635.21639,223.76065"
         id="path5374"
         inkscape:connector-curvature="0" /><path
         inkscape:connector-curvature="0"
         id="path5376"
         d="M 422.192,326.35109 652.70381,273.73461"
         style="fill:none;stroke:#000080;stroke-width:1px;stroke-linecap:butt;stroke-linejoin:miter;stroke-opacity:1;marker-end:url(#Arrow1Lend)" /><g
         transform="matrix(1,0,0,-1,0.30027,651.59839)"
         id="g5428"><path
           style="fill:none;stroke:#000080;stroke-width:1px;stroke-linecap:butt;stroke-linejoin:miter;stroke-opacity:1;marker-end:url(#Arrow1Lend)"
           d="m 421.65254,325.68707 0,-236.44068"
           id="path5430"
           inkscape:connector-curvature="0" /><path
           inkscape:connector-curvature="0"
           id="path5432"
           d="M 425.65254,325.68707 373.04012,95.174325"
           style="fill:none;stroke:#000080;stroke-width:1px;stroke-linecap:butt;stroke-linejoin:miter;stroke-opacity:1;marker-end:url(#Arrow1Lend)" /><path
           style="fill:none;stroke:#000080;stroke-width:1px;stroke-linecap:butt;stroke-linejoin:miter;stroke-opacity:1;marker-end:url(#Arrow1Lend)"
           d="M 425.65254,325.68707 323.06585,112.66087"
           id="path5434"
           inkscape:connector-curvature="0" /><path
           inkscape:connector-curvature="0"
           id="path5436"
           d="M 425.65254,325.68707 278.23559,140.82921"
           style="fill:none;stroke:#000080;stroke-width:1px;stroke-linecap:butt;stroke-linejoin:miter;stroke-opacity:1;marker-end:url(#Arrow1Lend)" /><path
           style="fill:none;stroke:#000080;stroke-width:1px;stroke-linecap:butt;stroke-linejoin:miter;stroke-opacity:1;marker-end:url(#Arrow1Lend)"
           d="M 425.65254,325.68707 240.79727,178.26687"
           id="path5438"
           inkscape:connector-curvature="0" /><path
           inkscape:connector-curvature="0"
           id="path5440"
           d="M 425.65254,325.68707 212.62815,223.09663"
           style="fill:none;stroke:#000080;stroke-width:1px;stroke-linecap:butt;stroke-linejoin:miter;stroke-opacity:1;marker-end:url(#Arrow1Lend)" /><path
           style="fill:none;stroke:#000080;stroke-width:1px;stroke-linecap:butt;stroke-linejoin:miter;stroke-opacity:1;marker-end:url(#Arrow1Lend)"
           d="M 425.65254,325.68707 195.14073,273.07059"
           id="path5442"
           inkscape:connector-curvature="0" /></g><path
         inkscape:connector-curvature="0"
         id="path5462"
         d="m 422.192,325.64723 52.61242,230.51275"
         style="fill:none;stroke:#000080;stroke-width:1px;stroke-linecap:butt;stroke-linejoin:miter;stroke-opacity:1;marker-end:url(#Arrow1Lend)" /><path
         style="fill:none;stroke:#000080;stroke-width:1px;stroke-linecap:butt;stroke-linejoin:miter;stroke-opacity:1;marker-end:url(#Arrow1Lend)"
         d="m 422.192,325.64723 102.58669,213.0262"
         id="path5464"
         inkscape:connector-curvature="0" /><path
         inkscape:connector-curvature="0"
         id="path5466"
         d="M 422.192,325.64723 569.60895,510.50509"
         style="fill:none;stroke:#000080;stroke-width:1px;stroke-linecap:butt;stroke-linejoin:miter;stroke-opacity:1;marker-end:url(#Arrow1Lend)" /><path
         style="fill:none;stroke:#000080;stroke-width:1px;stroke-linecap:butt;stroke-linejoin:miter;stroke-opacity:1;marker-end:url(#Arrow1Lend)"
         d="m 422.192,325.64723 184.85527,147.4202"
         id="path5468"
         inkscape:connector-curvature="0" /><path
         inkscape:connector-curvature="0"
         id="path5470"
         d="M 422.192,325.64723 635.21639,428.23767"
         style="fill:none;stroke:#000080;stroke-width:1px;stroke-linecap:butt;stroke-linejoin:miter;stroke-opacity:1;marker-end:url(#Arrow1Lend)" /><path
         style="fill:none;stroke:#000080;stroke-width:1px;stroke-linecap:butt;stroke-linejoin:miter;stroke-opacity:1;marker-end:url(#Arrow1Lend)"
         d="m 422.192,325.64723 230.51181,52.61648"
         id="path5472"
         inkscape:connector-curvature="0" /><path
         style="fill:none;stroke:#000080;stroke-width:1px;stroke-linecap:butt;stroke-linejoin:miter;stroke-opacity:1;marker-end:url(#Arrow1Lend)"
         d="m 426.20215,325.24561 236.44067,-0.004"
         id="path5555"
         inkscape:connector-curvature="0" /></g><path
       style="fill:none;stroke:#000080;stroke-width:1px;stroke-linecap:butt;stroke-linejoin:miter;stroke-opacity:1;marker-end:url(#Arrow1Lend)"
       d="m 418.64282,325.24561 -236.44067,-0.004"
       id="path5557"
       inkscape:connector-curvature="0" /></g><path
     sodipodi:type="arc"
     style="fill:#ffffff;fill-opacity:1;stroke:#ffffff;stroke-width:1;stroke-miterlimit:10;stroke-opacity:1;stroke-dasharray:none;stroke-dashoffset:0"
     id="path5589"
     sodipodi:cx="458.30084"
     sodipodi:cy="426.81781"
     sodipodi:rx="116.25"
     sodipodi:ry="102.06356"
     d="m 574.55084,426.81781 a 116.25,102.06356 0 1 1 -232.5,0 116.25,102.06356 0 1 1 232.5,0 z"
     transform="matrix(1.4984978,0,0,1.7067832,-266.21198,-404.10411)" /><path
     inkscape:connector-curvature="0"
     d="m 423.27272,326.12186 0,-72.9125 -1.8,0 0,72.9125 1.8,0 z m 4.25,-65.875 -5.15,-8.825 -5.15,8.825 c -0.25,0.4375 -0.1125,0.9875 0.325,1.2375 0.425,0.25 0.975,0.1 1.225,-0.325 l 4.375,-7.5 -1.55,0 4.375,7.5 c 0.25,0.425 0.8,0.575 1.225,0.325 0.4375,-0.25 0.575,-0.8 0.325,-1.2375 z"
     style="fill:#000000;fill-opacity:1;fill-rule:nonzero;stroke:none"
     id="path92" /><path
     inkscape:connector-curvature="0"
     d="m 423.02272,309.34686 c -9.325,0 -16.875,7.35 -16.875,16.425 0,9.075 7.55,16.425 16.875,16.425 9.325,0 16.875,-7.35 16.875,-16.425 0,-9.075 -7.55,-16.425 -16.875,-16.425 z"
     style="fill:none;stroke:#3465a4;stroke-width:0.175;stroke-linecap:butt;stroke-linejoin:round;stroke-miterlimit:10;stroke-opacity:1;stroke-dasharray:none"
     id="path96" /><path
     inkscape:connector-curvature="0"
     d="m 411.84772,314.89686 22.5,21.9"
     style="fill:none;stroke:#000000;stroke-width:0.175;stroke-linecap:butt;stroke-linejoin:round;stroke-miterlimit:10;stroke-opacity:1;stroke-dasharray:none"
     id="path98" /><path
     inkscape:connector-curvature="0"
     d="m 411.69772,336.64686 22.65,-21.75"
     style="fill:none;stroke:#000000;stroke-width:0.175;stroke-linecap:butt;stroke-linejoin:round;stroke-miterlimit:10;stroke-opacity:1;stroke-dasharray:none"
     id="path100" /><path
     inkscape:connector-curvature="0"
     d="m 422.37272,325.22186 73.3625,0 0,1.8 -73.3625,0 0,-1.8 z m 66.325,-4.25 8.825,5.15 -8.825,5.15 c -0.4375,0.25 -0.9875,0.1125 -1.2375,-0.325 -0.25,-0.425 -0.1,-0.975 0.325,-1.225 l 7.5,-4.375 0,1.55 -7.5,-4.375 c -0.425,-0.25 -0.575,-0.8 -0.325,-1.225 0.25,-0.4375 0.8,-0.575 1.2375,-0.325 z"
     style="fill:#000000;fill-opacity:1;fill-rule:nonzero;stroke:none"
     id="path102" /><g
     id="g176"
     transform="matrix(1.25,0,0,-1.25,-86.787449,755.15745)"><g
       id="g178"
       clip-path="url(#clipPath180)"><text
         transform="matrix(1,0,0,-1,455.04,351.67)"
         style="font-size:24.02400017px;font-variant:normal;font-weight:normal;writing-mode:lr-tb;fill:#000000;fill-opacity:1;fill-rule:nonzero;stroke:none;font-family:TimesNewRomanPSMT;-inkscape-font-specification:TimesNewRomanPSMT"
         id="text184"><tspan
           x="0"
           y="0"
           id="tspan186">x</tspan></text>
</g></g><g
     id="g188"
     transform="matrix(1.25,0,0,-1.25,-78.512026,768.55576)"><g
       id="g190"
       clip-path="url(#clipPath192)"><text
         transform="matrix(1,0,0,-1,409.68,404.76)"
         style="font-size:24px;font-variant:normal;font-weight:normal;writing-mode:lr-tb;fill:#000000;fill-opacity:1;fill-rule:nonzero;stroke:none;font-family:TimesNewRomanPSMT;-inkscape-font-specification:TimesNewRomanPSMT"
         id="text196"><tspan
           x="0"
           y="0"
           id="tspan198">y</tspan></text>
</g></g><g
     id="g200"
     transform="matrix(1.25,0,0,-1.25,-30.92728,724.27186)"><g
       id="g202"
       clip-path="url(#clipPath204)"><text
         transform="matrix(1,0,0,-1,330.29,333.1)"
         style="font-size:24px;font-variant:normal;font-weight:normal;writing-mode:lr-tb;fill:#000000;fill-opacity:1;fill-rule:nonzero;stroke:none;font-family:TimesNewRomanPSMT;-inkscape-font-specification:TimesNewRomanPSMT"
         id="text208"><tspan
           x="0"
           y="0"
           id="tspan210">z</tspan></text>
</g></g><path
     inkscape:connector-curvature="0"
     d="m 432.68797,232.75576 17.1125,0 0,1.8 -17.1125,0 0,-1.8 z m 10.075,-4.25 8.825,5.15 -8.825,5.15 c -0.4375,0.25 -0.9875,0.1125 -1.2375,-0.325 -0.25,-0.425 -0.1,-0.975 0.325,-1.225 l 7.5,-4.375 0,1.55 -7.5,-4.375 c -0.425,-0.25 -0.575,-0.8 -0.325,-1.225 0.25,-0.4375 0.8,-0.575 1.2375,-0.325 z"
     style="fill:#000000;fill-opacity:1;fill-rule:nonzero;stroke:none"
     id="path212" /><path
     inkscape:connector-curvature="0"
     d="m 478.71255,289.25745 19.5125,0 0,1.8 -19.5125,0 0,-1.8 z m 12.475,-4.25 8.825,5.15 -8.825,5.15 0,0 c -0.4375,0.25 -0.9875,0.1125 -1.2375,-0.325 -0.25,-0.425 -0.1,-0.975 0.325,-1.225 l 0,0 7.5,-4.375 0,1.55 -7.5,-4.375 c -0.425,-0.25 -0.575,-0.8 -0.325,-1.225 0.25,-0.4375 0.8,-0.575 1.2375,-0.325 z"
     style="fill:#000000;fill-opacity:1;fill-rule:nonzero;stroke:none"
     id="path214" /><g
     id="g288"
     transform="matrix(1.25,0,0,-1.25,-20.92728,734.27186)"><g
       id="g290"
       clip-path="url(#clipPath292)"><text
         transform="matrix(1,0,0,-1,568.44,440.78)"
         style="font-size:12.02400017px;font-variant:normal;font-weight:normal;writing-mode:lr-tb;fill:#000000;fill-opacity:1;fill-rule:nonzero;stroke:none;font-family:TimesNewRomanPSMT;-inkscape-font-specification:TimesNewRomanPSMT"
         id="text296"><tspan
           x="0 3 6"
           y="0"
           id="tspan298">...</tspan></text>
</g></g><path
     inkscape:connector-curvature="0"
     d="m 382.47272,281.47186 17.1125,0 0,1.8 -17.1125,0 0,-1.8 z m 10.075,-4.25 8.825,5.15 -8.825,5.15 c -0.4375,0.25 -0.9875,0.1125 -1.2375,-0.325 -0.25,-0.425 -0.1,-0.975 0.325,-1.225 l 7.5,-4.375 0,1.55 -7.5,-4.375 0,0 c -0.425,-0.25 -0.575,-0.8 -0.325,-1.225 0.25,-0.4375 0.8,-0.575 1.2375,-0.325 z"
     style="fill:#000000;fill-opacity:1;fill-rule:nonzero;stroke:none"
     id="path300" /><path
     style="fill:none;stroke:#000000;stroke-width:1px;stroke-linecap:butt;stroke-linejoin:miter;stroke-opacity:1"
     d="m 696.46255,223.69559 c -4.92585,1.57627 -35.66313,12.8072 -35.66313,12.8072"
     id="path4318"
     inkscape:connector-curvature="0" /><path
     style="fill:none;stroke:#000000;stroke-width:1px;stroke-linecap:butt;stroke-linejoin:miter;stroke-opacity:1"
     d="m 712.22526,285.3672 -37.43644,5.12288"
     id="path4320"
     inkscape:connector-curvature="0" /><path
     style="fill:none;stroke:#000000;stroke-width:1px;stroke-linecap:butt;stroke-linejoin:miter;stroke-opacity:1"
     d="m 714.39264,350.19135 -38.02755,-3.15254"
     id="path4322"
     inkscape:connector-curvature="0" /><path
     style="fill:none;stroke:#000000;stroke-width:1px;stroke-linecap:butt;stroke-linejoin:miter;stroke-opacity:1"
     d="M 701.3884,413.43923 665.13416,402.01127"
     id="path4324"
     inkscape:connector-curvature="0" /><path
     style="fill:none;stroke:#000000;stroke-width:1px;stroke-linecap:butt;stroke-linejoin:miter;stroke-opacity:1"
     d="M 674.39475,472.35237 642.08119,453.43711"
     id="path4326"
     inkscape:connector-curvature="0" /><path
     sodipodi:type="arc"
     style="fill:none;stroke:#000000;stroke-width:0.1954051;stroke-miterlimit:10;stroke-opacity:1;stroke-dasharray:none;stroke-dashoffset:0;marker-end:url(#Arrow1Lend)"
     id="path6014"
     sodipodi:cx="-59.07338"
     sodipodi:cy="-85.406509"
     sodipodi:rx="82.479813"
     sodipodi:ry="47.370163"
     d="m -59.073378,-132.77667 a 82.479813,47.370163 0 0 1 82.479811,47.37016"
     sodipodi:start="4.712389"
     sodipodi:end="6.2831853"
     transform="matrix(3.8783117,0,0,6.7528252,652.19592,901.45807)"
     sodipodi:open="true" /></svg>