<?xml version="1.0" encoding="UTF-8" standalone="no"?>
<svg
   xmlns:dc="http://purl.org/dc/elements/1.1/"
   xmlns:cc="http://creativecommons.org/ns#"
   xmlns:rdf="http://www.w3.org/1999/02/22-rdf-syntax-ns#"
   xmlns:svg="http://www.w3.org/2000/svg"
   xmlns="http://www.w3.org/2000/svg"
   xmlns:sodipodi="http://sodipodi.sourceforge.net/DTD/sodipodi-0.dtd"
   xmlns:inkscape="http://www.inkscape.org/namespaces/inkscape"
   viewBox="0 0 992.25 744"
   height="744"
   width="992.25"
   xml:space="preserve"
   version="1.1"
   id="svg2"
   inkscape:version="0.48.3.1 r9886"
   sodipodi:docname="spect_colli_conebeam.pdf"><sodipodi:namedview
     pagecolor="#ffffff"
     bordercolor="#666666"
     borderopacity="1"
     objecttolerance="10"
     gridtolerance="10"
     guidetolerance="10"
     inkscape:pageopacity="0"
     inkscape:pageshadow="2"
     inkscape:window-width="1920"
     inkscape:window-height="1004"
     id="namedview151"
     showgrid="false"
     inkscape:zoom="2.5376344"
     inkscape:cx="442.29284"
     inkscape:cy="402.85448"
     inkscape:window-x="0"
     inkscape:window-y="24"
     inkscape:window-maximized="1"
     inkscape:current-layer="g10" /><metadata
     id="metadata8"><rdf:RDF><cc:Work
         rdf:about=""><dc:format>image/svg+xml</dc:format><dc:type
           rdf:resource="http://purl.org/dc/dcmitype/StillImage" /><dc:title></dc:title></cc:Work></rdf:RDF></metadata><defs
     id="defs6"><clipPath
       id="clipPath108"
       clipPathUnits="userSpaceOnUse"><path
         style="clip-rule:evenodd"
         id="path110"
         d="M 1.1829e-5,0 793.80001,0 l 0,595.2 -793.799998171,0 0,-595.2 z" /></clipPath><clipPath
       id="clipPath120"
       clipPathUnits="userSpaceOnUse"><path
         style="clip-rule:evenodd"
         id="path122"
         d="M 1.1829e-5,0 793.80001,0 l 0,595.2 -793.799998171,0 0,-595.2 z" /></clipPath><clipPath
       id="clipPath132"
       clipPathUnits="userSpaceOnUse"><path
         style="clip-rule:evenodd"
         id="path134"
         d="M 1.1829e-5,0 793.80001,0 l 0,595.2 -793.799998171,0 0,-595.2 z" /></clipPath><clipPath
       id="clipPath144"
       clipPathUnits="userSpaceOnUse"><path
         style="clip-rule:evenodd"
         id="path146"
         d="M 1.1829e-5,0 793.80001,0 l 0,595.2 -793.799998171,0 0,-595.2 z" /></clipPath><clipPath
       id="clipPath156"
       clipPathUnits="userSpaceOnUse"><path
         style="clip-rule:evenodd"
         id="path158"
         d="M 1.1829e-5,0 793.80001,0 l 0,595.2 -793.799998171,0 0,-595.2 z" /></clipPath><clipPath
       id="clipPath168"
       clipPathUnits="userSpaceOnUse"><path
         style="clip-rule:evenodd"
         id="path170"
         d="M 1.1829e-5,0 793.80001,0 l 0,595.2 -793.799998171,0 0,-595.2 z" /></clipPath><clipPath
       id="clipPath180"
       clipPathUnits="userSpaceOnUse"><path
         style="clip-rule:evenodd"
         id="path182"
         d="M 1.1829e-5,0 793.80001,0 l 0,595.2 -793.799998171,0 0,-595.2 z" /></clipPath><clipPath
       id="clipPath192"
       clipPathUnits="userSpaceOnUse"><path
         style="clip-rule:evenodd"
         id="path194"
         d="M 1.1829e-5,0 793.80001,0 l 0,595.2 -793.799998171,0 0,-595.2 z" /></clipPath><clipPath
       id="clipPath204"
       clipPathUnits="userSpaceOnUse"><path
         style="clip-rule:evenodd"
         id="path206"
         d="M 1.1829e-5,0 793.80001,0 l 0,595.2 -793.799998171,0 0,-595.2 z" /></clipPath><clipPath
       id="clipPath220"
       clipPathUnits="userSpaceOnUse"><path
         style="clip-rule:evenodd"
         id="path222"
         d="M 1.1829e-5,0 793.80001,0 l 0,595.2 -793.799998171,0 0,-595.2 z" /></clipPath><clipPath
       id="clipPath232"
       clipPathUnits="userSpaceOnUse"><path
         style="clip-rule:evenodd"
         id="path234"
         d="M 1.1829e-5,0 793.80001,0 l 0,595.2 -793.799998171,0 0,-595.2 z" /></clipPath><clipPath
       id="clipPath244"
       clipPathUnits="userSpaceOnUse"><path
         style="clip-rule:evenodd"
         id="path246"
         d="M 1.1829e-5,0 793.80001,0 l 0,595.2 -793.799998171,0 0,-595.2 z" /></clipPath><clipPath
       id="clipPath256"
       clipPathUnits="userSpaceOnUse"><path
         style="clip-rule:evenodd"
         id="path258"
         d="M 1.1829e-5,0 793.80001,0 l 0,595.2 -793.799998171,0 0,-595.2 z" /></clipPath><clipPath
       id="clipPath268"
       clipPathUnits="userSpaceOnUse"><path
         style="clip-rule:evenodd"
         id="path270"
         d="M 1.1829e-5,0 793.80001,0 l 0,595.2 -793.799998171,0 0,-595.2 z" /></clipPath><clipPath
       id="clipPath280"
       clipPathUnits="userSpaceOnUse"><path
         style="clip-rule:evenodd"
         id="path282"
         d="M 1.1829e-5,0 793.80001,0 l 0,595.2 -793.799998171,0 0,-595.2 z" /></clipPath><clipPath
       id="clipPath292"
       clipPathUnits="userSpaceOnUse"><path
         style="clip-rule:evenodd"
         id="path294"
         d="M 1.1829e-5,0 793.80001,0 l 0,595.2 -793.799998171,0 0,-595.2 z" /></clipPath></defs><g
     transform="matrix(1.25,0,0,-1.25,0,744)"
     id="g10"><rect
   style="fill:#f5d002;fill-opacity:1;stroke:#000000;stroke-width:0.16;stroke-miterlimit:10;stroke-dasharray:none;stroke-opacity:1"
   id="rect4222"
   width="32.10025"
   height="176.55138"
   x="422.65332"
   y="-423.54498"
   transform="scale(1,-1)"
   ry="0.63050878" /><rect
   style="fill:#02cdf5;fill-opacity:1;stroke:#000000;stroke-width:0.16;stroke-miterlimit:10;stroke-dasharray:none;stroke-opacity:1"
   id="rect4226"
   width="33.883598"
   height="177.44305"
   x="482.39545"
   y="-423.54498"
   transform="scale(1,-1)"
   ry="0.40352559" /><path
   style="fill:none;fill-rule:evenodd;stroke:#dd1a06;stroke-width:0.80000001px;stroke-linecap:butt;stroke-linejoin:miter;stroke-opacity:1"
   d="M 482.39544,412.17614 383.64258,340.92868"
   id="path4230"
   inkscape:connector-curvature="0"
   sodipodi:nodetypes="cc" /><path
   style="fill:none;fill-rule:evenodd;stroke:#dd1a06;stroke-width:0.80000001px;stroke-linecap:butt;stroke-linejoin:miter;stroke-opacity:1"
   d="M 482.05447,400.37597 383.93211,340.47766"
   id="path4230-2"
   inkscape:connector-curvature="0"
   sodipodi:nodetypes="cc" /><path
   style="fill:none;fill-rule:evenodd;stroke:#dd1a06;stroke-width:0.80000001px;stroke-linecap:butt;stroke-linejoin:miter;stroke-opacity:1"
   d="M 482.05447,388.95305 384.24736,340.08864"
   id="path4230-8"
   inkscape:connector-curvature="0"
   sodipodi:nodetypes="cc" /><path
   style="fill:none;fill-rule:evenodd;stroke:#dd1a06;stroke-width:0.80000001px;stroke-linecap:butt;stroke-linejoin:miter;stroke-opacity:1"
   d="m 482.52801,377.56971 -98.43761,-37.2"
   id="path4230-25"
   inkscape:connector-curvature="0"
   sodipodi:nodetypes="cc" /><path
   style="fill:none;fill-rule:evenodd;stroke:#dd1a06;stroke-width:0.80000001px;stroke-linecap:butt;stroke-linejoin:miter;stroke-opacity:1"
   d="m 482.15338,366.06896 -97.8071,-25.53559"
   id="path4230-6"
   inkscape:connector-curvature="0"
   sodipodi:nodetypes="cc" /><path
   style="fill:none;fill-rule:evenodd;stroke:#dd1a06;stroke-width:0.80000001px;stroke-linecap:butt;stroke-linejoin:miter;stroke-opacity:1"
   d="M 482.3763,353.5842 383.62344,340.65878"
   id="path4230-0"
   inkscape:connector-curvature="0"
   sodipodi:nodetypes="cc" /><path
   style="fill:none;fill-rule:evenodd;stroke:#dd1a06;stroke-width:0.80000001px;stroke-linecap:butt;stroke-linejoin:miter;stroke-opacity:1"
   d="m 482.28398,340.17349 -98.75285,0"
   id="path4230-0-4"
   inkscape:connector-curvature="0" /><path
   style="fill:none;fill-rule:evenodd;stroke:#dd1a06;stroke-width:0.80000001px;stroke-linecap:butt;stroke-linejoin:miter;stroke-opacity:1"
   d="m 482.28398,327.69007 -98.4376,12.92542"
   id="path4230-0-0"
   inkscape:connector-curvature="0"
   sodipodi:nodetypes="cc" /><path
   style="fill:none;fill-rule:evenodd;stroke:#dd1a06;stroke-width:0.80000001px;stroke-linecap:butt;stroke-linejoin:miter;stroke-opacity:1"
   d="m 482.28398,315.42955 -98.4376,24.58983"
   id="path4230-0-8"
   inkscape:connector-curvature="0"
   sodipodi:nodetypes="cc" /><path
   style="fill:none;fill-rule:evenodd;stroke:#dd1a06;stroke-width:0.80000001px;stroke-linecap:butt;stroke-linejoin:miter;stroke-opacity:1"
   d="m 482.2205,302.32882 -98.12235,37.83051"
   id="path4230-0-7"
   inkscape:connector-curvature="0"
   sodipodi:nodetypes="cc" /><path
   style="fill:none;fill-rule:evenodd;stroke:#dd1a06;stroke-width:0.80000001px;stroke-linecap:butt;stroke-linejoin:miter;stroke-opacity:1"
   d="m 481.90524,288.14238 -97.80709,52.01695"
   id="path4230-0-2"
   inkscape:connector-curvature="0"
   sodipodi:nodetypes="cc" /><path
   style="fill:none;fill-rule:evenodd;stroke:#dd1a06;stroke-width:0.80000001px;stroke-linecap:butt;stroke-linejoin:miter;stroke-opacity:1"
   d="m 481.90524,272.69492 -98.75285,67.46441"
   id="path4230-0-81"
   inkscape:connector-curvature="0"
   sodipodi:nodetypes="cc" /><path
   style="fill:none;fill-rule:evenodd;stroke:#dd1a06;stroke-width:0.80000001px;stroke-linecap:butt;stroke-linejoin:miter;stroke-opacity:1"
   d="m 481.90524,259.13899 -98.12235,81.02034"
   id="path4230-0-26"
   inkscape:connector-curvature="0"
   sodipodi:nodetypes="cc" /><text
   xml:space="preserve"
   style="font-style:normal;font-weight:normal;font-size:14px;line-height:125%;font-family:sans-serif;letter-spacing:0px;word-spacing:0px;fill:#000000;fill-opacity:1;stroke:none;stroke-width:1px;stroke-linecap:butt;stroke-linejoin:miter;stroke-opacity:1"
   x="396.79477"
   y="-431.57004"
   id="text4364"
   sodipodi:linespacing="125%"
   transform="scale(1,-1)"><tspan
     sodipodi:role="line"
     id="tspan4366"
     x="396.79477"
     y="-431.57004">Collimator</tspan></text>




<text
   xml:space="preserve"
   style="font-style:normal;font-weight:normal;font-size:14px;line-height:125%;font-family:sans-serif;letter-spacing:0px;word-spacing:0px;fill:#000000;fill-opacity:1;stroke:none;stroke-width:1px;stroke-linecap:butt;stroke-linejoin:miter;stroke-opacity:1"
   x="451.33389"
   y="-222.15755"
   id="text4364-9"
   sodipodi:linespacing="125%"
   transform="scale(1,-1)"><tspan
     sodipodi:role="line"
     id="tspan4366-6"
     x="451.33389"
     y="-222.15755">Gamma camera</tspan></text>




<path
   style="fill:#000000;stroke:#330400;stroke-width:0.7088;stroke-linecap:butt;stroke-linejoin:miter;stroke-miterlimit:4;stroke-opacity:1;stroke-dasharray:0.7088,0.7088;stroke-dashoffset:0"
   d="m 540.81694,340.1356 -189.82287,0"
   id="path4230-0-4-4"
   inkscape:connector-curvature="0" /><text
   xml:space="preserve"
   style="font-size:9.60000038px;font-style:normal;font-weight:normal;line-height:125%;letter-spacing:0px;word-spacing:0px;fill:#000000;fill-opacity:1;stroke:none;font-family:Sans"
   x="484.54581"
   y="-352.13901"
   id="text3819"
   sodipodi:linespacing="125%"
   transform="scale(1,-1)"><tspan
     sodipodi:role="line"
     id="tspan3821"
     x="484.54581"
     y="-352.13901"
     style="font-size:8px;font-style:normal;font-variant:normal;font-weight:normal;font-stretch:normal;font-family:DejaVu Serif;-inkscape-font-specification:DejaVu Serif">x<tspan
   style="font-size:52%;baseline-shift:sub"
   id="tspan3293">1</tspan></tspan></text>



<text
   xml:space="preserve"
   style="font-size:9.60000038px;font-style:normal;font-weight:normal;line-height:125%;letter-spacing:0px;word-spacing:0px;fill:#000000;fill-opacity:1;stroke:none;font-family:Sans"
   x="484.04562"
   y="-364.61771"
   id="text3819-5"
   sodipodi:linespacing="125%"
   transform="scale(1,-1)"><tspan
     sodipodi:role="line"
     id="tspan3821-4"
     x="484.04562"
     y="-364.61771"
     style="font-size:8px;font-style:normal;font-variant:normal;font-weight:normal;font-stretch:normal;font-family:DejaVu Serif;-inkscape-font-specification:DejaVu Serif">x<tspan
   style="font-size:52%;baseline-shift:sub"
   id="tspan3295">2</tspan></tspan></text>



<text
   xml:space="preserve"
   style="font-size:9.60000038px;font-style:normal;font-weight:normal;line-height:125%;letter-spacing:0px;word-spacing:0px;fill:#000000;fill-opacity:1;stroke:none;font-family:Sans"
   x="484.04559"
   y="-375.96686"
   id="text3819-0"
   sodipodi:linespacing="125%"
   transform="scale(1,-1)"><tspan
     sodipodi:role="line"
     id="tspan3821-6"
     x="484.04559"
     y="-375.96686"
     style="font-size:8px;font-style:normal;font-variant:normal;font-weight:normal;font-stretch:normal;font-family:DejaVu Serif;-inkscape-font-specification:DejaVu Serif">x<tspan
   style="font-size:52%;baseline-shift:sub"
   id="tspan3297">3</tspan></tspan></text>



<text
   xml:space="preserve"
   style="font-size:9.60000038px;font-style:normal;font-weight:normal;line-height:125%;letter-spacing:0px;word-spacing:0px;fill:#000000;fill-opacity:1;stroke:none;font-family:Sans"
   x="483.73038"
   y="-387.31598"
   id="text3819-7"
   sodipodi:linespacing="125%"
   transform="scale(1,-1)"><tspan
     sodipodi:role="line"
     id="tspan3821-2"
     x="483.73038"
     y="-387.31598"
     style="font-size:8px;font-style:normal;font-variant:normal;font-weight:normal;font-stretch:normal;font-family:DejaVu Serif;-inkscape-font-specification:DejaVu Serif">x<tspan
   style="font-size:52%;baseline-shift:sub"
   id="tspan3299">4</tspan></tspan></text>



<text
   xml:space="preserve"
   style="font-size:9.60000038px;font-style:normal;font-weight:normal;line-height:125%;letter-spacing:0px;word-spacing:0px;fill:#000000;fill-opacity:1;stroke:none;font-family:Sans"
   x="483.41513"
   y="-398.34991"
   id="text3819-7-2"
   sodipodi:linespacing="125%"
   transform="scale(1,-1)"><tspan
     sodipodi:role="line"
     id="tspan3821-2-9"
     x="483.41513"
     y="-398.34991"
     style="font-size:8px;font-style:normal;font-variant:normal;font-weight:normal;font-stretch:normal;font-family:DejaVu Serif;-inkscape-font-specification:DejaVu Serif">x<tspan
   style="font-size:52%;baseline-shift:sub"
   id="tspan3301">5</tspan></tspan></text>



<text
   xml:space="preserve"
   style="font-size:9.60000038px;font-style:normal;font-weight:normal;line-height:125%;letter-spacing:0px;word-spacing:0px;fill:#000000;fill-opacity:1;stroke:none;font-family:Sans"
   x="483.4151"
   y="-410.32956"
   id="text3819-7-6"
   sodipodi:linespacing="125%"
   transform="scale(1,-1)"><tspan
     sodipodi:role="line"
     id="tspan3821-2-8"
     x="483.4151"
     y="-410.32956"
     style="font-size:8px;font-style:normal;font-variant:normal;font-weight:normal;font-stretch:normal;font-family:DejaVu Serif;-inkscape-font-specification:DejaVu Serif">x<tspan
   style="font-size:52%;baseline-shift:sub"
   id="tspan3303">6</tspan></tspan></text>



<text
   xml:space="preserve"
   style="font-size:9.60000038px;font-style:normal;font-weight:normal;line-height:125%;letter-spacing:0px;word-spacing:0px;fill:#000000;fill-opacity:1;stroke:none;font-family:Sans"
   x="485.39899"
   y="-338.54395"
   id="text3819-7-6-2"
   sodipodi:linespacing="125%"
   transform="scale(1,-1)"><tspan
     sodipodi:role="line"
     id="tspan3821-2-8-4"
     x="485.39899"
     y="-338.54395"
     style="font-size:8px;font-style:normal;font-variant:normal;font-weight:normal;font-stretch:normal;font-family:DejaVu Serif;-inkscape-font-specification:DejaVu Serif">x<tspan
   style="font-size:52.00042725%;baseline-shift:sub"
   id="tspan3291">0</tspan></tspan></text>



<text
   xml:space="preserve"
   style="font-size:9.60000038px;font-style:normal;font-weight:normal;line-height:125%;letter-spacing:0px;word-spacing:0px;fill:#000000;fill-opacity:1;stroke:none;font-family:Sans"
   x="483.73035"
   y="-325.8414"
   id="text3819-7-6-6"
   sodipodi:linespacing="125%"
   transform="scale(1,-1)"><tspan
     sodipodi:role="line"
     id="tspan3821-2-8-9"
     x="483.73035"
     y="-325.8414"
     style="font-size:8px;font-style:normal;font-variant:normal;font-weight:normal;font-stretch:normal;font-family:DejaVu Serif;-inkscape-font-specification:DejaVu Serif">-x<tspan
   style="font-size:52%;baseline-shift:sub"
   id="tspan3287">1</tspan></tspan></text>



<text
   xml:space="preserve"
   style="font-size:9.60000038px;font-style:normal;font-weight:normal;line-height:125%;letter-spacing:0px;word-spacing:0px;fill:#000000;fill-opacity:1;stroke:none;font-family:Sans"
   x="483.82809"
   y="-312.91602"
   id="text3819-7-6-6-6"
   sodipodi:linespacing="125%"
   transform="scale(1,-1)"><tspan
     sodipodi:role="line"
     id="tspan3821-2-8-9-1"
     x="483.82809"
     y="-312.91602"
     style="font-size:8px;font-style:normal;font-variant:normal;font-weight:normal;font-stretch:normal;font-family:DejaVu Serif;-inkscape-font-specification:DejaVu Serif">-x<tspan
   style="font-size:52%;baseline-shift:sub"
   id="tspan3305">2</tspan></tspan></text>



<text
   xml:space="preserve"
   style="font-size:9.60000038px;font-style:normal;font-weight:normal;line-height:125%;letter-spacing:0px;word-spacing:0px;fill:#000000;fill-opacity:1;stroke:none;font-family:Sans"
   x="483.82809"
   y="-300.62109"
   id="text3819-7-6-6-1"
   sodipodi:linespacing="125%"
   transform="scale(1,-1)"><tspan
     sodipodi:role="line"
     id="tspan3821-2-8-9-8"
     x="483.82809"
     y="-300.62109"
     style="font-size:8px;font-style:normal;font-variant:normal;font-weight:normal;font-stretch:normal;font-family:DejaVu Serif;-inkscape-font-specification:DejaVu Serif">-x<tspan
   style="font-size:52%;baseline-shift:sub"
   id="tspan3307">3</tspan></tspan></text>



<text
   xml:space="preserve"
   style="font-size:9.60000038px;font-style:normal;font-weight:normal;line-height:125%;letter-spacing:0px;word-spacing:0px;fill:#000000;fill-opacity:1;stroke:none;font-family:Sans"
   x="484.45859"
   y="-287.06512"
   id="text3819-7-6-6-2"
   sodipodi:linespacing="125%"
   transform="scale(1,-1)"><tspan
     sodipodi:role="line"
     id="tspan3821-2-8-9-3"
     x="484.45859"
     y="-287.06512"
     style="font-size:8px;font-style:normal;font-variant:normal;font-weight:normal;font-stretch:normal;font-family:DejaVu Serif;-inkscape-font-specification:DejaVu Serif">-x<tspan
   style="font-size:52%;baseline-shift:sub"
   id="tspan3309">4</tspan></tspan></text>



<text
   xml:space="preserve"
   style="font-size:9.60000038px;font-style:normal;font-weight:normal;line-height:125%;letter-spacing:0px;word-spacing:0px;fill:#000000;fill-opacity:1;stroke:none;font-family:Sans"
   x="484.77386"
   y="-271.93295"
   id="text3819-7-6-6-10"
   sodipodi:linespacing="125%"
   transform="scale(1,-1)"><tspan
     sodipodi:role="line"
     id="tspan3821-2-8-9-7"
     x="484.77386"
     y="-271.93295"
     style="font-size:8px;font-style:normal;font-variant:normal;font-weight:normal;font-stretch:normal;font-family:DejaVu Serif;-inkscape-font-specification:DejaVu Serif">-x<tspan
   style="font-size:52%;baseline-shift:sub"
   id="tspan3311">5</tspan></tspan></text>



<text
   xml:space="preserve"
   style="font-size:9.60000038px;font-style:normal;font-weight:normal;line-height:125%;letter-spacing:0px;word-spacing:0px;fill:#000000;fill-opacity:1;stroke:none;font-family:Sans"
   x="485.08914"
   y="-257.116"
   id="text3819-7-6-6-23"
   sodipodi:linespacing="125%"
   transform="scale(1,-1)"><tspan
     sodipodi:role="line"
     id="tspan3821-2-8-9-5"
     x="485.08914"
     y="-257.116"
     style="font-size:8px;font-style:normal;font-variant:normal;font-weight:normal;font-stretch:normal;font-family:DejaVu Serif;-inkscape-font-specification:DejaVu Serif">-x<tspan
   style="font-size:52%;baseline-shift:sub"
   id="tspan3313">6</tspan></tspan></text>



<text
   xml:space="preserve"
   style="font-size:9.60000038px;font-style:normal;font-weight:normal;line-height:125%;letter-spacing:0px;word-spacing:0px;fill:#000000;fill-opacity:1;stroke:none;font-family:Sans"
   x="373.40387"
   y="-327.15906"
   id="text3819-7-6-2-3"
   sodipodi:linespacing="125%"
   transform="scale(1,-1)"><tspan
     sodipodi:role="line"
     id="tspan3821-2-8-4-4"
     x="373.40387"
     y="-327.15906"
     style="font-size:8px;font-style:normal;font-variant:normal;font-weight:normal;font-stretch:normal;font-family:DejaVu Serif;-inkscape-font-specification:DejaVu Serif">f(x<tspan
   style="font-size:52.00042725%;baseline-shift:sub"
   id="tspan3285">i</tspan>)</tspan></text>



<path
   sodipodi:type="arc"
   style="fill:#000000;stroke:none;stroke-width:0.88599998000000002;stroke-miterlimit:4;stroke-opacity:1;stroke-dasharray:0.88600000000000001, 0.88600000000000001;stroke-dashoffset:0"
   id="path4004"
   sodipodi:cx="427.16949"
   sodipodi:cy="281.36441"
   sodipodi:rx="1.1822034"
   sodipodi:ry="1.5762712"
   d="m 428.3517,281.36441 c 0,0.87055 -0.52929,1.57627 -1.18221,1.57627 -0.65291,0 -1.1822,-0.70572 -1.1822,-1.57627 0,-0.87055 0.52929,-1.57627 1.1822,-1.57627 0.65292,0 1.18221,0.70572 1.18221,1.57627 z"
   transform="matrix(0.8,0,0,-0.60451602,140.60339,510.13553)" /><path
   sodipodi:type="arc"
   style="fill:#000000;stroke:none;stroke-width:0.88599998000000002;stroke-miterlimit:4;stroke-opacity:1;stroke-dasharray:0.88600000000000001, 0.88600000000000001;stroke-dashoffset:0"
   id="path4004-5"
   sodipodi:cx="427.16949"
   sodipodi:cy="281.36441"
   sodipodi:rx="1.1822034"
   sodipodi:ry="1.5762712"
   d="m 428.3517,281.36441 c 0,0.87055 -0.52929,1.57627 -1.18221,1.57627 -0.65291,0 -1.1822,-0.70572 -1.1822,-1.57627 0,-0.87055 0.52929,-1.57627 1.1822,-1.57627 0.65292,0 1.18221,0.70572 1.18221,1.57627 z"
   transform="matrix(0.8,0,0,-0.60451602,140.71558,523.63789)" /><path
   sodipodi:type="arc"
   style="fill:#000000;stroke:none;stroke-width:0.88579211999999996;stroke-miterlimit:4;stroke-opacity:1;stroke-dasharray:0.88579211999999996, 0.88579211999999996;stroke-dashoffset:0"
   id="path4004-4"
   sodipodi:cx="427.16949"
   sodipodi:cy="281.36441"
   sodipodi:rx="1.1822034"
   sodipodi:ry="1.5762712"
   d="m 428.3517,281.36441 c 0,0.87055 -0.52929,1.57627 -1.18221,1.57627 -0.65291,0 -1.1822,-0.70572 -1.1822,-1.57627 0,-0.87055 0.52929,-1.57627 1.1822,-1.57627 0.65292,0 1.18221,0.70572 1.18221,1.57627 z"
   transform="matrix(0.8,0,0,-0.60451602,140.7713,536.09346)" /><path
   sodipodi:type="arc"
   style="fill:#000000;stroke:none"
   id="path4004-4-6"
   sodipodi:cx="427.16949"
   sodipodi:cy="281.36441"
   sodipodi:rx="1.1822034"
   sodipodi:ry="1.5762712"
   d="m 428.3517,281.36441 c 0,0.87055 -0.52929,1.57627 -1.18221,1.57627 -0.65291,0 -1.1822,-0.70572 -1.1822,-1.57627 0,-0.87055 0.52929,-1.57627 1.1822,-1.57627 0.65292,0 1.18221,0.70572 1.18221,1.57627 z"
   transform="matrix(0.8,0,0,-0.60451602,140.63198,547.5459)" /><path
   sodipodi:type="arc"
   style="fill:#000000;stroke:none"
   id="path4004-4-62"
   sodipodi:cx="427.16949"
   sodipodi:cy="281.36441"
   sodipodi:rx="1.1822034"
   sodipodi:ry="1.5762712"
   d="m 428.3517,281.36441 c 0,0.87055 -0.52929,1.57627 -1.18221,1.57627 -0.65291,0 -1.1822,-0.70572 -1.1822,-1.57627 0,-0.87055 0.52929,-1.57627 1.1822,-1.57627 0.65292,0 1.18221,0.70572 1.18221,1.57627 z"
   transform="matrix(0.8,0,0,-0.60451602,140.65985,559.05405)" /><path
   sodipodi:type="arc"
   style="fill:#000000;stroke:none"
   id="path4004-4-7"
   sodipodi:cx="427.16949"
   sodipodi:cy="281.36441"
   sodipodi:rx="1.1822034"
   sodipodi:ry="1.5762712"
   d="m 428.3517,281.36441 c 0,0.87055 -0.52929,1.57627 -1.18221,1.57627 -0.65291,0 -1.1822,-0.70572 -1.1822,-1.57627 0,-0.87055 0.52929,-1.57627 1.1822,-1.57627 0.65292,0 1.18221,0.70572 1.18221,1.57627 z"
   transform="matrix(0.8,0,0,-0.60451602,140.60412,570.36717)" /><path
   sodipodi:type="arc"
   style="fill:#000000;stroke:none"
   id="path4004-4-69"
   sodipodi:cx="427.16949"
   sodipodi:cy="281.36441"
   sodipodi:rx="1.1822034"
   sodipodi:ry="1.5762712"
   d="m 428.3517,281.36441 c 0,0.87055 -0.52929,1.57627 -1.18221,1.57627 -0.65291,0 -1.1822,-0.70572 -1.1822,-1.57627 0,-0.87055 0.52929,-1.57627 1.1822,-1.57627 0.65292,0 1.18221,0.70572 1.18221,1.57627 z"
   transform="matrix(0.8,0,0,-0.60451602,140.65985,582.12611)" /><path
   sodipodi:type="arc"
   style="fill:#000000;stroke:none"
   id="path4004-4-2"
   sodipodi:cx="427.16949"
   sodipodi:cy="281.36441"
   sodipodi:rx="1.1822034"
   sodipodi:ry="1.5762712"
   d="m 428.3517,281.36441 c 0,0.87055 -0.52929,1.57627 -1.18221,1.57627 -0.65291,0 -1.1822,-0.70572 -1.1822,-1.57627 0,-0.87055 0.52929,-1.57627 1.1822,-1.57627 0.65292,0 1.18221,0.70572 1.18221,1.57627 z"
   transform="matrix(0.8,0,0,-0.60451602,140.65984,497.86295)" /><path
   sodipodi:type="arc"
   style="fill:#000000;stroke:none"
   id="path4004-4-79"
   sodipodi:cx="427.16949"
   sodipodi:cy="281.36441"
   sodipodi:rx="1.1822034"
   sodipodi:ry="1.5762712"
   d="m 428.3517,281.36441 c 0,0.87055 -0.52929,1.57627 -1.18221,1.57627 -0.65291,0 -1.1822,-0.70572 -1.1822,-1.57627 0,-0.87055 0.52929,-1.57627 1.1822,-1.57627 0.65292,0 1.18221,0.70572 1.18221,1.57627 z"
   transform="matrix(0.8,0,0,-0.60451602,140.68771,485.49098)" /><path
   sodipodi:type="arc"
   style="fill:#000000;stroke:none"
   id="path4004-4-4"
   sodipodi:cx="427.16949"
   sodipodi:cy="281.36441"
   sodipodi:rx="1.1822034"
   sodipodi:ry="1.5762712"
   d="m 428.3517,281.36441 c 0,0.87055 -0.52929,1.57627 -1.18221,1.57627 -0.65291,0 -1.1822,-0.70572 -1.1822,-1.57627 0,-0.87055 0.52929,-1.57627 1.1822,-1.57627 0.65292,0 1.18221,0.70572 1.18221,1.57627 z"
   transform="matrix(0.8,0,0,-0.60451602,140.63198,472.50599)" /><path
   sodipodi:type="arc"
   style="fill:#000000;stroke:none"
   id="path4004-4-5"
   sodipodi:cx="427.16949"
   sodipodi:cy="281.36441"
   sodipodi:rx="1.1822034"
   sodipodi:ry="1.5762712"
   d="m 428.3517,281.36441 c 0,0.87055 -0.52929,1.57627 -1.18221,1.57627 -0.65291,0 -1.1822,-0.70572 -1.1822,-1.57627 0,-0.87055 0.52929,-1.57627 1.1822,-1.57627 0.65292,0 1.18221,0.70572 1.18221,1.57627 z"
   transform="matrix(0.8,0,0,-0.60451602,140.63198,458.21134)" /><path
   sodipodi:type="arc"
   style="fill:#000000;stroke:none"
   id="path4004-4-9"
   sodipodi:cx="427.16949"
   sodipodi:cy="281.36441"
   sodipodi:rx="1.1822034"
   sodipodi:ry="1.5762712"
   d="m 428.3517,281.36441 c 0,0.87055 -0.52929,1.57627 -1.18221,1.57627 -0.65291,0 -1.1822,-0.70572 -1.1822,-1.57627 0,-0.87055 0.52929,-1.57627 1.1822,-1.57627 0.65292,0 1.18221,0.70572 1.18221,1.57627 z"
   transform="matrix(0.8,0,0,-0.60451602,140.68771,442.80211)" /><path
   sodipodi:type="arc"
   style="fill:#000000;stroke:none"
   id="path4004-4-70"
   sodipodi:cx="427.16949"
   sodipodi:cy="281.36441"
   sodipodi:rx="1.1822034"
   sodipodi:ry="1.5762712"
   d="m 428.3517,281.36441 c 0,0.87055 -0.52929,1.57627 -1.18221,1.57627 -0.65291,0 -1.1822,-0.70572 -1.1822,-1.57627 0,-0.87055 0.52929,-1.57627 1.1822,-1.57627 0.65292,0 1.18221,0.70572 1.18221,1.57627 z"
   transform="matrix(0.8,0,0,-0.60451602,140.63198,429.06476)" /><path
   sodipodi:type="arc"
   style="fill:#000000;stroke:none"
   id="path4004-4-8"
   sodipodi:cx="427.16949"
   sodipodi:cy="281.36441"
   sodipodi:rx="1.1822034"
   sodipodi:ry="1.5762712"
   d="m 428.3517,281.36441 c 0,0.87055 -0.52929,1.57627 -1.18221,1.57627 -0.65291,0 -1.1822,-0.70572 -1.1822,-1.57627 0,-0.87055 0.52929,-1.57627 1.1822,-1.57627 0.65292,0 1.18221,0.70572 1.18221,1.57627 z"
   transform="matrix(0.8,0,0,-0.60451602,41.455931,510.32743)" /><text
   xml:space="preserve"
   style="font-size:9.60000038px;font-style:normal;font-weight:normal;line-height:125%;letter-spacing:0px;word-spacing:0px;fill:#000000;fill-opacity:1;stroke:none;font-family:Sans"
   x="512.17938"
   y="-332.87619"
   id="text3819-7-6-2-3-1"
   sodipodi:linespacing="125%"
   transform="scale(1,-1)"><tspan
     sodipodi:role="line"
     id="tspan3821-2-8-4-4-7"
     x="512.17938"
     y="-332.87619"
     style="font-size:8px;font-style:normal;font-variant:normal;font-weight:normal;font-stretch:normal;font-family:DejaVu Serif;-inkscape-font-specification:DejaVu Serif">Optical axis</tspan></text>
</g></svg>