<?xml version="1.0" encoding="UTF-8" standalone="no"?>
<svg
   xmlns:dc="http://purl.org/dc/elements/1.1/"
   xmlns:cc="http://creativecommons.org/ns#"
   xmlns:rdf="http://www.w3.org/1999/02/22-rdf-syntax-ns#"
   xmlns:svg="http://www.w3.org/2000/svg"
   xmlns="http://www.w3.org/2000/svg"
   xmlns:sodipodi="http://sodipodi.sourceforge.net/DTD/sodipodi-0.dtd"
   xmlns:inkscape="http://www.inkscape.org/namespaces/inkscape"
   viewBox="0 0 992.25 744"
   height="744"
   width="992.25"
   xml:space="preserve"
   version="1.1"
   id="svg2"
   inkscape:version="0.48.3.1 r9886"
   sodipodi:docname="spect_colli_pln_deg2.eps"><sodipodi:namedview
     pagecolor="#ffffff"
     bordercolor="#666666"
     borderopacity="1"
     objecttolerance="10"
     gridtolerance="10"
     guidetolerance="10"
     inkscape:pageopacity="0"
     inkscape:pageshadow="2"
     inkscape:window-width="1920"
     inkscape:window-height="1004"
     id="namedview151"
     showgrid="false"
     inkscape:zoom="2.5376344"
     inkscape:cx="471.96032"
     inkscape:cy="406.40163"
     inkscape:window-x="0"
     inkscape:window-y="24"
     inkscape:window-maximized="1"
     inkscape:current-layer="g10" /><metadata
     id="metadata8"><rdf:RDF><cc:Work
         rdf:about=""><dc:format>image/svg+xml</dc:format><dc:type
           rdf:resource="http://purl.org/dc/dcmitype/StillImage" /><dc:title></dc:title></cc:Work></rdf:RDF></metadata><defs
     id="defs6"><clipPath
       id="clipPath108"
       clipPathUnits="userSpaceOnUse"><path
         style="clip-rule:evenodd"
         id="path110"
         d="M 1.1829e-5,0 793.80001,0 l 0,595.2 -793.799998171,0 0,-595.2 z" /></clipPath><clipPath
       id="clipPath120"
       clipPathUnits="userSpaceOnUse"><path
         style="clip-rule:evenodd"
         id="path122"
         d="M 1.1829e-5,0 793.80001,0 l 0,595.2 -793.799998171,0 0,-595.2 z" /></clipPath><clipPath
       id="clipPath132"
       clipPathUnits="userSpaceOnUse"><path
         style="clip-rule:evenodd"
         id="path134"
         d="M 1.1829e-5,0 793.80001,0 l 0,595.2 -793.799998171,0 0,-595.2 z" /></clipPath><clipPath
       id="clipPath144"
       clipPathUnits="userSpaceOnUse"><path
         style="clip-rule:evenodd"
         id="path146"
         d="M 1.1829e-5,0 793.80001,0 l 0,595.2 -793.799998171,0 0,-595.2 z" /></clipPath><clipPath
       id="clipPath156"
       clipPathUnits="userSpaceOnUse"><path
         style="clip-rule:evenodd"
         id="path158"
         d="M 1.1829e-5,0 793.80001,0 l 0,595.2 -793.799998171,0 0,-595.2 z" /></clipPath><clipPath
       id="clipPath168"
       clipPathUnits="userSpaceOnUse"><path
         style="clip-rule:evenodd"
         id="path170"
         d="M 1.1829e-5,0 793.80001,0 l 0,595.2 -793.799998171,0 0,-595.2 z" /></clipPath><clipPath
       id="clipPath180"
       clipPathUnits="userSpaceOnUse"><path
         style="clip-rule:evenodd"
         id="path182"
         d="M 1.1829e-5,0 793.80001,0 l 0,595.2 -793.799998171,0 0,-595.2 z" /></clipPath><clipPath
       id="clipPath192"
       clipPathUnits="userSpaceOnUse"><path
         style="clip-rule:evenodd"
         id="path194"
         d="M 1.1829e-5,0 793.80001,0 l 0,595.2 -793.799998171,0 0,-595.2 z" /></clipPath><clipPath
       id="clipPath204"
       clipPathUnits="userSpaceOnUse"><path
         style="clip-rule:evenodd"
         id="path206"
         d="M 1.1829e-5,0 793.80001,0 l 0,595.2 -793.799998171,0 0,-595.2 z" /></clipPath><clipPath
       id="clipPath220"
       clipPathUnits="userSpaceOnUse"><path
         style="clip-rule:evenodd"
         id="path222"
         d="M 1.1829e-5,0 793.80001,0 l 0,595.2 -793.799998171,0 0,-595.2 z" /></clipPath><clipPath
       id="clipPath232"
       clipPathUnits="userSpaceOnUse"><path
         style="clip-rule:evenodd"
         id="path234"
         d="M 1.1829e-5,0 793.80001,0 l 0,595.2 -793.799998171,0 0,-595.2 z" /></clipPath><clipPath
       id="clipPath244"
       clipPathUnits="userSpaceOnUse"><path
         style="clip-rule:evenodd"
         id="path246"
         d="M 1.1829e-5,0 793.80001,0 l 0,595.2 -793.799998171,0 0,-595.2 z" /></clipPath><clipPath
       id="clipPath256"
       clipPathUnits="userSpaceOnUse"><path
         style="clip-rule:evenodd"
         id="path258"
         d="M 1.1829e-5,0 793.80001,0 l 0,595.2 -793.799998171,0 0,-595.2 z" /></clipPath><clipPath
       id="clipPath268"
       clipPathUnits="userSpaceOnUse"><path
         style="clip-rule:evenodd"
         id="path270"
         d="M 1.1829e-5,0 793.80001,0 l 0,595.2 -793.799998171,0 0,-595.2 z" /></clipPath><clipPath
       id="clipPath280"
       clipPathUnits="userSpaceOnUse"><path
         style="clip-rule:evenodd"
         id="path282"
         d="M 1.1829e-5,0 793.80001,0 l 0,595.2 -793.799998171,0 0,-595.2 z" /></clipPath><clipPath
       id="clipPath292"
       clipPathUnits="userSpaceOnUse"><path
         style="clip-rule:evenodd"
         id="path294"
         d="M 1.1829e-5,0 793.80001,0 l 0,595.2 -793.799998171,0 0,-595.2 z" /></clipPath></defs><g
     transform="matrix(1.25,0,0,-1.25,0,744)"
     id="g10"><rect
   style="fill:#f5d002;fill-opacity:1;stroke:#000000;stroke-width:0.16;stroke-miterlimit:10;stroke-dasharray:none;stroke-opacity:1"
   id="rect4222"
   width="32.10025"
   height="176.55138"
   x="422.65332"
   y="-423.54498"
   transform="scale(1,-1)"
   ry="0.63050878" /><rect
   style="fill:#02cdf5;fill-opacity:1;stroke:#000000;stroke-width:0.16;stroke-miterlimit:10;stroke-dasharray:none;stroke-opacity:1"
   id="rect4226"
   width="33.883598"
   height="177.44305"
   x="482.39545"
   y="-423.54498"
   transform="scale(1,-1)"
   ry="0.40352559" /><path
   style="fill:none;fill-rule:evenodd;stroke:#dd1a06;stroke-width:0.80000001px;stroke-linecap:butt;stroke-linejoin:miter;stroke-opacity:1"
   d="M 482.05447,400.37597 251.60852,340.09711"
   id="path4230-2"
   inkscape:connector-curvature="0"
   sodipodi:nodetypes="cc" /><path
   style="fill:none;fill-rule:evenodd;stroke:#dd1a06;stroke-width:0.80000001px;stroke-linecap:butt;stroke-linejoin:miter;stroke-opacity:1"
   d="M 482.05447,388.95305 301.07208,340.08864"
   id="path4230-8"
   inkscape:connector-curvature="0"
   sodipodi:nodetypes="cc" /><path
   style="fill:none;fill-rule:evenodd;stroke:#dd1a06;stroke-width:0.80000001px;stroke-linecap:butt;stroke-linejoin:miter;stroke-opacity:1"
   d="M 482.52801,377.56971 340.40144,340.14679"
   id="path4230-25"
   inkscape:connector-curvature="0"
   sodipodi:nodetypes="cc" /><path
   style="fill:none;fill-rule:evenodd;stroke:#dd1a06;stroke-width:0.80000001px;stroke-linecap:butt;stroke-linejoin:miter;stroke-opacity:1"
   d="M 482.15338,366.06896 369.50885,340.44104"
   id="path4230-6"
   inkscape:connector-curvature="0"
   sodipodi:nodetypes="cc" /><path
   style="fill:none;fill-rule:evenodd;stroke:#dd1a06;stroke-width:0.80000001px;stroke-linecap:butt;stroke-linejoin:miter;stroke-opacity:1"
   d="m 482.3763,353.5842 -57.59888,-7.53892 -33.89273,-5.63646"
   id="path4230-0"
   inkscape:connector-curvature="0"
   sodipodi:nodetypes="ccc" /><path
   style="fill:none;fill-rule:evenodd;stroke:#dd1a06;stroke-width:0.74869341px;stroke-linecap:butt;stroke-linejoin:miter;stroke-opacity:1"
   d="m 482.28398,340.17349 -82.03397,0.22292"
   id="path4230-0-4"
   inkscape:connector-curvature="0"
   sodipodi:nodetypes="cc" /><path
   style="fill:none;stroke:#dd1a06;stroke-width:0.8010059px;stroke-linecap:butt;stroke-linejoin:miter;stroke-opacity:1"
   d="M 481.62825,327.24473 390.6623,340.07681"
   id="path4230-0-0"
   inkscape:connector-curvature="0"
   sodipodi:nodetypes="cc" /><path
   style="fill:none;fill-rule:evenodd;stroke:#dd1a06;stroke-width:0.80000001px;stroke-linecap:butt;stroke-linejoin:miter;stroke-opacity:1"
   d="M 482.28398,315.42955 370.37351,340.17701"
   id="path4230-0-8"
   inkscape:connector-curvature="0"
   sodipodi:nodetypes="cc" /><path
   style="fill:none;fill-rule:evenodd;stroke:#dd1a06;stroke-width:0.80000001px;stroke-linecap:butt;stroke-linejoin:miter;stroke-opacity:1"
   d="M 482.2205,302.32882 339.60986,340.02874"
   id="path4230-0-7"
   inkscape:connector-curvature="0"
   sodipodi:nodetypes="cc" /><path
   style="fill:none;fill-rule:evenodd;stroke:#dd1a06;stroke-width:0.80000001px;stroke-linecap:butt;stroke-linejoin:miter;stroke-opacity:1"
   d="M 481.90524,288.14238 300.28116,340.38225"
   id="path4230-0-2"
   inkscape:connector-curvature="0"
   sodipodi:nodetypes="cc" /><path
   style="fill:none;fill-rule:evenodd;stroke:#dd1a06;stroke-width:0.80000001px;stroke-linecap:butt;stroke-linejoin:miter;stroke-opacity:1"
   d="M 481.90524,272.69492 252.37803,340.31696"
   id="path4230-0-81"
   inkscape:connector-curvature="0"
   sodipodi:nodetypes="cc" /><text
   xml:space="preserve"
   style="font-style:normal;font-weight:normal;font-size:14px;line-height:125%;font-family:sans-serif;letter-spacing:0px;word-spacing:0px;fill:#000000;fill-opacity:1;stroke:none;stroke-width:1px;stroke-linecap:butt;stroke-linejoin:miter;stroke-opacity:1"
   x="396.79477"
   y="-431.57004"
   id="text4364"
   sodipodi:linespacing="125%"
   transform="scale(1,-1)"><tspan
     sodipodi:role="line"
     id="tspan4366"
     x="396.79477"
     y="-431.57004">Collimator</tspan></text>






<text
   xml:space="preserve"
   style="font-style:normal;font-weight:normal;font-size:14px;line-height:125%;font-family:sans-serif;letter-spacing:0px;word-spacing:0px;fill:#000000;fill-opacity:1;stroke:none;stroke-width:1px;stroke-linecap:butt;stroke-linejoin:miter;stroke-opacity:1"
   x="451.33389"
   y="-222.15755"
   id="text4364-9"
   sodipodi:linespacing="125%"
   transform="scale(1,-1)"><tspan
     sodipodi:role="line"
     id="tspan4366-6"
     x="451.33389"
     y="-222.15755">Gamma camera</tspan></text>






<path
   style="fill:none;stroke:#000000;stroke-width:0.6172809;stroke-linecap:butt;stroke-linejoin:miter;stroke-miterlimit:4;stroke-opacity:1;stroke-dasharray:0.61728085, 0.61728085;stroke-dashoffset:0"
   d="m 523.25165,340.15933 -165.69986,0 -107.40671,0"
   id="path4230-0-4-9"
   inkscape:connector-curvature="0"
   sodipodi:nodetypes="ccc" /><text
   xml:space="preserve"
   style="font-size:9.60000038px;font-style:normal;font-weight:normal;line-height:125%;letter-spacing:0px;word-spacing:0px;fill:#000000;fill-opacity:1;stroke:none;font-family:Sans"
   x="483.51285"
   y="-325.21091"
   id="text3819-7-6-6"
   sodipodi:linespacing="125%"
   transform="scale(1,-1)"><tspan
     sodipodi:role="line"
     id="tspan3821-2-8-9"
     x="483.51285"
     y="-325.21091"
     style="font-size:8px;font-style:normal;font-variant:normal;font-weight:normal;font-stretch:normal;font-family:DejaVu Serif;-inkscape-font-specification:DejaVu Serif">-x<tspan
   style="font-size:52%;baseline-shift:sub"
   id="tspan3456">1</tspan></tspan></text>





<text
   xml:space="preserve"
   style="font-size:9.60000038px;font-style:normal;font-weight:normal;line-height:125%;letter-spacing:0px;word-spacing:0px;fill:#000000;fill-opacity:1;stroke:none;font-family:Sans"
   x="483.82809"
   y="-312.60071"
   id="text3819-7-6-6-8"
   sodipodi:linespacing="125%"
   transform="scale(1,-1)"><tspan
     sodipodi:role="line"
     id="tspan3821-2-8-9-6"
     x="483.82809"
     y="-312.60071"
     style="font-size:8px;font-style:normal;font-variant:normal;font-weight:normal;font-stretch:normal;font-family:DejaVu Serif;-inkscape-font-specification:DejaVu Serif">-x<tspan
   style="font-size:52%;baseline-shift:sub"
   id="tspan3458">2</tspan></tspan></text>





<text
   xml:space="preserve"
   style="font-size:9.60000038px;font-style:normal;font-weight:normal;line-height:125%;letter-spacing:0px;word-spacing:0px;fill:#000000;fill-opacity:1;stroke:none;font-family:Sans"
   x="484.14337"
   y="-299.99057"
   id="text3819-7-6-6-3"
   sodipodi:linespacing="125%"
   transform="scale(1,-1)"><tspan
     sodipodi:role="line"
     id="tspan3821-2-8-9-1"
     x="484.14337"
     y="-299.99057"
     style="font-size:8px;font-style:normal;font-variant:normal;font-weight:normal;font-stretch:normal;font-family:DejaVu Serif;-inkscape-font-specification:DejaVu Serif">-x<tspan
   style="font-size:52%;baseline-shift:sub"
   id="tspan3460">3</tspan></tspan></text>





<text
   xml:space="preserve"
   style="font-size:9.60000038px;font-style:normal;font-weight:normal;line-height:125%;letter-spacing:0px;word-spacing:0px;fill:#000000;fill-opacity:1;stroke:none;font-family:Sans"
   x="484.45862"
   y="-286.43466"
   id="text3819-7-6-6-6"
   sodipodi:linespacing="125%"
   transform="scale(1,-1)"><tspan
     sodipodi:role="line"
     id="tspan3821-2-8-9-3"
     x="484.45862"
     y="-286.43466"
     style="font-size:8px;font-style:normal;font-variant:normal;font-weight:normal;font-stretch:normal;font-family:DejaVu Serif;-inkscape-font-specification:DejaVu Serif">-x<tspan
   style="font-size:52%;baseline-shift:sub"
   id="tspan3462">4</tspan></tspan></text>





<text
   xml:space="preserve"
   style="font-size:9.60000038px;font-style:normal;font-weight:normal;line-height:125%;letter-spacing:0px;word-spacing:0px;fill:#000000;fill-opacity:1;stroke:none;font-family:Sans"
   x="484.45862"
   y="-272.56348"
   id="text3819-7-6-6-0"
   sodipodi:linespacing="125%"
   transform="scale(1,-1)"><tspan
     sodipodi:role="line"
     id="tspan3821-2-8-9-5"
     x="484.45862"
     y="-272.56348"
     style="font-size:8px;font-style:normal;font-variant:normal;font-weight:normal;font-stretch:normal;font-family:DejaVu Serif;-inkscape-font-specification:DejaVu Serif">-x<tspan
   style="font-size:52%;baseline-shift:sub"
   id="tspan3464">5</tspan></tspan></text>





<text
   xml:space="preserve"
   style="font-size:9.60000038px;font-style:normal;font-weight:normal;line-height:125%;letter-spacing:0px;word-spacing:0px;fill:#000000;fill-opacity:1;stroke:none;font-family:Sans"
   x="485.71967"
   y="-338.4516"
   id="text3819-7-6-6-1"
   sodipodi:linespacing="125%"
   transform="scale(1,-1)"><tspan
     sodipodi:role="line"
     id="tspan3821-2-8-9-2"
     x="485.71967"
     y="-338.4516"
     style="font-size:8px;font-style:normal;font-variant:normal;font-weight:normal;font-stretch:normal;font-family:DejaVu Serif;-inkscape-font-specification:DejaVu Serif">x<tspan
   style="font-size:52.00042725%;baseline-shift:sub"
   id="tspan3454">0</tspan></tspan></text>





<text
   xml:space="preserve"
   style="font-size:9.60000038px;font-style:normal;font-weight:normal;line-height:125%;letter-spacing:0px;word-spacing:0px;fill:#000000;fill-opacity:1;stroke:none;font-family:Sans"
   x="485.71964"
   y="-352.32275"
   id="text3819-7-6-6-48"
   sodipodi:linespacing="125%"
   transform="scale(1,-1)"><tspan
     sodipodi:role="line"
     id="tspan3821-2-8-9-18"
     x="485.71964"
     y="-352.32275"
     style="font-size:8px;font-style:normal;font-variant:normal;font-weight:normal;font-stretch:normal;font-family:DejaVu Serif;-inkscape-font-specification:DejaVu Serif">x<tspan
   style="font-size:52%;baseline-shift:sub"
   id="tspan3452">1</tspan></tspan></text>





<text
   xml:space="preserve"
   style="font-size:9.60000038px;font-style:normal;font-weight:normal;line-height:125%;letter-spacing:0px;word-spacing:0px;fill:#000000;fill-opacity:1;stroke:none;font-family:Sans"
   x="485.30664"
   y="-364.61768"
   id="text3819-7-6-6-48-5"
   sodipodi:linespacing="125%"
   transform="scale(1,-1)"><tspan
     sodipodi:role="line"
     id="tspan3821-2-8-9-18-7"
     x="485.30664"
     y="-364.61768"
     style="font-size:8px;font-style:normal;font-variant:normal;font-weight:normal;font-stretch:normal;font-family:DejaVu Serif;-inkscape-font-specification:DejaVu Serif">x<tspan
   style="font-size:52%;baseline-shift:sub"
   id="tspan3450">2</tspan></tspan></text>





<text
   xml:space="preserve"
   style="font-size:9.60000038px;font-style:normal;font-weight:normal;line-height:125%;letter-spacing:0px;word-spacing:0px;fill:#000000;fill-opacity:1;stroke:none;font-family:Sans"
   x="484.99136"
   y="-375.65158"
   id="text3819-7-6-6-48-1"
   sodipodi:linespacing="125%"
   transform="scale(1,-1)"><tspan
     sodipodi:role="line"
     id="tspan3821-2-8-9-18-6"
     x="484.99136"
     y="-375.65158"
     style="font-size:8px;font-style:normal;font-variant:normal;font-weight:normal;font-stretch:normal;font-family:DejaVu Serif;-inkscape-font-specification:DejaVu Serif">x<tspan
   style="font-size:52%;baseline-shift:sub"
   id="tspan3448">3</tspan></tspan></text>





<text
   xml:space="preserve"
   style="font-size:9.60000038px;font-style:normal;font-weight:normal;line-height:125%;letter-spacing:0px;word-spacing:0px;fill:#000000;fill-opacity:1;stroke:none;font-family:Sans"
   x="484.67612"
   y="-387.00073"
   id="text3819-7-6-6-48-0"
   sodipodi:linespacing="125%"
   transform="scale(1,-1)"><tspan
     sodipodi:role="line"
     id="tspan3821-2-8-9-18-1"
     x="484.67612"
     y="-387.00073"
     style="font-size:8px;font-style:normal;font-variant:normal;font-weight:normal;font-stretch:normal;font-family:DejaVu Serif;-inkscape-font-specification:DejaVu Serif">x<tspan
   style="font-size:52%;baseline-shift:sub"
   id="tspan3446">4</tspan></tspan></text>





<text
   xml:space="preserve"
   style="font-size:9.60000038px;font-style:normal;font-weight:normal;line-height:125%;letter-spacing:0px;word-spacing:0px;fill:#000000;fill-opacity:1;stroke:none;font-family:Sans"
   x="484.67612"
   y="-398.66516"
   id="text3819-7-6-6-48-4"
   sodipodi:linespacing="125%"
   transform="scale(1,-1)"><tspan
     sodipodi:role="line"
     id="tspan3821-2-8-9-18-8"
     x="484.67612"
     y="-398.66516"
     style="font-size:8px;font-style:normal;font-variant:normal;font-weight:normal;font-stretch:normal;font-family:DejaVu Serif;-inkscape-font-specification:DejaVu Serif">x<tspan
   style="font-size:52%;baseline-shift:sub"
   id="tspan3444">5</tspan></tspan></text>





<path
   sodipodi:type="arc"
   style="fill:#000000;stroke:none"
   id="path4004-5-81"
   sodipodi:cx="427.16949"
   sodipodi:cy="281.36441"
   sodipodi:rx="1.1822034"
   sodipodi:ry="1.5762712"
   d="m 428.3517,281.36441 c 0,0.87055 -0.52929,1.57627 -1.18221,1.57627 -0.65291,0 -1.1822,-0.70572 -1.1822,-1.57627 0,-0.87055 0.52929,-1.57627 1.1822,-1.57627 0.65292,0 1.18221,0.70572 1.18221,1.57627 z"
   transform="matrix(0.8,0,0,-0.60451602,140.60339,510.32743)" /><path
   sodipodi:type="arc"
   style="fill:#000000;stroke:none"
   id="path4004-5-81-1"
   sodipodi:cx="427.16949"
   sodipodi:cy="281.36441"
   sodipodi:rx="1.1822034"
   sodipodi:ry="1.5762712"
   d="m 428.3517,281.36441 c 0,0.87055 -0.52929,1.57627 -1.18221,1.57627 -0.65291,0 -1.1822,-0.70572 -1.1822,-1.57627 0,-0.87055 0.52929,-1.57627 1.1822,-1.57627 0.65292,0 1.18221,0.70572 1.18221,1.57627 z"
   transform="matrix(0.8,0,0,-0.60451602,140.60338,523.64692)" /><path
   sodipodi:type="arc"
   style="fill:#000000;stroke:none"
   id="path4004-5-81-5"
   sodipodi:cx="427.16949"
   sodipodi:cy="281.36441"
   sodipodi:rx="1.1822034"
   sodipodi:ry="1.5762712"
   d="m 428.3517,281.36441 c 0,0.87055 -0.52929,1.57627 -1.18221,1.57627 -0.65291,0 -1.1822,-0.70572 -1.1822,-1.57627 0,-0.87055 0.52929,-1.57627 1.1822,-1.57627 0.65292,0 1.18221,0.70572 1.18221,1.57627 z"
   transform="matrix(0.8,0,0,-0.60451602,140.60338,536.25709)" /><path
   sodipodi:type="arc"
   style="fill:#000000;stroke:none"
   id="path4004-5-81-8"
   sodipodi:cx="427.16949"
   sodipodi:cy="281.36441"
   sodipodi:rx="1.1822034"
   sodipodi:ry="1.5762712"
   d="m 428.3517,281.36441 c 0,0.87055 -0.52929,1.57627 -1.18221,1.57627 -0.65291,0 -1.1822,-0.70572 -1.1822,-1.57627 0,-0.87055 0.52929,-1.57627 1.1822,-1.57627 0.65292,0 1.18221,0.70572 1.18221,1.57627 z"
   transform="matrix(0.8,0,0,-0.60451602,140.52457,547.60624)" /><path
   sodipodi:type="arc"
   style="fill:#000000;stroke:none"
   id="path4004-5-81-19"
   sodipodi:cx="427.16949"
   sodipodi:cy="281.36441"
   sodipodi:rx="1.1822034"
   sodipodi:ry="1.5762712"
   d="m 428.3517,281.36441 c 0,0.87055 -0.52929,1.57627 -1.18221,1.57627 -0.65291,0 -1.1822,-0.70572 -1.1822,-1.57627 0,-0.87055 0.52929,-1.57627 1.1822,-1.57627 0.65292,0 1.18221,0.70572 1.18221,1.57627 z"
   transform="matrix(0.8,0,0,-0.60451602,140.60338,559.27065)" /><path
   sodipodi:type="arc"
   style="fill:#000000;stroke:none"
   id="path4004-5-81-9"
   sodipodi:cx="427.16949"
   sodipodi:cy="281.36441"
   sodipodi:rx="1.1822034"
   sodipodi:ry="1.5762712"
   d="m 428.3517,281.36441 c 0,0.87055 -0.52929,1.57627 -1.18221,1.57627 -0.65291,0 -1.1822,-0.70572 -1.1822,-1.57627 0,-0.87055 0.52929,-1.57627 1.1822,-1.57627 0.65292,0 1.18221,0.70572 1.18221,1.57627 z"
   transform="matrix(0.8,0,0,-0.60451602,140.60339,570.6198)" /><path
   sodipodi:type="arc"
   style="fill:#000000;stroke:none"
   id="path4004-5-81-4"
   sodipodi:cx="427.16949"
   sodipodi:cy="281.36441"
   sodipodi:rx="1.1822034"
   sodipodi:ry="1.5762712"
   d="m 428.3517,281.36441 c 0,0.87055 -0.52929,1.57627 -1.18221,1.57627 -0.65291,0 -1.1822,-0.70572 -1.1822,-1.57627 0,-0.87055 0.52929,-1.57627 1.1822,-1.57627 0.65292,0 1.18221,0.70572 1.18221,1.57627 z"
   transform="matrix(0.8,0,0,-0.60451602,140.6822,497.32319)" /><path
   sodipodi:type="arc"
   style="fill:#000000;stroke:none"
   id="path4004-5-81-82"
   sodipodi:cx="427.16949"
   sodipodi:cy="281.36441"
   sodipodi:rx="1.1822034"
   sodipodi:ry="1.5762712"
   d="m 428.3517,281.36441 c 0,0.87055 -0.52929,1.57627 -1.18221,1.57627 -0.65291,0 -1.1822,-0.70572 -1.1822,-1.57627 0,-0.87055 0.52929,-1.57627 1.1822,-1.57627 0.65292,0 1.18221,0.70572 1.18221,1.57627 z"
   transform="matrix(0.8,0,0,-0.60451602,140.52457,485.57997)" /><path
   sodipodi:type="arc"
   style="fill:#000000;stroke:none"
   id="path4004-5-81-43"
   sodipodi:cx="427.16949"
   sodipodi:cy="281.36441"
   sodipodi:rx="1.1822034"
   sodipodi:ry="1.5762712"
   d="m 428.3517,281.36441 c 0,0.87055 -0.52929,1.57627 -1.18221,1.57627 -0.65291,0 -1.1822,-0.70572 -1.1822,-1.57627 0,-0.87055 0.52929,-1.57627 1.1822,-1.57627 0.65292,0 1.18221,0.70572 1.18221,1.57627 z"
   transform="matrix(0.8,0,0,-0.60451602,140.60339,472.41811)" /><path
   sodipodi:type="arc"
   style="fill:#000000;stroke:none"
   id="path4004-5-81-49"
   sodipodi:cx="427.16949"
   sodipodi:cy="281.36441"
   sodipodi:rx="1.1822034"
   sodipodi:ry="1.5762712"
   d="m 428.3517,281.36441 c 0,0.87055 -0.52929,1.57627 -1.18221,1.57627 -0.65291,0 -1.1822,-0.70572 -1.1822,-1.57627 0,-0.87055 0.52929,-1.57627 1.1822,-1.57627 0.65292,0 1.18221,0.70572 1.18221,1.57627 z"
   transform="matrix(0.8,0,0,-0.60451602,140.76101,458.07404)" /><path
   sodipodi:type="arc"
   style="fill:#000000;stroke:none"
   id="path4004-5-81-83"
   sodipodi:cx="427.16949"
   sodipodi:cy="281.36441"
   sodipodi:rx="1.1822034"
   sodipodi:ry="1.5762712"
   d="m 428.3517,281.36441 c 0,0.87055 -0.52929,1.57627 -1.18221,1.57627 -0.65291,0 -1.1822,-0.70572 -1.1822,-1.57627 0,-0.87055 0.52929,-1.57627 1.1822,-1.57627 0.65292,0 1.18221,0.70572 1.18221,1.57627 z"
   transform="matrix(0.8,0,0,-0.60451602,140.6822,442.78421)" /><path
   sodipodi:type="arc"
   style="fill:#000000;stroke:none"
   id="path4004-5-81-82-1"
   sodipodi:cx="427.16949"
   sodipodi:cy="281.36441"
   sodipodi:rx="1.1822034"
   sodipodi:ry="1.5762712"
   d="m 428.3517,281.36441 c 0,0.87055 -0.52929,1.57627 -1.18221,1.57627 -0.65291,0 -1.1822,-0.70572 -1.1822,-1.57627 0,-0.87055 0.52929,-1.57627 1.1822,-1.57627 0.65292,0 1.18221,0.70572 1.18221,1.57627 z"
   transform="matrix(0.8,0,0,-0.60451602,58.7161,510.48506)" /><path
   sodipodi:type="arc"
   style="fill:#000000;stroke:none"
   id="path4004-5-81-82-9"
   sodipodi:cx="427.16949"
   sodipodi:cy="281.36441"
   sodipodi:rx="1.1822034"
   sodipodi:ry="1.5762712"
   d="m 428.3517,281.36441 c 0,0.87055 -0.52929,1.57627 -1.18221,1.57627 -0.65291,0 -1.1822,-0.70572 -1.1822,-1.57627 0,-0.87055 0.52929,-1.57627 1.1822,-1.57627 0.65292,0 1.18221,0.70572 1.18221,1.57627 z"
   transform="matrix(0.8,0,0,-0.60451602,49.258472,510.24861)" /><path
   sodipodi:type="arc"
   style="fill:#000000;stroke:none"
   id="path4004-5-81-82-98"
   sodipodi:cx="427.16949"
   sodipodi:cy="281.36441"
   sodipodi:rx="1.1822034"
   sodipodi:ry="1.5762712"
   d="m 428.3517,281.36441 c 0,0.87055 -0.52929,1.57627 -1.18221,1.57627 -0.65291,0 -1.1822,-0.70572 -1.1822,-1.57627 0,-0.87055 0.52929,-1.57627 1.1822,-1.57627 0.65292,0 1.18221,0.70572 1.18221,1.57627 z"
   transform="matrix(0.8,0,0,-0.60451602,28.372879,510.40625)" /><path
   sodipodi:type="arc"
   style="fill:#000000;stroke:none"
   id="path4004-5-81-82-7"
   sodipodi:cx="427.16949"
   sodipodi:cy="281.36441"
   sodipodi:rx="1.1822034"
   sodipodi:ry="1.5762712"
   d="m 428.3517,281.36441 c 0,0.87055 -0.52929,1.57627 -1.18221,1.57627 -0.65291,0 -1.1822,-0.70572 -1.1822,-1.57627 0,-0.87055 0.52929,-1.57627 1.1822,-1.57627 0.65292,0 1.18221,0.70572 1.18221,1.57627 z"
   transform="matrix(0.8,0,0,-0.60451602,-1.4186459,510.16981)" /><path
   sodipodi:type="arc"
   style="fill:#000000;stroke:none"
   id="path4004-5-81-82-8"
   sodipodi:cx="427.16949"
   sodipodi:cy="281.36441"
   sodipodi:rx="1.1822034"
   sodipodi:ry="1.5762712"
   d="m 428.3517,281.36441 c 0,0.87055 -0.52929,1.57627 -1.18221,1.57627 -0.65291,0 -1.1822,-0.70572 -1.1822,-1.57627 0,-0.87055 0.52929,-1.57627 1.1822,-1.57627 0.65292,0 1.18221,0.70572 1.18221,1.57627 z"
   transform="matrix(0.8,0,0,-0.60451602,-40.352544,510.40624)" /><path
   sodipodi:type="arc"
   style="fill:#000000;stroke:none"
   id="path4004-5-81-82-6"
   sodipodi:cx="427.16949"
   sodipodi:cy="281.36441"
   sodipodi:rx="1.1822034"
   sodipodi:ry="1.5762712"
   d="m 428.3517,281.36441 c 0,0.87055 -0.52929,1.57627 -1.18221,1.57627 -0.65291,0 -1.1822,-0.70572 -1.1822,-1.57627 0,-0.87055 0.52929,-1.57627 1.1822,-1.57627 0.65292,0 1.18221,0.70572 1.18221,1.57627 z"
   transform="matrix(0.8,0,0,-0.60451602,-89.138137,510.32743)" />





<g
   id="g3236"
   style="stroke-width:0.16874728;stroke-miterlimit:4;stroke-dasharray:none"
   transform="matrix(0,1.5215287,-3.2554994,0,1493.5253,-152.74027)"><path
     sodipodi:nodetypes="cc"
     transform="matrix(0.8,0,0,-0.8,0,595.2)"
     inkscape:connector-curvature="0"
     id="path3216"
     d="m 402.85536,266.88494 c -23.34864,-0.20784 0.13933,27.23784 -22.98845,29.04906"
     style="fill:none;stroke:#000000;stroke-width:0.21093407;stroke-linecap:butt;stroke-linejoin:miter;stroke-miterlimit:4;stroke-opacity:1;stroke-dasharray:none" /><path
     sodipodi:nodetypes="cc"
     inkscape:connector-curvature="0"
     id="path3216-6"
     d="m 322.28429,335.29762 c -18.67892,-0.16627 0.11146,21.79027 -18.39076,23.23925"
     style="fill:none;stroke:#000000;stroke-width:0.16874728;stroke-linecap:butt;stroke-linejoin:miter;stroke-miterlimit:4;stroke-opacity:1;stroke-dasharray:none" /></g><text
   xml:space="preserve"
   style="font-size:9.60000038px;font-style:normal;font-weight:normal;line-height:125%;letter-spacing:0px;word-spacing:0px;fill:#000000;fill-opacity:1;stroke:none;font-family:Sans"
   x="320.50479"
   y="-298.51349"
   id="text3819-7-6-2-3-2-8-7"
   sodipodi:linespacing="125%"
   transform="scale(1,-1)"><tspan
     sodipodi:role="line"
     id="tspan3821-2-8-4-4-6-4-9"
     x="320.50479"
     y="-298.51349"
     style="font-size:8px;font-style:normal;font-variant:normal;font-weight:normal;font-stretch:normal;font-family:DejaVu Serif;-inkscape-font-specification:DejaVu Serif">f(x<tspan
   style="font-size:4.16003418px;baseline-shift:sub"
   id="tspan4008">i</tspan>)</tspan></text>


<text
   xml:space="preserve"
   style="font-size:9.60000038px;font-style:normal;font-weight:normal;line-height:125%;letter-spacing:0px;word-spacing:0px;fill:#000000;fill-opacity:1;stroke:none;font-family:Sans"
   x="510.44772"
   y="-332.90823"
   id="text3819-7-6-2-3-1"
   sodipodi:linespacing="125%"
   transform="scale(1,-1)"><tspan
     sodipodi:role="line"
     id="tspan3821-2-8-4-4-7"
     x="510.44772"
     y="-332.90823"
     style="font-size:8px;font-style:normal;font-variant:normal;font-weight:normal;font-stretch:normal;font-family:DejaVu Serif;-inkscape-font-specification:DejaVu Serif">Optical axis</tspan></text>
</g></svg>