<?xml version="1.0" encoding="UTF-8" standalone="no"?>
<svg
   xmlns:dc="http://purl.org/dc/elements/1.1/"
   xmlns:cc="http://creativecommons.org/ns#"
   xmlns:rdf="http://www.w3.org/1999/02/22-rdf-syntax-ns#"
   xmlns:svg="http://www.w3.org/2000/svg"
   xmlns="http://www.w3.org/2000/svg"
   xmlns:sodipodi="http://sodipodi.sourceforge.net/DTD/sodipodi-0.dtd"
   xmlns:inkscape="http://www.inkscape.org/namespaces/inkscape"
   viewBox="0 0 992.25 744"
   height="744"
   width="992.25"
   xml:space="preserve"
   version="1.1"
   id="svg2"
   inkscape:version="0.48.3.1 r9886"
   sodipodi:docname="spect_colli_fanbeam.pdf"><sodipodi:namedview
     pagecolor="#ffffff"
     bordercolor="#666666"
     borderopacity="1"
     objecttolerance="10"
     gridtolerance="10"
     guidetolerance="10"
     inkscape:pageopacity="0"
     inkscape:pageshadow="2"
     inkscape:window-width="1920"
     inkscape:window-height="1004"
     id="namedview151"
     showgrid="false"
     inkscape:zoom="2.5376344"
     inkscape:cx="421.01338"
     inkscape:cy="383.22257"
     inkscape:window-x="0"
     inkscape:window-y="24"
     inkscape:window-maximized="1"
     inkscape:current-layer="g10" /><metadata
     id="metadata8"><rdf:RDF><cc:Work
         rdf:about=""><dc:format>image/svg+xml</dc:format><dc:type
           rdf:resource="http://purl.org/dc/dcmitype/StillImage" /><dc:title></dc:title></cc:Work></rdf:RDF></metadata><defs
     id="defs6"><clipPath
       id="clipPath108"
       clipPathUnits="userSpaceOnUse"><path
         style="clip-rule:evenodd"
         id="path110"
         d="M 1.1829e-5,0 793.80001,0 l 0,595.2 -793.799998171,0 0,-595.2 z" /></clipPath><clipPath
       id="clipPath120"
       clipPathUnits="userSpaceOnUse"><path
         style="clip-rule:evenodd"
         id="path122"
         d="M 1.1829e-5,0 793.80001,0 l 0,595.2 -793.799998171,0 0,-595.2 z" /></clipPath><clipPath
       id="clipPath132"
       clipPathUnits="userSpaceOnUse"><path
         style="clip-rule:evenodd"
         id="path134"
         d="M 1.1829e-5,0 793.80001,0 l 0,595.2 -793.799998171,0 0,-595.2 z" /></clipPath><clipPath
       id="clipPath144"
       clipPathUnits="userSpaceOnUse"><path
         style="clip-rule:evenodd"
         id="path146"
         d="M 1.1829e-5,0 793.80001,0 l 0,595.2 -793.799998171,0 0,-595.2 z" /></clipPath><clipPath
       id="clipPath156"
       clipPathUnits="userSpaceOnUse"><path
         style="clip-rule:evenodd"
         id="path158"
         d="M 1.1829e-5,0 793.80001,0 l 0,595.2 -793.799998171,0 0,-595.2 z" /></clipPath><clipPath
       id="clipPath168"
       clipPathUnits="userSpaceOnUse"><path
         style="clip-rule:evenodd"
         id="path170"
         d="M 1.1829e-5,0 793.80001,0 l 0,595.2 -793.799998171,0 0,-595.2 z" /></clipPath><clipPath
       id="clipPath180"
       clipPathUnits="userSpaceOnUse"><path
         style="clip-rule:evenodd"
         id="path182"
         d="M 1.1829e-5,0 793.80001,0 l 0,595.2 -793.799998171,0 0,-595.2 z" /></clipPath><clipPath
       id="clipPath192"
       clipPathUnits="userSpaceOnUse"><path
         style="clip-rule:evenodd"
         id="path194"
         d="M 1.1829e-5,0 793.80001,0 l 0,595.2 -793.799998171,0 0,-595.2 z" /></clipPath><clipPath
       id="clipPath204"
       clipPathUnits="userSpaceOnUse"><path
         style="clip-rule:evenodd"
         id="path206"
         d="M 1.1829e-5,0 793.80001,0 l 0,595.2 -793.799998171,0 0,-595.2 z" /></clipPath><clipPath
       id="clipPath220"
       clipPathUnits="userSpaceOnUse"><path
         style="clip-rule:evenodd"
         id="path222"
         d="M 1.1829e-5,0 793.80001,0 l 0,595.2 -793.799998171,0 0,-595.2 z" /></clipPath><clipPath
       id="clipPath232"
       clipPathUnits="userSpaceOnUse"><path
         style="clip-rule:evenodd"
         id="path234"
         d="M 1.1829e-5,0 793.80001,0 l 0,595.2 -793.799998171,0 0,-595.2 z" /></clipPath><clipPath
       id="clipPath244"
       clipPathUnits="userSpaceOnUse"><path
         style="clip-rule:evenodd"
         id="path246"
         d="M 1.1829e-5,0 793.80001,0 l 0,595.2 -793.799998171,0 0,-595.2 z" /></clipPath><clipPath
       id="clipPath256"
       clipPathUnits="userSpaceOnUse"><path
         style="clip-rule:evenodd"
         id="path258"
         d="M 1.1829e-5,0 793.80001,0 l 0,595.2 -793.799998171,0 0,-595.2 z" /></clipPath><clipPath
       id="clipPath268"
       clipPathUnits="userSpaceOnUse"><path
         style="clip-rule:evenodd"
         id="path270"
         d="M 1.1829e-5,0 793.80001,0 l 0,595.2 -793.799998171,0 0,-595.2 z" /></clipPath><clipPath
       id="clipPath280"
       clipPathUnits="userSpaceOnUse"><path
         style="clip-rule:evenodd"
         id="path282"
         d="M 1.1829e-5,0 793.80001,0 l 0,595.2 -793.799998171,0 0,-595.2 z" /></clipPath><clipPath
       id="clipPath292"
       clipPathUnits="userSpaceOnUse"><path
         style="clip-rule:evenodd"
         id="path294"
         d="M 1.1829e-5,0 793.80001,0 l 0,595.2 -793.799998171,0 0,-595.2 z" /></clipPath></defs><g
     transform="matrix(1.25,0,0,-1.25,0,744)"
     id="g10"><rect
   style="fill:#f5d002;fill-opacity:1;stroke:#000000;stroke-width:0.16;stroke-miterlimit:10;stroke-dasharray:none;stroke-opacity:1"
   id="rect4222"
   width="32.10025"
   height="176.55138"
   x="422.65332"
   y="-423.54498"
   transform="scale(1,-1)"
   ry="0.63050878" /><rect
   style="fill:#02cdf5;fill-opacity:1;stroke:#000000;stroke-width:0.16;stroke-miterlimit:10;stroke-dasharray:none;stroke-opacity:1"
   id="rect4226"
   width="33.883598"
   height="177.44305"
   x="482.39545"
   y="-423.54498"
   transform="scale(1,-1)"
   ry="0.40352559" /><path
   style="fill:none;fill-rule:evenodd;stroke:#dd1a06;stroke-width:0.80000001px;stroke-linecap:butt;stroke-linejoin:miter;stroke-opacity:1"
   d="M 482.39544,412.17614 328.94597,340.29817"
   id="path4230"
   inkscape:connector-curvature="0"
   sodipodi:nodetypes="cc" /><path
   style="fill:none;fill-rule:evenodd;stroke:#dd1a06;stroke-width:0.80000001px;stroke-linecap:butt;stroke-linejoin:miter;stroke-opacity:1"
   d="M 482.05447,400.37597 337.43211,340.32003"
   id="path4230-2"
   inkscape:connector-curvature="0"
   sodipodi:nodetypes="cc" /><path
   style="fill:none;fill-rule:evenodd;stroke:#dd1a06;stroke-width:0.80000001px;stroke-linecap:butt;stroke-linejoin:miter;stroke-opacity:1"
   d="M 482.05447,388.95305 346.1016,340.08864"
   id="path4230-8"
   inkscape:connector-curvature="0"
   sodipodi:nodetypes="cc" /><path
   style="fill:none;fill-rule:evenodd;stroke:#dd1a06;stroke-width:0.80000001px;stroke-linecap:butt;stroke-linejoin:miter;stroke-opacity:1"
   d="m 482.52801,377.56971 -126.96812,-37.2"
   id="path4230-25"
   inkscape:connector-curvature="0"
   sodipodi:nodetypes="cc" /><path
   style="fill:none;fill-rule:evenodd;stroke:#dd1a06;stroke-width:0.80000001px;stroke-linecap:butt;stroke-linejoin:miter;stroke-opacity:1"
   d="M 482.15338,366.06896 365.2734,340.21812"
   id="path4230-6"
   inkscape:connector-curvature="0"
   sodipodi:nodetypes="cc" /><path
   style="fill:none;fill-rule:evenodd;stroke:#dd1a06;stroke-width:0.80000001px;stroke-linecap:butt;stroke-linejoin:miter;stroke-opacity:1"
   d="m 482.3763,353.5842 -57.59888,-7.53892 -50.61161,-5.85938"
   id="path4230-0"
   inkscape:connector-curvature="0"
   sodipodi:nodetypes="ccc" /><path
   style="fill:none;fill-rule:evenodd;stroke:#dd1a06;stroke-width:0.80000001px;stroke-linecap:butt;stroke-linejoin:miter;stroke-opacity:1"
   d="m 482.28398,340.17349 -98.75285,0"
   id="path4230-0-4"
   inkscape:connector-curvature="0" /><path
   style="fill:none;fill-rule:evenodd;stroke:#dd1a06;stroke-width:0.80000001px;stroke-linecap:butt;stroke-linejoin:miter;stroke-opacity:1"
   d="M 482.28398,327.69007 374.38875,340.30024"
   id="path4230-0-0"
   inkscape:connector-curvature="0"
   sodipodi:nodetypes="cc" /><path
   style="fill:none;fill-rule:evenodd;stroke:#dd1a06;stroke-width:0.80000001px;stroke-linecap:butt;stroke-linejoin:miter;stroke-opacity:1"
   d="m 482.28398,315.42955 -117.0376,24.74746"
   id="path4230-0-8"
   inkscape:connector-curvature="0"
   sodipodi:nodetypes="cc" /><path
   style="fill:none;fill-rule:evenodd;stroke:#dd1a06;stroke-width:0.80000001px;stroke-linecap:butt;stroke-linejoin:miter;stroke-opacity:1"
   d="M 482.2205,302.32882 355.8829,340.47458"
   id="path4230-0-7"
   inkscape:connector-curvature="0"
   sodipodi:nodetypes="cc" /><path
   style="fill:none;fill-rule:evenodd;stroke:#dd1a06;stroke-width:0.80000001px;stroke-linecap:butt;stroke-linejoin:miter;stroke-opacity:1"
   d="M 481.90524,288.14238 346.42527,340.15933"
   id="path4230-0-2"
   inkscape:connector-curvature="0"
   sodipodi:nodetypes="cc" /><path
   style="fill:none;fill-rule:evenodd;stroke:#dd1a06;stroke-width:0.80000001px;stroke-linecap:butt;stroke-linejoin:miter;stroke-opacity:1"
   d="M 481.90524,272.69492 337.75578,340.31696"
   id="path4230-0-81"
   inkscape:connector-curvature="0"
   sodipodi:nodetypes="cc" /><path
   style="fill:none;fill-rule:evenodd;stroke:#dd1a06;stroke-width:0.80000001px;stroke-linecap:butt;stroke-linejoin:miter;stroke-opacity:1"
   d="M 481.90524,259.13899 328.92865,340.15933"
   id="path4230-0-26"
   inkscape:connector-curvature="0"
   sodipodi:nodetypes="cc" /><text
   xml:space="preserve"
   style="font-style:normal;font-weight:normal;font-size:14px;line-height:125%;font-family:sans-serif;letter-spacing:0px;word-spacing:0px;fill:#000000;fill-opacity:1;stroke:none;stroke-width:1px;stroke-linecap:butt;stroke-linejoin:miter;stroke-opacity:1"
   x="396.79477"
   y="-431.57004"
   id="text4364"
   sodipodi:linespacing="125%"
   transform="scale(1,-1)"><tspan
     sodipodi:role="line"
     id="tspan4366"
     x="396.79477"
     y="-431.57004">Collimator</tspan></text>





<text
   xml:space="preserve"
   style="font-style:normal;font-weight:normal;font-size:14px;line-height:125%;font-family:sans-serif;letter-spacing:0px;word-spacing:0px;fill:#000000;fill-opacity:1;stroke:none;stroke-width:1px;stroke-linecap:butt;stroke-linejoin:miter;stroke-opacity:1"
   x="451.33389"
   y="-222.15755"
   id="text4364-9"
   sodipodi:linespacing="125%"
   transform="scale(1,-1)"><tspan
     sodipodi:role="line"
     id="tspan4366-6"
     x="451.33389"
     y="-222.15755">Gamma camera</tspan></text>





<path
   style="fill:none;stroke:#000000;stroke-width:0.71523041;stroke-linecap:butt;stroke-linejoin:miter;stroke-miterlimit:4;stroke-opacity:1;stroke-dasharray:0.71523037, 0.71523037;stroke-dashoffset:0"
   d="m 522.35697,340.15933 -198.2203,0.22292"
   id="path4230-0-4-9"
   inkscape:connector-curvature="0"
   sodipodi:nodetypes="cc" /><text
   xml:space="preserve"
   style="font-size:9.60000038px;font-style:normal;font-weight:normal;line-height:125%;letter-spacing:0px;word-spacing:0px;fill:#000000;fill-opacity:1;stroke:none;font-family:Sans"
   x="483.32126"
   y="-325.61298"
   id="text3819-7-6-6"
   sodipodi:linespacing="125%"
   transform="scale(1,-1)"><tspan
     sodipodi:role="line"
     id="tspan3821-2-8-9"
     x="483.32126"
     y="-325.61298"
     style="font-size:8px;font-style:normal;font-variant:normal;font-weight:normal;font-stretch:normal;font-family:DejaVu Serif;-inkscape-font-specification:DejaVu Serif">-x<tspan
   style="font-size:52%;baseline-shift:sub"
   id="tspan3371">1</tspan></tspan></text>




<text
   xml:space="preserve"
   style="font-size:9.60000038px;font-style:normal;font-weight:normal;line-height:125%;letter-spacing:0px;word-spacing:0px;fill:#000000;fill-opacity:1;stroke:none;font-family:Sans"
   x="483.36841"
   y="-313.35248"
   id="text3819-7-6-6-6"
   sodipodi:linespacing="125%"
   transform="scale(1,-1)"><tspan
     sodipodi:role="line"
     id="tspan3821-2-8-9-1"
     x="483.36841"
     y="-313.35248"
     style="font-size:8px;font-style:normal;font-variant:normal;font-weight:normal;font-stretch:normal;font-family:DejaVu Serif;-inkscape-font-specification:DejaVu Serif">-x<tspan
   style="font-size:52%;baseline-shift:sub"
   id="tspan3373">2</tspan></tspan></text>




<text
   xml:space="preserve"
   style="font-size:9.60000038px;font-style:normal;font-weight:normal;line-height:125%;letter-spacing:0px;word-spacing:0px;fill:#000000;fill-opacity:1;stroke:none;font-family:Sans"
   x="483.49564"
   y="-300.47986"
   id="text3819-7-6-6-1"
   sodipodi:linespacing="125%"
   transform="scale(1,-1)"><tspan
     sodipodi:role="line"
     id="tspan3821-2-8-9-8"
     x="483.49564"
     y="-300.47986"
     style="font-size:8px;font-style:normal;font-variant:normal;font-weight:normal;font-stretch:normal;font-family:DejaVu Serif;-inkscape-font-specification:DejaVu Serif">-x<tspan
   style="font-size:52%;baseline-shift:sub"
   id="tspan3375">3</tspan></tspan></text>




<text
   xml:space="preserve"
   style="font-size:9.60000038px;font-style:normal;font-weight:normal;line-height:125%;letter-spacing:0px;word-spacing:0px;fill:#000000;fill-opacity:1;stroke:none;font-family:Sans"
   x="483.84573"
   y="-286.15643"
   id="text3819-7-6-6-2"
   sodipodi:linespacing="125%"
   transform="scale(1,-1)"><tspan
     sodipodi:role="line"
     id="tspan3821-2-8-9-3"
     x="483.84573"
     y="-286.15643"
     style="font-size:8px;font-style:normal;font-variant:normal;font-weight:normal;font-stretch:normal;font-family:DejaVu Serif;-inkscape-font-specification:DejaVu Serif">-x<tspan
   style="font-size:52%;baseline-shift:sub"
   id="tspan3377">4</tspan></tspan></text>




<text
   xml:space="preserve"
   style="font-size:9.60000038px;font-style:normal;font-weight:normal;line-height:125%;letter-spacing:0px;word-spacing:0px;fill:#000000;fill-opacity:1;stroke:none;font-family:Sans"
   x="483.28442"
   y="-271.10733"
   id="text3819-7-6-6-10"
   sodipodi:linespacing="125%"
   transform="scale(1,-1)"><tspan
     sodipodi:role="line"
     id="tspan3821-2-8-9-7"
     x="483.28442"
     y="-271.10733"
     style="font-size:8px;font-style:normal;font-variant:normal;font-weight:normal;font-stretch:normal;font-family:DejaVu Serif;-inkscape-font-specification:DejaVu Serif">-x<tspan
   style="font-size:52%;baseline-shift:sub"
   id="tspan3379">5</tspan></tspan></text>




<text
   xml:space="preserve"
   style="font-size:9.60000038px;font-style:normal;font-weight:normal;line-height:125%;letter-spacing:0px;word-spacing:0px;fill:#000000;fill-opacity:1;stroke:none;font-family:Sans"
   x="483.00485"
   y="-257.23367"
   id="text3819-7-6-6-23"
   sodipodi:linespacing="125%"
   transform="scale(1,-1)"><tspan
     sodipodi:role="line"
     id="tspan3821-2-8-9-5"
     x="483.00485"
     y="-257.23367"
     style="font-size:8px;font-style:normal;font-variant:normal;font-weight:normal;font-stretch:normal;font-family:DejaVu Serif;-inkscape-font-specification:DejaVu Serif">-x<tspan
   style="font-size:52%;baseline-shift:sub"
   id="tspan3381">6</tspan></tspan></text>




<text
   xml:space="preserve"
   style="font-size:9.60000038px;font-style:normal;font-weight:normal;line-height:125%;letter-spacing:0px;word-spacing:0px;fill:#000000;fill-opacity:1;stroke:none;font-family:Sans"
   x="485.35052"
   y="-338.50659"
   id="text3819-7-6-2"
   sodipodi:linespacing="125%"
   transform="scale(1,-1)"><tspan
     sodipodi:role="line"
     id="tspan3821-2-8-4"
     x="485.35052"
     y="-338.50659"
     style="font-size:8px;font-style:normal;font-variant:normal;font-weight:normal;font-stretch:normal;font-family:DejaVu Serif;-inkscape-font-specification:DejaVu Serif">x<tspan
   style="font-size:52.00042725%;baseline-shift:sub"
   id="tspan3369">0</tspan></tspan></text>




<text
   xml:space="preserve"
   style="font-size:9.60000038px;font-style:normal;font-weight:normal;line-height:125%;letter-spacing:0px;word-spacing:0px;fill:#000000;fill-opacity:1;stroke:none;font-family:Sans"
   x="484.35397"
   y="-353.03192"
   id="text3819"
   sodipodi:linespacing="125%"
   transform="scale(1,-1)"><tspan
     sodipodi:role="line"
     id="tspan3821"
     x="484.35397"
     y="-353.03192"
     style="font-size:8px;font-style:normal;font-variant:normal;font-weight:normal;font-stretch:normal;font-family:DejaVu Serif;-inkscape-font-specification:DejaVu Serif">x<tspan
   style="font-size:52%;baseline-shift:sub"
   id="tspan3367">1</tspan></tspan></text>




<text
   xml:space="preserve"
   style="font-size:9.60000038px;font-style:normal;font-weight:normal;line-height:125%;letter-spacing:0px;word-spacing:0px;fill:#000000;fill-opacity:1;stroke:none;font-family:Sans"
   x="484.40109"
   y="-365.06955"
   id="text3819-5"
   sodipodi:linespacing="125%"
   transform="scale(1,-1)"><tspan
     sodipodi:role="line"
     id="tspan3821-4"
     x="484.40109"
     y="-365.06955"
     style="font-size:8px;font-style:normal;font-variant:normal;font-weight:normal;font-stretch:normal;font-family:DejaVu Serif;-inkscape-font-specification:DejaVu Serif">x<tspan
   style="font-size:52%;baseline-shift:sub"
   id="tspan3365">2</tspan></tspan></text>




<text
   xml:space="preserve"
   style="font-size:9.60000038px;font-style:normal;font-weight:normal;line-height:125%;letter-spacing:0px;word-spacing:0px;fill:#000000;fill-opacity:1;stroke:none;font-family:Sans"
   x="484.08246"
   y="-376.71793"
   id="text3819-0"
   sodipodi:linespacing="125%"
   transform="scale(1,-1)"><tspan
     sodipodi:role="line"
     id="tspan3821-6"
     x="484.08246"
     y="-376.71793"
     style="font-size:8px;font-style:normal;font-variant:normal;font-weight:normal;font-stretch:normal;font-family:DejaVu Serif;-inkscape-font-specification:DejaVu Serif">x<tspan
   style="font-size:52%;baseline-shift:sub"
   id="tspan3363">3</tspan></tspan></text>




<text
   xml:space="preserve"
   style="font-size:9.60000038px;font-style:normal;font-weight:normal;line-height:125%;letter-spacing:0px;word-spacing:0px;fill:#000000;fill-opacity:1;stroke:none;font-family:Sans"
   x="483.98679"
   y="-388.03015"
   id="text3819-7"
   sodipodi:linespacing="125%"
   transform="scale(1,-1)"><tspan
     sodipodi:role="line"
     id="tspan3821-2"
     x="483.98679"
     y="-388.03015"
     style="font-size:8px;font-style:normal;font-variant:normal;font-weight:normal;font-stretch:normal;font-family:DejaVu Serif;-inkscape-font-specification:DejaVu Serif">x<tspan
   style="font-size:52%;baseline-shift:sub"
   id="tspan3361">4</tspan></tspan></text>




<text
   xml:space="preserve"
   style="font-size:9.60000038px;font-style:normal;font-weight:normal;line-height:125%;letter-spacing:0px;word-spacing:0px;fill:#000000;fill-opacity:1;stroke:none;font-family:Sans"
   x="483.87128"
   y="-399.0625"
   id="text3819-7-2"
   sodipodi:linespacing="125%"
   transform="scale(1,-1)"><tspan
     sodipodi:role="line"
     id="tspan3821-2-9"
     x="483.87128"
     y="-399.0625"
     style="font-size:8px;font-style:normal;font-variant:normal;font-weight:normal;font-stretch:normal;font-family:DejaVu Serif;-inkscape-font-specification:DejaVu Serif">x<tspan
   style="font-size:52%;baseline-shift:sub"
   id="tspan3359">5</tspan></tspan></text>




<text
   xml:space="preserve"
   style="font-size:9.60000038px;font-style:normal;font-weight:normal;line-height:125%;letter-spacing:0px;word-spacing:0px;fill:#000000;fill-opacity:1;stroke:none;font-family:Sans"
   x="483.3688"
   y="-410.60153"
   id="text3819-7-6"
   sodipodi:linespacing="125%"
   transform="scale(1,-1)"><tspan
     sodipodi:role="line"
     id="tspan3821-2-8"
     x="483.3688"
     y="-410.60153"
     style="font-size:8px;font-style:normal;font-variant:normal;font-weight:normal;font-stretch:normal;font-family:DejaVu Serif;-inkscape-font-specification:DejaVu Serif">x<tspan
   style="font-size:52%;baseline-shift:sub"
   id="tspan3357">6</tspan></tspan></text>




<path
   sodipodi:type="arc"
   style="fill:#000000;stroke:none"
   id="path4004-5"
   sodipodi:cx="427.16949"
   sodipodi:cy="281.36441"
   sodipodi:rx="1.1822034"
   sodipodi:ry="1.5762712"
   d="m 428.3517,281.36441 c 0,0.87055 -0.52929,1.57627 -1.18221,1.57627 -0.65291,0 -1.1822,-0.70572 -1.1822,-1.57627 0,-0.87055 0.52929,-1.57627 1.1822,-1.57627 0.65292,0 1.18221,0.70572 1.18221,1.57627 z"
   transform="matrix(0.8,0,0,-0.60451602,140.60411,559.08191)" /><path
   sodipodi:type="arc"
   style="fill:#000000;stroke:none"
   id="path4004-5-8"
   sodipodi:cx="427.16949"
   sodipodi:cy="281.36441"
   sodipodi:rx="1.1822034"
   sodipodi:ry="1.5762712"
   d="m 428.3517,281.36441 c 0,0.87055 -0.52929,1.57627 -1.18221,1.57627 -0.65291,0 -1.1822,-0.70572 -1.1822,-1.57627 0,-0.87055 0.52929,-1.57627 1.1822,-1.57627 0.65292,0 1.18221,0.70572 1.18221,1.57627 z"
   transform="matrix(0.8,0,0,-0.60451602,140.65984,570.67367)" /><path
   sodipodi:type="arc"
   style="fill:#000000;stroke:none"
   id="path4004-5-5"
   sodipodi:cx="427.16949"
   sodipodi:cy="281.36441"
   sodipodi:rx="1.1822034"
   sodipodi:ry="1.5762712"
   d="m 428.3517,281.36441 c 0,0.87055 -0.52929,1.57627 -1.18221,1.57627 -0.65291,0 -1.1822,-0.70572 -1.1822,-1.57627 0,-0.87055 0.52929,-1.57627 1.1822,-1.57627 0.65292,0 1.18221,0.70572 1.18221,1.57627 z"
   transform="matrix(0.8,0,0,-0.60451602,140.60411,582.32116)" /><path
   sodipodi:type="arc"
   style="fill:#000000;stroke:none"
   id="path4004-5-57"
   sodipodi:cx="427.16949"
   sodipodi:cy="281.36441"
   sodipodi:rx="1.1822034"
   sodipodi:ry="1.5762712"
   d="m 428.3517,281.36441 c 0,0.87055 -0.52929,1.57627 -1.18221,1.57627 -0.65291,0 -1.1822,-0.70572 -1.1822,-1.57627 0,-0.87055 0.52929,-1.57627 1.1822,-1.57627 0.65292,0 1.18221,0.70572 1.18221,1.57627 z"
   transform="matrix(0.8,0,0,-0.60451602,140.60411,547.60162)" /><path
   sodipodi:type="arc"
   style="fill:#000000;stroke:none"
   id="path4004-5-6"
   sodipodi:cx="427.16949"
   sodipodi:cy="281.36441"
   sodipodi:rx="1.1822034"
   sodipodi:ry="1.5762712"
   d="m 428.3517,281.36441 c 0,0.87055 -0.52929,1.57627 -1.18221,1.57627 -0.65291,0 -1.1822,-0.70572 -1.1822,-1.57627 0,-0.87055 0.52929,-1.57627 1.1822,-1.57627 0.65292,0 1.18221,0.70572 1.18221,1.57627 z"
   transform="matrix(0.8,0,0,-0.60451602,140.60411,536.17705)" /><path
   sodipodi:type="arc"
   style="fill:#000000;stroke:none"
   id="path4004-5-81"
   sodipodi:cx="427.16949"
   sodipodi:cy="281.36441"
   sodipodi:rx="1.1822034"
   sodipodi:ry="1.5762712"
   d="m 428.3517,281.36441 c 0,0.87055 -0.52929,1.57627 -1.18221,1.57627 -0.65291,0 -1.1822,-0.70572 -1.1822,-1.57627 0,-0.87055 0.52929,-1.57627 1.1822,-1.57627 0.65292,0 1.18221,0.70572 1.18221,1.57627 z"
   transform="matrix(0.8,0,0,-0.60451602,140.65984,523.58216)" /><path
   sodipodi:type="arc"
   style="fill:#000000;stroke:none"
   id="path4004-5-7"
   sodipodi:cx="427.16949"
   sodipodi:cy="281.36441"
   sodipodi:rx="1.1822034"
   sodipodi:ry="1.5762712"
   d="m 428.3517,281.36441 c 0,0.87055 -0.52929,1.57627 -1.18221,1.57627 -0.65291,0 -1.1822,-0.70572 -1.1822,-1.57627 0,-0.87055 0.52929,-1.57627 1.1822,-1.57627 0.65292,0 1.18221,0.70572 1.18221,1.57627 z"
   transform="matrix(0.8,0,0,-0.60451602,140.65984,510.20705)" /><path
   sodipodi:type="arc"
   style="fill:#000000;stroke:none"
   id="path4004-5-2"
   sodipodi:cx="427.16949"
   sodipodi:cy="281.36441"
   sodipodi:rx="1.1822034"
   sodipodi:ry="1.5762712"
   d="m 428.3517,281.36441 c 0,0.87055 -0.52929,1.57627 -1.18221,1.57627 -0.65291,0 -1.1822,-0.70572 -1.1822,-1.57627 0,-0.87055 0.52929,-1.57627 1.1822,-1.57627 0.65292,0 1.18221,0.70572 1.18221,1.57627 z"
   transform="matrix(0.8,0,0,-0.60451602,140.65984,497.77936)" /><path
   sodipodi:type="arc"
   style="fill:#000000;stroke:none"
   id="path4004-5-24"
   sodipodi:cx="427.16949"
   sodipodi:cy="281.36441"
   sodipodi:rx="1.1822034"
   sodipodi:ry="1.5762712"
   d="m 428.3517,281.36441 c 0,0.87055 -0.52929,1.57627 -1.18221,1.57627 -0.65291,0 -1.1822,-0.70572 -1.1822,-1.57627 0,-0.87055 0.52929,-1.57627 1.1822,-1.57627 0.65292,0 1.18221,0.70572 1.18221,1.57627 z"
   transform="matrix(0.8,0,0,-0.60451602,140.60411,485.46311)" /><path
   sodipodi:type="arc"
   style="fill:#000000;stroke:none"
   id="path4004-5-3"
   sodipodi:cx="427.16949"
   sodipodi:cy="281.36441"
   sodipodi:rx="1.1822034"
   sodipodi:ry="1.5762712"
   d="m 428.3517,281.36441 c 0,0.87055 -0.52929,1.57627 -1.18221,1.57627 -0.65291,0 -1.1822,-0.70572 -1.1822,-1.57627 0,-0.87055 0.52929,-1.57627 1.1822,-1.57627 0.65292,0 1.18221,0.70572 1.18221,1.57627 z"
   transform="matrix(0.8,0,0,-0.60451602,140.54838,472.31092)" /><path
   sodipodi:type="arc"
   style="fill:#000000;stroke:none"
   id="path4004-5-28"
   sodipodi:cx="427.16949"
   sodipodi:cy="281.36441"
   sodipodi:rx="1.1822034"
   sodipodi:ry="1.5762712"
   d="m 428.3517,281.36441 c 0,0.87055 -0.52929,1.57627 -1.18221,1.57627 -0.65291,0 -1.1822,-0.70572 -1.1822,-1.57627 0,-0.87055 0.52929,-1.57627 1.1822,-1.57627 0.65292,0 1.18221,0.70572 1.18221,1.57627 z"
   transform="matrix(0.8,0,0,-0.60451602,140.60411,458.26706)" /><path
   sodipodi:type="arc"
   style="fill:#000000;stroke:none"
   id="path4004-5-26"
   sodipodi:cx="427.16949"
   sodipodi:cy="281.36441"
   sodipodi:rx="1.1822034"
   sodipodi:ry="1.5762712"
   d="m 428.3517,281.36441 c 0,0.87055 -0.52929,1.57627 -1.18221,1.57627 -0.65291,0 -1.1822,-0.70572 -1.1822,-1.57627 0,-0.87055 0.52929,-1.57627 1.1822,-1.57627 0.65292,0 1.18221,0.70572 1.18221,1.57627 z"
   transform="matrix(0.8,0,0,-0.60451602,140.54838,442.7185)" /><path
   sodipodi:type="arc"
   style="fill:#000000;stroke:none"
   id="path4004-5-1"
   sodipodi:cx="427.16949"
   sodipodi:cy="281.36441"
   sodipodi:rx="1.1822034"
   sodipodi:ry="1.5762712"
   d="m 428.3517,281.36441 c 0,0.87055 -0.52929,1.57627 -1.18221,1.57627 -0.65291,0 -1.1822,-0.70572 -1.1822,-1.57627 0,-0.87055 0.52929,-1.57627 1.1822,-1.57627 0.65292,0 1.18221,0.70572 1.18221,1.57627 z"
   transform="matrix(0.8,0,0,-0.60451602,140.71557,429.12048)" /><path
   sodipodi:type="arc"
   style="fill:#000000;stroke:none"
   id="path4004-5-9"
   sodipodi:cx="427.16949"
   sodipodi:cy="281.36441"
   sodipodi:rx="1.1822034"
   sodipodi:ry="1.5762712"
   d="m 428.3517,281.36441 c 0,0.87055 -0.52929,1.57627 -1.18221,1.57627 -0.65291,0 -1.1822,-0.70572 -1.1822,-1.57627 0,-0.87055 0.52929,-1.57627 1.1822,-1.57627 0.65292,0 1.18221,0.70572 1.18221,1.57627 z"
   transform="matrix(0.8,0,0,-0.60451602,42.018446,510.15132)" /><path
   sodipodi:type="arc"
   style="fill:#000000;stroke:none"
   id="path4004-5-68"
   sodipodi:cx="427.16949"
   sodipodi:cy="281.36441"
   sodipodi:rx="1.1822034"
   sodipodi:ry="1.5762712"
   d="m 428.3517,281.36441 c 0,0.87055 -0.52929,1.57627 -1.18221,1.57627 -0.65291,0 -1.1822,-0.70572 -1.1822,-1.57627 0,-0.87055 0.52929,-1.57627 1.1822,-1.57627 0.65292,0 1.18221,0.70572 1.18221,1.57627 z"
   transform="matrix(0.8,0,0,-0.60451602,32.87879,510.37425)" /><path
   sodipodi:type="arc"
   style="fill:#000000;stroke:none"
   id="path4004-5-93"
   sodipodi:cx="427.16949"
   sodipodi:cy="281.36441"
   sodipodi:rx="1.1822034"
   sodipodi:ry="1.5762712"
   d="m 428.3517,281.36441 c 0,0.87055 -0.52929,1.57627 -1.18221,1.57627 -0.65291,0 -1.1822,-0.70572 -1.1822,-1.57627 0,-0.87055 0.52929,-1.57627 1.1822,-1.57627 0.65292,0 1.18221,0.70572 1.18221,1.57627 z"
   transform="matrix(0.8,0,0,-0.60451602,23.627676,510.42998)" /><path
   sodipodi:type="arc"
   style="fill:#000000;stroke:none"
   id="path4004-5-4"
   sodipodi:cx="427.16949"
   sodipodi:cy="281.36441"
   sodipodi:rx="1.1822034"
   sodipodi:ry="1.5762712"
   d="m 428.3517,281.36441 c 0,0.87055 -0.52929,1.57627 -1.18221,1.57627 -0.65291,0 -1.1822,-0.70572 -1.1822,-1.57627 0,-0.87055 0.52929,-1.57627 1.1822,-1.57627 0.65292,0 1.18221,0.70572 1.18221,1.57627 z"
   transform="matrix(0.8,0,0,-0.60451602,14.320833,510.59717)" /><path
   sodipodi:type="arc"
   style="fill:#000000;stroke:none"
   id="path4004-5-577"
   sodipodi:cx="427.16949"
   sodipodi:cy="281.36441"
   sodipodi:rx="1.1822034"
   sodipodi:ry="1.5762712"
   d="m 428.3517,281.36441 c 0,0.87055 -0.52929,1.57627 -1.18221,1.57627 -0.65291,0 -1.1822,-0.70572 -1.1822,-1.57627 0,-0.87055 0.52929,-1.57627 1.1822,-1.57627 0.65292,0 1.18221,0.70572 1.18221,1.57627 z"
   transform="matrix(0.8,0,0,-0.60451602,4.846801,510.37424)" /><path
   sodipodi:type="arc"
   style="fill:#000000;stroke:none"
   id="path4004-5-53"
   sodipodi:cx="427.16949"
   sodipodi:cy="281.36441"
   sodipodi:rx="1.1822034"
   sodipodi:ry="1.5762712"
   d="m 428.3517,281.36441 c 0,0.87055 -0.52929,1.57627 -1.18221,1.57627 -0.65291,0 -1.1822,-0.70572 -1.1822,-1.57627 0,-0.87055 0.52929,-1.57627 1.1822,-1.57627 0.65292,0 1.18221,0.70572 1.18221,1.57627 z"
   transform="matrix(0.8,0,0,-0.60451602,-4.0699357,510.48571)" /><path
   sodipodi:type="arc"
   style="fill:#000000;stroke:none"
   id="path4004-5-44"
   sodipodi:cx="427.16949"
   sodipodi:cy="281.36441"
   sodipodi:rx="1.1822034"
   sodipodi:ry="1.5762712"
   d="m 428.3517,281.36441 c 0,0.87055 -0.52929,1.57627 -1.18221,1.57627 -0.65291,0 -1.1822,-0.70572 -1.1822,-1.57627 0,-0.87055 0.52929,-1.57627 1.1822,-1.57627 0.65292,0 1.18221,0.70572 1.18221,1.57627 z"
   transform="matrix(0.8,0,0,-0.60451602,-12.373646,510.42997)" />

<text
   xml:space="preserve"
   style="font-size:9.60000038px;font-style:normal;font-weight:normal;line-height:125%;letter-spacing:0px;word-spacing:0px;fill:#000000;fill-opacity:1;stroke:none;font-family:Sans"
   x="351.68948"
   y="-312.45822"
   id="text3819-7-6-2-3-2-8-7"
   sodipodi:linespacing="125%"
   transform="scale(1,-1)"><tspan
     sodipodi:role="line"
     id="tspan3821-2-8-4-4-6-4-9"
     x="351.68948"
     y="-312.45822"
     style="font-size:8px;font-style:normal;font-variant:normal;font-weight:normal;font-stretch:normal;font-family:DejaVu Serif;-inkscape-font-specification:DejaVu Serif">f(x<tspan
   style="font-size:52.00042725%;baseline-shift:sub"
   id="tspan4008">i</tspan>)</tspan></text>




<g
   id="g3236"
   style="stroke-width:0.41961909;stroke-miterlimit:4;stroke-dasharray:none"
   transform="matrix(0,0.71857861,-1.2645477,0,809.91713,104.12076)"><path
     sodipodi:nodetypes="cc"
     transform="matrix(0.8,0,0,-0.8,0,595.2)"
     inkscape:connector-curvature="0"
     id="path3216"
     d="m 402.85536,266.88494 c -23.34864,-0.20784 0.13933,27.23784 -22.98845,29.04906"
     style="fill:none;stroke:#000000;stroke-width:0.52452387;stroke-linecap:butt;stroke-linejoin:miter;stroke-miterlimit:4;stroke-opacity:1;stroke-dasharray:none" /><path
     sodipodi:nodetypes="cc"
     inkscape:connector-curvature="0"
     id="path3216-6"
     d="m 322.28429,335.29762 c -18.67892,-0.16627 0.11146,21.79027 -18.39076,23.23925"
     style="fill:none;stroke:#000000;stroke-width:0.41961909;stroke-linecap:butt;stroke-linejoin:miter;stroke-miterlimit:4;stroke-opacity:1;stroke-dasharray:none" /></g><text
   xml:space="preserve"
   style="font-size:9.60000038px;font-style:normal;font-weight:normal;line-height:125%;letter-spacing:0px;word-spacing:0px;fill:#000000;fill-opacity:1;stroke:none;font-family:Sans"
   x="509.18671"
   y="-332.27771"
   id="text3819-7-6-2-3-1"
   sodipodi:linespacing="125%"
   transform="scale(1,-1)"><tspan
     sodipodi:role="line"
     id="tspan3821-2-8-4-4-7"
     x="509.18671"
     y="-332.27771"
     style="font-size:8px;font-style:normal;font-variant:normal;font-weight:normal;font-stretch:normal;font-family:DejaVu Serif;-inkscape-font-specification:DejaVu Serif">Optical axis</tspan></text>
</g></svg>